Amita-Bold.ufo
<glyph name="exclam" format="1">
  <advance width="193"/>
  <unicode hex="0021"/>
  <outline>
    <contour>
      <point x="155" y="518" type="line"/>
      <point x="122" y="134" type="line"/>
      <point x="73" y="122" type="line"/>
      <point x="38" y="489" type="line"/>
    </contour>
    <contour>
      <point x="145" y="12"/>
      <point x="123" y="-10"/>
      <point x="96" y="-10" type="curve" smooth="yes"/>
      <point x="70" y="-10"/>
      <point x="47" y="12"/>
      <point x="47" y="39" type="curve" smooth="yes"/>
      <point x="47" y="65"/>
      <point x="70" y="88"/>
      <point x="96" y="88" type="curve" smooth="yes"/>
      <point x="123" y="88"/>
      <point x="145" y="65"/>
      <point x="145" y="39" type="curve" smooth="yes"/>
    </contour>
  </outline>
</glyph>
<glyph name="quotedbl" format="1">
  <advance width="292"/>
  <unicode hex="0022"/>
  <outline>
    <contour>
      <point x="134" y="519" type="line"/>
      <point x="110" y="339" type="line"/>
      <point x="70" y="324" type="line"/>
      <point x="45" y="485" type="line"/>
    </contour>
    <contour>
      <point x="247" y="519" type="line"/>
      <point x="223" y="339" type="line"/>
      <point x="183" y="324" type="line"/>
      <point x="158" y="485" type="line"/>
    </contour>
  </outline>
</glyph>
<glyph name="dollar" format="1">
  <advance width="410"/>
  <unicode hex="0024"/>
  <outline>
    <contour>
      <point x="193" y="0" type="line"/>
      <point x="179" y="-105" type="line"/>
      <point x="246" y="-85" type="line"/>
      <point x="232" y="3" type="line"/>
    </contour>
    <contour>
      <point x="180" y="606" type="line"/>
      <point x="194" y="520" type="line"/>
      <point x="233" y="523" type="line"/>
      <point x="246" y="626" type="line"/>
    </contour>
    <component base="S"/>
  </outline>
</glyph>
<glyph name="slash" format="1">
  <advance width="419"/>
  <unicode hex="002F"/>
  <outline>
    <contour>
      <point x="25" y="11" type="line"/>
      <point x="64" y="-14" type="line"/>
      <point x="394" y="505" type="line"/>
      <point x="359" y="528" type="line"/>
    </contour>
  </outline>
</glyph>
<glyph name="zero" format="1">
  <advance width="501"/>
  <unicode hex="0030"/>
  <outline>
    <contour>
      <point x="100" y="-7"/>
      <point x="25" y="126"/>
      <point x="25" y="259" type="curve" smooth="yes"/>
      <point x="25" y="392"/>
      <point x="100" y="525"/>
      <point x="250" y="525" type="curve" smooth="yes"/>
      <point x="400" y="525"/>
      <point x="475" y="392"/>
      <point x="475" y="259" type="curve" smooth="yes"/>
      <point x="475" y="126"/>
      <point x="400" y="-7"/>
      <point x="250" y="-7" type="curve" smooth="yes"/>
    </contour>
    <contour>
      <point x="148" y="488"/>
      <point x="114" y="409"/>
      <point x="114" y="317" type="curve" smooth="yes"/>
      <point x="114" y="190"/>
      <point x="179" y="39"/>
      <point x="276" y="39" type="curve" smooth="yes"/>
      <point x="357" y="39"/>
      <point x="391" y="119"/>
      <point x="391" y="211" type="curve" smooth="yes"/>
      <point x="391" y="337"/>
      <point x="326" y="488"/>
      <point x="228" y="488" type="curve" smooth="yes"/>
    </contour>
  </outline>
</glyph>
<glyph name="four" format="1">
  <advance width="417"/>
  <unicode hex="0034"/>
  <outline>
    <contour>
      <point x="404" y="212" type="line"/>
      <point x="376" y="136" type="line"/>
      <point x="339" y="136" type="line"/>
      <point x="339" y="13" type="line"/>
      <point x="249" y="-17" type="line"/>
      <point x="249" y="136" type="line"/>
      <point x="-3" y="136" type="line"/>
      <point x="79" y="230"/>
      <point x="132" y="335"/>
      <point x="162" y="459" type="curve"/>
      <point x="225" y="430" type="line"/>
      <point x="209" y="362"/>
      <point x="154" y="264"/>
      <point x="104" y="212" type="curve"/>
      <point x="249" y="212" type="line"/>
      <point x="249" y="492" type="line"/>
      <point x="339" y="521" type="line"/>
      <point x="339" y="212" type="line"/>
    </contour>
  </outline>
</glyph>
<glyph name="eight" format="1">
  <advance width="434"/>
  <unicode hex="0038"/>
  <outline>
    <contour>
      <point x="410" y="40"/>
      <point x="337" y="-23"/>
      <point x="211" y="-23" type="curve" smooth="yes"/>
      <point x="112" y="-23"/>
      <point x="24" y="32"/>
      <point x="24" y="126" type="curve" smooth="yes"/>
      <point x="24" y="191"/>
      <point x="81" y="242"/>
      <point x="139" y="271" type="curve"/>
      <point x="97" y="298"/>
      <point x="63" y="339"/>
      <point x="63" y="389" type="curve" smooth="yes"/>
      <point x="63" y="482"/>
      <point x="151" y="524"/>
      <point x="237" y="524" type="curve" smooth="yes"/>
      <point x="320" y="524"/>
      <point x="376" y="488"/>
      <point x="376" y="417" type="curve" smooth="yes"/>
      <point x="376" y="355"/>
      <point x="314" y="314"/>
      <point x="265" y="290" type="curve"/>
      <point x="326" y="256" type="line" smooth="yes"/>
      <point x="372" y="230"/>
      <point x="410" y="196"/>
      <point x="410" y="135" type="curve" smooth="yes"/>
    </contour>
    <contour>
      <point x="289" y="454"/>
      <point x="262" y="491"/>
      <point x="217" y="491" type="curve" smooth="yes"/>
      <point x="177" y="491"/>
      <point x="144" y="465"/>
      <point x="144" y="421" type="curve" smooth="yes"/>
      <point x="144" y="372"/>
      <point x="178" y="334"/>
      <point x="222" y="312" type="curve"/>
      <point x="255" y="330"/>
      <point x="289" y="363"/>
      <point x="289" y="408" type="curve" smooth="yes"/>
    </contour>
    <contour>
      <point x="182" y="245" type="line"/>
      <point x="150" y="220"/>
      <point x="128" y="180"/>
      <point x="128" y="137" type="curve" smooth="yes"/>
      <point x="128" y="66"/>
      <point x="173" y="19"/>
      <point x="234" y="19" type="curve" smooth="yes"/>
      <point x="296" y="19"/>
      <point x="329" y="59"/>
      <point x="329" y="105" type="curve" smooth="yes"/>
      <point x="329" y="140"/>
      <point x="312" y="174"/>
      <point x="261" y="203" type="curve" smooth="yes"/>
    </contour>
  </outline>
</glyph>
<glyph name="colon" format="1">
  <advance width="160"/>
  <unicode hex="003A"/>
  <outline>
    <contour>
      <point x="129" y="12"/>
      <point x="107" y="-10"/>
      <point x="80" y="-10" type="curve" smooth="yes"/>
      <point x="53" y="-10"/>
      <point x="31" y="12"/>
      <point x="31" y="39" type="curve" smooth="yes"/>
      <point x="31" y="65"/>
      <point x="53" y="88"/>
      <point x="80" y="88" type="curve" smooth="yes"/>
      <point x="107" y="88"/>
      <point x="129" y="65"/>
      <point x="129" y="39" type="curve" smooth="yes"/>
    </contour>
    <contour>
      <point x="129" y="214"/>
      <point x="107" y="192"/>
      <point x="80" y="192" type="curve" smooth="yes"/>
      <point x="53" y="192"/>
      <point x="31" y="214"/>
      <point x="31" y="241" type="curve" smooth="yes"/>
      <point x="31" y="268"/>
      <point x="53" y="291"/>
      <point x="80" y="291" type="curve" smooth="yes"/>
      <point x="107" y="291"/>
      <point x="129" y="268"/>
      <point x="129" y="241" type="curve" smooth="yes"/>
    </contour>
  </outline>
</glyph>
<glyph name="less" format="1">
  <advance width="271"/>
  <unicode hex="003C"/>
  <outline>
    <contour>
      <point x="226" y="139" type="line"/>
      <point x="214" y="124" type="line"/>
      <point x="39" y="254" type="line"/>
      <point x="214" y="395" type="line"/>
      <point x="226" y="384" type="line"/>
      <point x="130" y="254" type="line"/>
    </contour>
  </outline>
</glyph>
<glyph name="greater" format="1">
  <advance width="271"/>
  <unicode hex="003E"/>
  <outline>
    <contour>
      <point x="232" y="254" type="line"/>
      <point x="58" y="124" type="line"/>
      <point x="45" y="139" type="line"/>
      <point x="141" y="254" type="line"/>
      <point x="45" y="384" type="line"/>
      <point x="58" y="395" type="line"/>
    </contour>
  </outline>
</glyph>
<glyph name="A" format="1">
  <advance width="498"/>
  <unicode hex="0041"/>
  <outline>
    <contour>
      <point x="188" y="512"/>
      <point x="20" y="351"/>
      <point x="20" y="162" type="curve" smooth="yes"/>
      <point x="20" y="55"/>
      <point x="76" y="-7"/>
      <point x="163" y="-7" type="curve" smooth="yes"/>
      <point x="244" y="-7"/>
      <point x="301" y="59"/>
      <point x="329" y="190" type="curve"/>
      <point x="335" y="190" type="line"/>
      <point x="335" y="92" type="line" smooth="yes"/>
      <point x="335" y="27"/>
      <point x="365" y="-5"/>
      <point x="415" y="-5" type="curve" smooth="yes"/>
      <point x="458" y="-5"/>
      <point x="489" y="15"/>
      <point x="509" y="48" type="curve"/>
      <point x="494" y="63" type="line"/>
      <point x="483" y="48"/>
      <point x="467" y="39"/>
      <point x="452" y="39" type="curve" smooth="yes"/>
      <point x="436" y="39"/>
      <point x="426" y="52"/>
      <point x="426" y="74" type="curve" smooth="yes"/>
      <point x="426" y="461" type="line"/>
      <point x="335" y="430" type="line"/>
      <point x="335" y="230"/>
      <point x="267" y="40"/>
      <point x="196" y="40" type="curve" smooth="yes"/>
      <point x="146" y="40"/>
      <point x="115" y="91"/>
      <point x="115" y="182" type="curve" smooth="yes"/>
      <point x="115" y="337"/>
      <point x="234" y="471"/>
      <point x="392" y="492" type="curve"/>
      <point x="392" y="520" type="line"/>
    </contour>
    <contour>
      <point x="488" y="4" type="move" name="ogonek"/>
    </contour>
    <contour>
      <point x="286" y="538" type="move" name="top"/>
    </contour>
  </outline>
</glyph>
<glyph name="C" format="1">
  <advance width="448"/>
  <unicode hex="0043"/>
  <outline>
    <contour>
      <point x="160" y="530"/>
      <point x="25" y="390"/>
      <point x="25" y="209" type="curve" smooth="yes"/>
      <point x="25" y="83"/>
      <point x="100" y="-7"/>
      <point x="222" y="-7" type="curve" smooth="yes"/>
      <point x="300" y="-7"/>
      <point x="370" y="40"/>
      <point x="412" y="95" type="curve"/>
      <point x="393" y="114" type="line"/>
      <point x="354" y="75"/>
      <point x="310" y="53"/>
      <point x="268" y="53" type="curve" smooth="yes"/>
      <point x="180" y="53"/>
      <point x="119" y="138"/>
      <point x="119" y="260" type="curve" smooth="yes"/>
      <point x="119" y="381"/>
      <point x="187" y="486"/>
      <point x="265" y="486" type="curve" smooth="yes"/>
      <point x="314" y="486"/>
      <point x="347" y="449"/>
      <point x="347" y="393" type="curve" smooth="yes"/>
      <point x="347" y="348"/>
      <point x="318" y="303"/>
      <point x="277" y="284" type="curve"/>
      <point x="288" y="265" type="line"/>
      <point x="368" y="288"/>
      <point x="433" y="364"/>
      <point x="433" y="435" type="curve" smooth="yes"/>
      <point x="433" y="492"/>
      <point x="390" y="530"/>
      <point x="325" y="530" type="curve" smooth="yes"/>
    </contour>
    <contour>
      <point x="268" y="538" type="move" name="top"/>
    </contour>
    <contour>
      <point x="224" y="0" type="move" name="bottom"/>
    </contour>
  </outline>
</glyph>
<glyph name="D" format="1">
  <advance width="493"/>
  <unicode hex="0044"/>
  <outline>
    <contour>
      <point x="179" y="528"/>
      <point x="75" y="476"/>
      <point x="17" y="419" type="curve"/>
      <point x="35" y="398" type="line"/>
      <point x="90" y="444"/>
      <point x="168" y="481"/>
      <point x="237" y="481" type="curve" smooth="yes"/>
      <point x="324" y="481"/>
      <point x="373" y="419"/>
      <point x="373" y="323" type="curve" smooth="yes"/>
      <point x="373" y="185"/>
      <point x="281" y="76"/>
      <point x="154" y="37" type="curve"/>
      <point x="154" y="427" type="line"/>
      <point x="63" y="398" type="line"/>
      <point x="63" y="-9" type="line"/>
      <point x="248" y="1"/>
      <point x="469" y="133"/>
      <point x="469" y="335" type="curve" smooth="yes"/>
      <point x="469" y="451"/>
      <point x="406" y="528"/>
      <point x="278" y="528" type="curve" smooth="yes"/>
    </contour>
    <contour>
      <point x="246" y="269" type="move" name="center"/>
    </contour>
    <contour>
      <point x="246" y="538" type="move" name="top"/>
    </contour>
  </outline>
</glyph>
<glyph name="I" format="1">
  <advance width="212"/>
  <unicode hex="0049"/>
  <outline>
    <contour>
      <point x="58" y="504" type="line"/>
      <point x="58" y="-13" type="line"/>
      <point x="149" y="16" type="line"/>
      <point x="149" y="533" type="line"/>
    </contour>
    <contour>
      <point x="184" y="18" type="move" name="ogonek"/>
    </contour>
    <contour>
      <point x="104" y="538" type="move" name="top"/>
    </contour>
  </outline>
</glyph>
<glyph name="J" format="1">
  <advance width="274"/>
  <unicode hex="004A"/>
  <outline>
    <contour>
      <point x="164" y="512" type="line" smooth="yes"/>
      <point x="87" y="512"/>
      <point x="36" y="467"/>
      <point x="-4" y="415" type="curve"/>
      <point x="11" y="399" type="line"/>
      <point x="36" y="428"/>
      <point x="64" y="444"/>
      <point x="100" y="444" type="curve" smooth="yes"/>
      <point x="179" y="443" type="line"/>
      <point x="134" y="413"/>
      <point x="97" y="371"/>
      <point x="97" y="319" type="curve" smooth="yes"/>
      <point x="97" y="6" type="line" smooth="yes"/>
      <point x="97" y="-39"/>
      <point x="79" y="-71"/>
      <point x="33" y="-71" type="curve" smooth="yes"/>
      <point x="-6" y="-71"/>
      <point x="-36" y="-36"/>
      <point x="-52" y="-8" type="curve"/>
      <point x="-122" y="-68" type="line"/>
      <point x="-88" y="-93"/>
      <point x="-48" y="-107"/>
      <point x="3" y="-107" type="curve" smooth="yes"/>
      <point x="114" y="-107"/>
      <point x="188" y="-24"/>
      <point x="188" y="73" type="curve"/>
      <point x="188" y="363" type="line"/>
      <point x="188" y="401"/>
      <point x="202" y="426"/>
      <point x="238" y="471" type="curve"/>
      <point x="275" y="512" type="line"/>
    </contour>
    <contour>
      <point x="162" y="538" type="move" name="top"/>
    </contour>
  </outline>
</glyph>
<glyph name="L" format="1">
  <advance width="410"/>
  <unicode hex="004C"/>
  <outline>
    <contour>
      <point x="149" y="530"/>
      <point x="57" y="426"/>
      <point x="57" y="291" type="curve" smooth="yes"/>
      <point x="57" y="95" type="line" smooth="yes"/>
      <point x="57" y="53"/>
      <point x="46" y="32"/>
      <point x="24" y="14" type="curve"/>
      <point x="46" y="-7" type="line"/>
      <point x="72" y="12"/>
      <point x="102" y="21"/>
      <point x="134" y="21" type="curve" smooth="yes"/>
      <point x="214" y="21"/>
      <point x="264" y="-1"/>
      <point x="347" y="-7" type="curve"/>
      <point x="405" y="120" type="line"/>
      <point x="388" y="132" type="line"/>
      <point x="368" y="105"/>
      <point x="342" y="83"/>
      <point x="305" y="83" type="curve" smooth="yes"/>
      <point x="264" y="83"/>
      <point x="240" y="94"/>
      <point x="195" y="94" type="curve" smooth="yes"/>
      <point x="167" y="94"/>
      <point x="145" y="85"/>
      <point x="126" y="74" type="curve"/>
      <point x="122" y="77" type="line"/>
      <point x="138" y="96"/>
      <point x="147" y="113"/>
      <point x="147" y="143" type="curve" smooth="yes"/>
      <point x="147" y="362" type="line" smooth="yes"/>
      <point x="147" y="420"/>
      <point x="178" y="487"/>
      <point x="247" y="487" type="curve"/>
      <point x="279" y="487"/>
      <point x="296" y="468"/>
      <point x="296" y="438" type="curve" smooth="yes"/>
      <point x="296" y="395"/>
      <point x="266" y="361"/>
      <point x="214" y="337" type="curve"/>
      <point x="222" y="317" type="line"/>
      <point x="311" y="336"/>
      <point x="386" y="391"/>
      <point x="386" y="456" type="curve" smooth="yes"/>
      <point x="386" y="507"/>
      <point x="342" y="530"/>
      <point x="290" y="530" type="curve" smooth="yes"/>
    </contour>
    <contour>
      <point x="241" y="538" type="move" name="top"/>
    </contour>
    <contour>
      <point x="215" y="0" type="move" name="bottom"/>
    </contour>
    <contour>
      <point x="403" y="538" type="move" name="topright"/>
    </contour>
  </outline>
</glyph>
<glyph name="N" format="1">
  <advance width="459"/>
  <unicode hex="004E"/>
  <outline>
    <contour>
      <point x="58" y="-12" type="line"/>
      <point x="149" y="18" type="line"/>
      <point x="149" y="280" type="line" smooth="yes"/>
      <point x="149" y="335"/>
      <point x="180" y="489"/>
      <point x="255" y="489" type="curve" smooth="yes"/>
      <point x="296" y="489"/>
      <point x="297" y="436"/>
      <point x="297" y="402" type="curve" smooth="yes"/>
      <point x="297" y="92" type="line"/>
      <point x="297" y="25"/>
      <point x="328" y="-5"/>
      <point x="378" y="-5" type="curve" smooth="yes"/>
      <point x="426" y="-5"/>
      <point x="454" y="20"/>
      <point x="471" y="48" type="curve"/>
      <point x="456" y="63" type="line"/>
      <point x="446" y="48"/>
      <point x="430" y="39"/>
      <point x="414" y="39" type="curve" smooth="yes"/>
      <point x="396" y="39"/>
      <point x="387" y="55"/>
      <point x="387" y="74" type="curve"/>
      <point x="387" y="425" type="line" smooth="yes"/>
      <point x="387" y="481"/>
      <point x="359" y="530"/>
      <point x="293" y="530" type="curve" smooth="yes"/>
      <point x="217" y="530"/>
      <point x="173" y="479"/>
      <point x="149" y="407" type="curve"/>
      <point x="149" y="534" type="line"/>
      <point x="58" y="504" type="line"/>
    </contour>
    <contour>
      <point x="234" y="538" type="move" name="top"/>
    </contour>
    <contour>
      <point x="229" y="0" type="move" name="bottom"/>
    </contour>
  </outline>
</glyph>
<glyph name="U" format="1">
  <advance width="462"/>
  <unicode hex="0055"/>
  <outline>
    <contour>
      <point x="293" y="499" type="line"/>
      <point x="293" y="245" type="line" smooth="yes"/>
      <point x="293" y="190"/>
      <point x="263" y="34"/>
      <point x="188" y="34" type="curve" smooth="yes"/>
      <point x="144" y="34"/>
      <point x="146" y="86"/>
      <point x="146" y="121" type="curve" smooth="yes"/>
      <point x="146" y="528" type="line"/>
      <point x="55" y="498" type="line"/>
      <point x="55" y="98" type="line" smooth="yes"/>
      <point x="55" y="42"/>
      <point x="84" y="-8"/>
      <point x="149" y="-8" type="curve" smooth="yes"/>
      <point x="225" y="-8"/>
      <point x="270" y="46"/>
      <point x="293" y="118" type="curve"/>
      <point x="293" y="88" type="line"/>
      <point x="293" y="26"/>
      <point x="326" y="-5"/>
      <point x="374" y="-5" type="curve" smooth="yes"/>
      <point x="422" y="-5"/>
      <point x="450" y="20"/>
      <point x="468" y="48" type="curve"/>
      <point x="452" y="63" type="line"/>
      <point x="442" y="48"/>
      <point x="426" y="39"/>
      <point x="410" y="39" type="curve" smooth="yes"/>
      <point x="392" y="39"/>
      <point x="384" y="55"/>
      <point x="384" y="74" type="curve"/>
      <point x="384" y="528" type="line"/>
    </contour>
    <contour>
      <point x="463" y="4" type="move" name="ogonek"/>
    </contour>
    <contour>
      <point x="234" y="538" type="move" name="top"/>
    </contour>
  </outline>
</glyph>
<glyph name="V" format="1">
  <advance width="413"/>
  <unicode hex="0056"/>
  <outline>
    <contour>
      <point x="225" y="94" type="line"/>
      <point x="315" y="286" type="line"/>
      <point x="328" y="315"/>
      <point x="343" y="348"/>
      <point x="343" y="381" type="curve" smooth="yes"/>
      <point x="343" y="431"/>
      <point x="315" y="470"/>
      <point x="275" y="501" type="curve"/>
      <point x="338" y="570" type="line"/>
      <point x="381" y="541"/>
      <point x="408" y="489"/>
      <point x="408" y="448" type="curve" smooth="yes"/>
      <point x="408" y="408"/>
      <point x="391" y="365"/>
      <point x="374" y="326" type="curve"/>
      <point x="210" y="-30" type="line"/>
      <point x="-6" y="482" type="line"/>
      <point x="79" y="519" type="line"/>
      <point x="253" y="94" type="line"/>
    </contour>
  </outline>
</glyph>
<glyph name="Z" format="1">
  <advance width="426"/>
  <unicode hex="005A"/>
  <outline>
    <contour>
      <point x="369" y="514"/>
      <point x="343" y="512"/>
      <point x="303" y="512" type="curve" smooth="yes"/>
      <point x="86" y="512" type="line"/>
      <point x="19" y="389" type="line"/>
      <point x="38" y="375" type="line"/>
      <point x="78" y="424"/>
      <point x="99" y="429"/>
      <point x="197" y="429" type="curve" smooth="yes"/>
      <point x="296" y="429" type="line"/>
      <point x="9" y="14" type="line"/>
      <point x="31" y="-7" type="line"/>
      <point x="59" y="12"/>
      <point x="93" y="21"/>
      <point x="127" y="21" type="curve" smooth="yes"/>
      <point x="213" y="21"/>
      <point x="266" y="-1"/>
      <point x="357" y="-7" type="curve"/>
      <point x="416" y="120" type="line"/>
      <point x="398" y="132" type="line"/>
      <point x="377" y="105"/>
      <point x="350" y="83"/>
      <point x="312" y="83" type="curve" smooth="yes"/>
      <point x="267" y="83"/>
      <point x="240" y="94"/>
      <point x="188" y="94" type="curve" smooth="yes"/>
      <point x="158" y="94"/>
      <point x="132" y="85"/>
      <point x="113" y="74" type="curve"/>
      <point x="110" y="77" type="line"/>
      <point x="413" y="513" type="line"/>
      <point x="393" y="534" type="line"/>
    </contour>
    <contour>
      <point x="245" y="538" type="move" name="top"/>
    </contour>
  </outline>
</glyph>
<glyph name="bracketleft" format="1">
  <advance width="213"/>
  <unicode hex="005B"/>
  <outline>
    <contour>
      <point x="205" y="-102" type="line"/>
      <point x="45" y="-102" type="line"/>
      <point x="45" y="542" type="line"/>
      <point x="205" y="542" type="line"/>
      <point x="205" y="514" type="line"/>
      <point x="136" y="514" type="line"/>
      <point x="136" y="-73" type="line"/>
      <point x="205" y="-73" type="line"/>
    </contour>
  </outline>
</glyph>
<glyph name="grave" format="1">
  <advance width="148"/>
  <unicode hex="0060"/>
  <outline>
    <contour>
      <point x="-4" y="380" type="line"/>
      <point x="43" y="449" type="line"/>
      <point x="143" y="345" type="line"/>
      <point x="130" y="323" type="line"/>
    </contour>
    <contour>
      <point x="74" y="300" type="move" name="_top"/>
    </contour>
  </outline>
</glyph>
<glyph name="b" format="1">
  <advance width="319"/>
  <unicode hex="0062"/>
  <outline>
    <contour>
      <point x="299" y="208"/>
      <point x="245" y="263"/>
      <point x="191" y="280" type="curve"/>
      <point x="120" y="232" type="line"/>
      <point x="181" y="223"/>
      <point x="222" y="167"/>
      <point x="222" y="112" type="curve" smooth="yes"/>
      <point x="222" y="71"/>
      <point x="203" y="26"/>
      <point x="166" y="26" type="curve" smooth="yes"/>
      <point x="137" y="26"/>
      <point x="123" y="61"/>
      <point x="123" y="93" type="curve" smooth="yes"/>
      <point x="123" y="516" type="line"/>
      <point x="40" y="490" type="line"/>
      <point x="40" y="105" type="line" smooth="yes"/>
      <point x="40" y="41"/>
      <point x="78" y="-7"/>
      <point x="149" y="-7" type="curve" smooth="yes"/>
      <point x="232" y="-7"/>
      <point x="299" y="73"/>
      <point x="299" y="140" type="curve" smooth="yes"/>
    </contour>
  </outline>
</glyph>
<glyph name="c" format="1">
  <advance width="289"/>
  <unicode hex="0063"/>
  <outline>
    <contour>
      <point x="82" y="282"/>
      <point x="17" y="211"/>
      <point x="17" y="126" type="curve" smooth="yes"/>
      <point x="17" y="45"/>
      <point x="70" y="-7"/>
      <point x="143" y="-7" type="curve" smooth="yes"/>
      <point x="206" y="-7"/>
      <point x="247" y="33"/>
      <point x="280" y="78" type="curve"/>
      <point x="263" y="92" type="line"/>
      <point x="240" y="60"/>
      <point x="208" y="34"/>
      <point x="171" y="34" type="curve"/>
      <point x="125" y="34"/>
      <point x="90" y="76"/>
      <point x="90" y="149" type="curve" smooth="yes"/>
      <point x="90" y="199"/>
      <point x="113" y="245"/>
      <point x="150" y="245" type="curve" smooth="yes"/>
      <point x="170" y="245"/>
      <point x="189" y="225"/>
      <point x="197" y="188" type="curve"/>
      <point x="267" y="226" type="line"/>
      <point x="248" y="266"/>
      <point x="211" y="282"/>
      <point x="176" y="282" type="curve" smooth="yes"/>
    </contour>
    <contour>
      <point x="152" y="300" type="move" name="top"/>
    </contour>
    <contour>
      <point x="145" y="0" type="move" name="bottom"/>
    </contour>
  </outline>
</glyph>
<glyph name="d" format="1">
  <advance width="339"/>
  <unicode hex="0064"/>
  <outline>
    <contour>
      <point x="198" y="490" type="line"/>
      <point x="198" y="275" type="line"/>
      <point x="189" y="280"/>
      <point x="175" y="282"/>
      <point x="164" y="282" type="curve" smooth="yes"/>
      <point x="71" y="282"/>
      <point x="21" y="190"/>
      <point x="21" y="108" type="curve" smooth="yes"/>
      <point x="21" y="46"/>
      <point x="55" y="-7"/>
      <point x="115" y="-7" type="curve" smooth="yes"/>
      <point x="158" y="-7"/>
      <point x="184" y="25"/>
      <point x="198" y="59" type="curve"/>
      <point x="201" y="59" type="line"/>
      <point x="201" y="22"/>
      <point x="216" y="-5"/>
      <point x="261" y="-5" type="curve" smooth="yes"/>
      <point x="296" y="-5"/>
      <point x="321" y="20"/>
      <point x="334" y="44" type="curve"/>
      <point x="321" y="56" type="line"/>
      <point x="316" y="48"/>
      <point x="305" y="39"/>
      <point x="295" y="39" type="curve" smooth="yes"/>
      <point x="286" y="39"/>
      <point x="282" y="47"/>
      <point x="282" y="58" type="curve" smooth="yes"/>
      <point x="282" y="516" type="line"/>
    </contour>
    <contour>
      <point x="178" y="244"/>
      <point x="190" y="238"/>
      <point x="199" y="229" type="curve"/>
      <point x="199" y="151" type="line"/>
      <point x="199" y="112"/>
      <point x="192" y="35"/>
      <point x="147" y="35" type="curve" smooth="yes"/>
      <point x="110" y="35"/>
      <point x="100" y="92"/>
      <point x="100" y="133" type="curve" smooth="yes"/>
      <point x="100" y="184"/>
      <point x="121" y="244"/>
      <point x="166" y="244" type="curve" smooth="yes"/>
    </contour>
    <contour>
      <point x="169" y="150" type="move" name="center"/>
    </contour>
    <contour>
      <point x="343" y="300" type="move" name="topright"/>
    </contour>
  </outline>
</glyph>
<glyph name="e" format="1">
  <advance width="302"/>
  <unicode hex="0065"/>
  <outline>
    <contour>
      <point x="100" y="284"/>
      <point x="18" y="207"/>
      <point x="18" y="118" type="curve" smooth="yes"/>
      <point x="18" y="44"/>
      <point x="72" y="-7"/>
      <point x="147" y="-7" type="curve" smooth="yes"/>
      <point x="213" y="-7"/>
      <point x="255" y="31"/>
      <point x="288" y="73" type="curve"/>
      <point x="274" y="88" type="line"/>
      <point x="249" y="56"/>
      <point x="215" y="33"/>
      <point x="183" y="33" type="curve" smooth="yes"/>
      <point x="160" y="33"/>
      <point x="134" y="42"/>
      <point x="120" y="69" type="curve"/>
      <point x="167" y="91"/>
      <point x="272" y="167"/>
      <point x="272" y="220" type="curve" smooth="yes"/>
      <point x="272" y="264"/>
      <point x="234" y="284"/>
      <point x="191" y="284" type="curve" smooth="yes"/>
    </contour>
    <contour>
      <point x="176" y="247"/>
      <point x="187" y="231"/>
      <point x="187" y="206" type="curve" smooth="yes"/>
      <point x="187" y="166"/>
      <point x="140" y="112"/>
      <point x="107" y="89" type="curve"/>
      <point x="98" y="105"/>
      <point x="94" y="124"/>
      <point x="94" y="144" type="curve" smooth="yes"/>
      <point x="94" y="194"/>
      <point x="120" y="247"/>
      <point x="157" y="247" type="curve" smooth="yes"/>
    </contour>
    <contour>
      <point x="247" y="4" type="move" name="ogonek"/>
    </contour>
    <contour>
      <point x="151" y="0" type="move" name="bottom"/>
    </contour>
    <contour>
      <point x="160" y="300" type="move" name="top"/>
    </contour>
  </outline>
</glyph>
<glyph name="f" format="1">
  <advance width="205"/>
  <unicode hex="0066"/>
  <outline>
    <contour>
      <point x="85" y="521"/>
      <point x="50" y="434"/>
      <point x="50" y="355" type="curve" smooth="yes"/>
      <point x="50" y="279" type="line"/>
      <point x="27" y="279" type="line"/>
      <point x="11" y="242" type="line"/>
      <point x="50" y="242" type="line"/>
      <point x="50" y="-103" type="line"/>
      <point x="134" y="-72" type="line"/>
      <point x="134" y="242" type="line"/>
      <point x="202" y="242" type="line"/>
      <point x="219" y="279" type="line"/>
      <point x="134" y="279" type="line"/>
      <point x="134" y="429" type="line" smooth="yes"/>
      <point x="134" y="454"/>
      <point x="140" y="489"/>
      <point x="171" y="489" type="curve" smooth="yes"/>
      <point x="192" y="489"/>
      <point x="207" y="466"/>
      <point x="214" y="432" type="curve"/>
      <point x="282" y="468" type="line"/>
      <point x="262" y="502"/>
      <point x="224" y="521"/>
      <point x="189" y="521" type="curve" smooth="yes"/>
    </contour>
  </outline>
</glyph>
<glyph name="h" format="1">
  <advance width="336"/>
  <unicode hex="0068"/>
  <outline>
    <contour>
      <point x="43" y="490" type="line"/>
      <point x="43" y="-7" type="line"/>
      <point x="127" y="9" type="line"/>
      <point x="127" y="94"/>
      <point x="150" y="219"/>
      <point x="187" y="219" type="curve" smooth="yes"/>
      <point x="195" y="219"/>
      <point x="197" y="207"/>
      <point x="197" y="200" type="curve" smooth="yes"/>
      <point x="197" y="55" type="line" smooth="yes"/>
      <point x="197" y="22"/>
      <point x="213" y="-5"/>
      <point x="259" y="-5" type="curve" smooth="yes"/>
      <point x="295" y="-5"/>
      <point x="320" y="20"/>
      <point x="332" y="43" type="curve"/>
      <point x="321" y="56" type="line"/>
      <point x="315" y="47"/>
      <point x="305" y="38"/>
      <point x="294" y="38" type="curve" smooth="yes"/>
      <point x="285" y="38"/>
      <point x="280" y="46"/>
      <point x="280" y="57" type="curve" smooth="yes"/>
      <point x="280" y="211" type="line" smooth="yes"/>
      <point x="280" y="243"/>
      <point x="276" y="284"/>
      <point x="232" y="284" type="curve" smooth="yes"/>
      <point x="179" y="284"/>
      <point x="144" y="221"/>
      <point x="129" y="158" type="curve"/>
      <point x="126" y="158" type="line"/>
      <point x="126" y="516" type="line"/>
    </contour>
    <contour>
      <point x="168" y="150" type="move" name="center"/>
    </contour>
    <contour>
      <point x="90" y="504" type="move" name="top"/>
    </contour>
  </outline>
</glyph>
<glyph name="l" format="1">
  <advance width="184"/>
  <unicode hex="006C"/>
  <outline>
    <contour>
      <point x="43" y="490" type="line"/>
      <point x="43" y="55" type="line" smooth="yes"/>
      <point x="43" y="22"/>
      <point x="59" y="-5"/>
      <point x="105" y="-5" type="curve" smooth="yes"/>
      <point x="141" y="-5"/>
      <point x="167" y="20"/>
      <point x="179" y="43" type="curve"/>
      <point x="167" y="56" type="line"/>
      <point x="162" y="47"/>
      <point x="151" y="38"/>
      <point x="140" y="38" type="curve" smooth="yes"/>
      <point x="131" y="38"/>
      <point x="126" y="46"/>
      <point x="126" y="57" type="curve" smooth="yes"/>
      <point x="126" y="517" type="line"/>
    </contour>
    <contour>
      <point x="92" y="504" type="move" name="top"/>
    </contour>
    <contour>
      <point x="92" y="0" type="move" name="bottom"/>
    </contour>
    <contour>
      <point x="176" y="300" type="move" name="topright"/>
    </contour>
  </outline>
</glyph>
<glyph name="m" format="1">
  <advance width="480"/>
  <unicode hex="006D"/>
  <outline>
    <contour>
      <point x="336" y="284"/>
      <point x="302" y="246"/>
      <point x="284" y="170" type="curve"/>
      <point x="281" y="170" type="line"/>
      <point x="281" y="224" type="line" smooth="yes"/>
      <point x="281" y="258"/>
      <point x="274" y="284"/>
      <point x="235" y="284" type="curve" smooth="yes"/>
      <point x="198" y="284"/>
      <point x="163" y="246"/>
      <point x="145" y="170" type="curve"/>
      <point x="142" y="170" type="line"/>
      <point x="142" y="208" type="line" smooth="yes"/>
      <point x="142" y="248"/>
      <point x="128" y="284"/>
      <point x="82" y="284" type="curve"/>
      <point x="62" y="284"/>
      <point x="27" y="272"/>
      <point x="9" y="237" type="curve"/>
      <point x="21" y="224" type="line"/>
      <point x="28" y="235"/>
      <point x="39" y="241"/>
      <point x="47" y="241" type="curve" smooth="yes"/>
      <point x="55" y="241"/>
      <point x="61" y="236"/>
      <point x="61" y="222" type="curve" smooth="yes"/>
      <point x="61" y="-7" type="line"/>
      <point x="144" y="9" type="line"/>
      <point x="144" y="138"/>
      <point x="171" y="219"/>
      <point x="191" y="219" type="curve" smooth="yes"/>
      <point x="197" y="219"/>
      <point x="199" y="210"/>
      <point x="199" y="203" type="curve" smooth="yes"/>
      <point x="199" y="-7" type="line"/>
      <point x="282" y="9" type="line"/>
      <point x="282" y="138"/>
      <point x="309" y="219"/>
      <point x="329" y="219" type="curve" smooth="yes"/>
      <point x="336" y="219"/>
      <point x="338" y="210"/>
      <point x="338" y="203" type="curve" smooth="yes"/>
      <point x="338" y="55" type="line" smooth="yes"/>
      <point x="338" y="26"/>
      <point x="351" y="-5"/>
      <point x="400" y="-5" type="curve"/>
      <point x="420" y="-5"/>
      <point x="455" y="7"/>
      <point x="473" y="43" type="curve"/>
      <point x="461" y="56" type="line"/>
      <point x="454" y="45"/>
      <point x="443" y="38"/>
      <point x="435" y="38" type="curve" smooth="yes"/>
      <point x="427" y="38"/>
      <point x="421" y="45"/>
      <point x="421" y="57" type="curve" smooth="yes"/>
      <point x="421" y="224" type="line" smooth="yes"/>
      <point x="421" y="258"/>
      <point x="412" y="284"/>
      <point x="374" y="284" type="curve" smooth="yes"/>
    </contour>
  </outline>
</glyph>
<glyph name="n" format="1">
  <advance width="353"/>
  <unicode hex="006E"/>
  <outline>
    <contour>
      <point x="196" y="284"/>
      <point x="155" y="213"/>
      <point x="142" y="142" type="curve"/>
      <point x="139" y="142" type="line"/>
      <point x="139" y="209" type="line" smooth="yes"/>
      <point x="139" y="254"/>
      <point x="122" y="284"/>
      <point x="79" y="284" type="curve" smooth="yes"/>
      <point x="43" y="284"/>
      <point x="18" y="260"/>
      <point x="6" y="237" type="curve"/>
      <point x="18" y="224" type="line"/>
      <point x="23" y="232"/>
      <point x="34" y="241"/>
      <point x="45" y="241" type="curve" smooth="yes"/>
      <point x="53" y="241"/>
      <point x="58" y="234"/>
      <point x="58" y="222" type="curve" smooth="yes"/>
      <point x="58" y="-7" type="line"/>
      <point x="141" y="9" type="line"/>
      <point x="141" y="81"/>
      <point x="174" y="219"/>
      <point x="205" y="219" type="curve" smooth="yes"/>
      <point x="213" y="219"/>
      <point x="214" y="206"/>
      <point x="214" y="200" type="curve" smooth="yes"/>
      <point x="214" y="55" type="line" smooth="yes"/>
      <point x="214" y="22"/>
      <point x="231" y="-5"/>
      <point x="275" y="-5" type="curve" smooth="yes"/>
      <point x="312" y="-5"/>
      <point x="337" y="19"/>
      <point x="349" y="43" type="curve"/>
      <point x="337" y="56" type="line"/>
      <point x="332" y="47"/>
      <point x="321" y="38"/>
      <point x="311" y="38" type="curve" smooth="yes"/>
      <point x="303" y="38"/>
      <point x="297" y="46"/>
      <point x="297" y="57" type="curve" smooth="yes"/>
      <point x="297" y="207" type="line" smooth="yes"/>
      <point x="297" y="242"/>
      <point x="292" y="284"/>
      <point x="249" y="284" type="curve" smooth="yes"/>
    </contour>
    <contour>
      <point x="184" y="300" type="move" name="top"/>
    </contour>
    <contour>
      <point x="177" y="0" type="move" name="bottom"/>
    </contour>
    <contour>
      <point x="82" y="300" type="move" name="topleft"/>
    </contour>
  </outline>
</glyph>
<glyph name="t" format="1">
  <advance width="192"/>
  <unicode hex="0074"/>
  <outline>
    <contour>
      <point x="42" y="404" type="line"/>
      <point x="42" y="279" type="line"/>
      <point x="22" y="279" type="line"/>
      <point x="5" y="242" type="line"/>
      <point x="42" y="242" type="line"/>
      <point x="42" y="55" type="line" smooth="yes"/>
      <point x="42" y="26"/>
      <point x="56" y="-5"/>
      <point x="106" y="-5" type="curve"/>
      <point x="124" y="-5"/>
      <point x="162" y="7"/>
      <point x="180" y="43" type="curve"/>
      <point x="169" y="56" type="line"/>
      <point x="160" y="45"/>
      <point x="149" y="38"/>
      <point x="140" y="38" type="curve" smooth="yes"/>
      <point x="132" y="38"/>
      <point x="127" y="45"/>
      <point x="127" y="57" type="curve" smooth="yes"/>
      <point x="127" y="242" type="line"/>
      <point x="180" y="242" type="line"/>
      <point x="196" y="279" type="line"/>
      <point x="127" y="279" type="line"/>
      <point x="127" y="430" type="line"/>
    </contour>
    <contour>
      <point x="97" y="150" type="move" name="center"/>
    </contour>
    <contour>
      <point x="97" y="0" type="move" name="bottom"/>
    </contour>
    <contour>
      <point x="197" y="300" type="move" name="topright"/>
    </contour>
  </outline>
</glyph>
<glyph name="u" format="1">
  <advance width="349"/>
  <unicode hex="0075"/>
  <outline>
    <contour>
      <point x="208" y="264" type="line"/>
      <point x="208" y="193"/>
      <point x="181" y="67"/>
      <point x="147" y="67" type="curve" smooth="yes"/>
      <point x="142" y="67"/>
      <point x="139" y="76"/>
      <point x="140" y="87" type="curve" smooth="yes"/>
      <point x="140" y="223" type="line" smooth="yes"/>
      <point x="139" y="252"/>
      <point x="126" y="283"/>
      <point x="77" y="284" type="curve"/>
      <point x="57" y="283"/>
      <point x="22" y="271"/>
      <point x="4" y="235" type="curve"/>
      <point x="15" y="223" type="line"/>
      <point x="24" y="233"/>
      <point x="34" y="240"/>
      <point x="42" y="240" type="curve" smooth="yes"/>
      <point x="50" y="240"/>
      <point x="56" y="234"/>
      <point x="56" y="220" type="curve" smooth="yes"/>
      <point x="56" y="66" type="line" smooth="yes"/>
      <point x="56" y="26"/>
      <point x="60" y="-7"/>
      <point x="104" y="-7" type="curve" smooth="yes"/>
      <point x="159" y="-7"/>
      <point x="193" y="67"/>
      <point x="207" y="128" type="curve"/>
      <point x="211" y="128" type="line" smooth="yes"/>
      <point x="211" y="63" type="line"/>
      <point x="211" y="24"/>
      <point x="225" y="-5"/>
      <point x="271" y="-5" type="curve"/>
      <point x="290" y="-5"/>
      <point x="326" y="7"/>
      <point x="345" y="41" type="curve"/>
      <point x="333" y="54" type="line"/>
      <point x="325" y="44"/>
      <point x="314" y="37"/>
      <point x="306" y="36" type="curve" smooth="yes"/>
      <point x="298" y="37"/>
      <point x="292" y="43"/>
      <point x="293" y="55" type="curve" smooth="yes"/>
      <point x="293" y="285" type="line"/>
    </contour>
    <contour>
      <point x="350" y="4" type="move" name="ogonek"/>
    </contour>
    <contour>
      <point x="175" y="300" type="move" name="top"/>
    </contour>
  </outline>
</glyph>
<glyph name="v" format="1">
  <advance width="292"/>
  <unicode hex="0076"/>
  <outline>
    <contour>
      <point x="190" y="242" type="line"/>
      <point x="214" y="230"/>
      <point x="230" y="209"/>
      <point x="230" y="180" type="curve" smooth="yes"/>
      <point x="230" y="171"/>
      <point x="227" y="156"/>
      <point x="218" y="138" type="curve" smooth="yes"/>
      <point x="187" y="75" type="line"/>
      <point x="121" y="227" type="line"/>
      <point x="112" y="249"/>
      <point x="95" y="278"/>
      <point x="67" y="278" type="curve" smooth="yes"/>
      <point x="24" y="278"/>
      <point x="-4" y="245"/>
      <point x="-13" y="218" type="curve"/>
      <point x="0" y="209" type="line"/>
      <point x="4" y="215"/>
      <point x="11" y="222"/>
      <point x="18" y="222" type="curve" smooth="yes"/>
      <point x="29" y="222"/>
      <point x="37" y="212"/>
      <point x="41" y="202" type="curve" smooth="yes"/>
      <point x="131" y="2" type="line" smooth="yes"/>
      <point x="136" y="-8"/>
      <point x="147" y="-11"/>
      <point x="156" y="-11" type="curve" smooth="yes"/>
      <point x="166" y="-11"/>
      <point x="175" y="-8"/>
      <point x="181" y="2" type="curve"/>
      <point x="271" y="184" type="line" smooth="yes"/>
      <point x="278" y="198"/>
      <point x="283" y="218"/>
      <point x="283" y="233" type="curve" smooth="yes"/>
      <point x="283" y="262"/>
      <point x="266" y="286"/>
      <point x="233" y="301" type="curve"/>
    </contour>
  </outline>
</glyph>
<glyph name="w" format="1">
  <advance width="421"/>
  <unicode hex="0077"/>
  <outline>
    <contour>
      <point x="317" y="242" type="line"/>
      <point x="341" y="230"/>
      <point x="356" y="209"/>
      <point x="356" y="180" type="curve" smooth="yes"/>
      <point x="356" y="173"/>
      <point x="355" y="159"/>
      <point x="346" y="141" type="curve" smooth="yes"/>
      <point x="320" y="86" type="line"/>
      <point x="264" y="287" type="line"/>
      <point x="184" y="260" type="line"/>
      <point x="261" y="11" type="line" smooth="yes"/>
      <point x="266" y="-4"/>
      <point x="278" y="-7"/>
      <point x="288" y="-7" type="curve" smooth="yes"/>
      <point x="300" y="-7"/>
      <point x="310" y="-4"/>
      <point x="317" y="11" type="curve" smooth="yes"/>
      <point x="396" y="184" type="line" smooth="yes"/>
      <point x="403" y="198"/>
      <point x="407" y="218"/>
      <point x="407" y="232" type="curve" smooth="yes"/>
      <point x="407" y="261"/>
      <point x="392" y="286"/>
      <point x="360" y="302" type="curve"/>
    </contour>
    <contour>
      <point x="27" y="278"/>
      <point x="1" y="244"/>
      <point x="-11" y="218" type="curve"/>
      <point x="3" y="208" type="line"/>
      <point x="8" y="216"/>
      <point x="16" y="222"/>
      <point x="25" y="222" type="curve" smooth="yes"/>
      <point x="36" y="222"/>
      <point x="42" y="216"/>
      <point x="47" y="201" type="curve" smooth="yes"/>
      <point x="109" y="11" type="line"/>
      <point x="114" y="-4"/>
      <point x="126" y="-8"/>
      <point x="136" y="-8" type="curve" smooth="yes"/>
      <point x="148" y="-8"/>
      <point x="157" y="-5"/>
      <point x="164" y="11" type="curve" smooth="yes"/>
      <point x="241" y="202" type="line"/>
      <point x="224" y="232" type="line"/>
      <point x="168" y="86" type="line"/>
      <point x="126" y="228" type="line" smooth="yes"/>
      <point x="119" y="256"/>
      <point x="102" y="278"/>
      <point x="73" y="278" type="curve" smooth="yes"/>
    </contour>
    <contour>
      <point x="221" y="300" type="move" name="top"/>
    </contour>
  </outline>
</glyph>
<glyph name="y" format="1">
  <advance width="331"/>
  <unicode hex="0079"/>
  <outline>
    <contour>
      <point x="207" y="264" type="line"/>
      <point x="207" y="170"/>
      <point x="172" y="57"/>
      <point x="147" y="57" type="curve" smooth="yes"/>
      <point x="142" y="57"/>
      <point x="139" y="64"/>
      <point x="139" y="77" type="curve" smooth="yes"/>
      <point x="139" y="223" type="line" smooth="yes"/>
      <point x="139" y="262"/>
      <point x="116" y="284"/>
      <point x="76" y="284" type="curve"/>
      <point x="44" y="284"/>
      <point x="21" y="268"/>
      <point x="3" y="235" type="curve"/>
      <point x="15" y="223" type="line"/>
      <point x="23" y="233"/>
      <point x="34" y="240"/>
      <point x="42" y="240" type="curve" smooth="yes"/>
      <point x="50" y="240"/>
      <point x="55" y="233"/>
      <point x="55" y="220" type="curve" smooth="yes"/>
      <point x="55" y="66" type="line" smooth="yes"/>
      <point x="55" y="12"/>
      <point x="69" y="-7"/>
      <point x="104" y="-7" type="curve" smooth="yes"/>
      <point x="151" y="-7"/>
      <point x="186" y="41"/>
      <point x="208" y="136" type="curve"/>
      <point x="212" y="136" type="line"/>
      <point x="210" y="113"/>
      <point x="208" y="69"/>
      <point x="208" y="13" type="curve"/>
      <point x="208" y="-75"/>
      <point x="190" y="-117"/>
      <point x="153" y="-117" type="curve" smooth="yes"/>
      <point x="138" y="-117"/>
      <point x="118" y="-109"/>
      <point x="98" y="-91" type="curve"/>
      <point x="54" y="-146" type="line"/>
      <point x="72" y="-158"/>
      <point x="90" y="-164"/>
      <point x="111" y="-164" type="curve" smooth="yes"/>
      <point x="201" y="-164"/>
      <point x="292" y="-67"/>
      <point x="292" y="31" type="curve" smooth="yes"/>
      <point x="292" y="285" type="line"/>
    </contour>
    <contour>
      <point x="173" y="300" type="move" name="top"/>
    </contour>
  </outline>
</glyph>
<glyph name="z" format="1">
  <advance width="274"/>
  <unicode hex="007A"/>
  <outline>
    <contour>
      <point x="95" y="70" type="line"/>
      <point x="259" y="268" type="line"/>
      <point x="250" y="288" type="line"/>
      <point x="215" y="278"/>
      <point x="179" y="275"/>
      <point x="145" y="275" type="curve" smooth="yes"/>
      <point x="110" y="275"/>
      <point x="88" y="278"/>
      <point x="59" y="279" type="curve"/>
      <point x="13" y="199" type="line"/>
      <point x="13" y="199"/>
      <point x="32" y="204"/>
      <point x="53" y="204" type="curve" smooth="yes"/>
      <point x="78" y="204"/>
      <point x="94" y="201"/>
      <point x="115" y="201" type="curve" smooth="yes"/>
      <point x="134" y="201"/>
      <point x="151" y="204"/>
      <point x="165" y="208" type="curve"/>
      <point x="168" y="204" type="line"/>
      <point x="8" y="11" type="line"/>
      <point x="24" y="-7" type="line"/>
      <point x="51" y="2"/>
      <point x="77" y="7"/>
      <point x="104" y="7" type="curve" smooth="yes"/>
      <point x="132" y="7"/>
      <point x="159" y="-4"/>
      <point x="189" y="-4" type="curve" smooth="yes"/>
      <point x="199" y="-4"/>
      <point x="209" y="-3"/>
      <point x="221" y="0" type="curve"/>
      <point x="268" y="87" type="line"/>
      <point x="248" y="77"/>
      <point x="228" y="74"/>
      <point x="203" y="74" type="curve" smooth="yes"/>
      <point x="185" y="74"/>
      <point x="165" y="77"/>
      <point x="148" y="77" type="curve" smooth="yes"/>
      <point x="134" y="77"/>
      <point x="114" y="74"/>
      <point x="97" y="66" type="curve"/>
    </contour>
    <contour>
      <point x="158" y="300" type="move" name="top"/>
    </contour>
  </outline>
</glyph>
<glyph name="braceleft" format="1">
  <advance width="236"/>
  <unicode hex="007B"/>
  <outline>
    <contour>
      <point x="67" y="547"/>
      <point x="80" y="424"/>
      <point x="80" y="352" type="curve" smooth="yes"/>
      <point x="80" y="295"/>
      <point x="75" y="245"/>
      <point x="2" y="235" type="curve"/>
      <point x="2" y="208" type="line"/>
      <point x="85" y="197"/>
      <point x="80" y="131"/>
      <point x="80" y="70" type="curve" smooth="yes"/>
      <point x="80" y="2"/>
      <point x="77" y="-103"/>
      <point x="192" y="-103" type="curve" smooth="yes"/>
      <point x="204" y="-103"/>
      <point x="218" y="-102"/>
      <point x="229" y="-98" type="curve"/>
      <point x="224" y="-76" type="line"/>
      <point x="219" y="-77"/>
      <point x="213" y="-77"/>
      <point x="208" y="-77" type="curve" smooth="yes"/>
      <point x="172" y="-77"/>
      <point x="169" y="-44"/>
      <point x="169" y="-10" type="curve" smooth="yes"/>
      <point x="169" y="15"/>
      <point x="170" y="40"/>
      <point x="170" y="58" type="curve" smooth="yes"/>
      <point x="170" y="128"/>
      <point x="155" y="208"/>
      <point x="70" y="220" type="curve"/>
      <point x="70" y="224" type="line"/>
      <point x="155" y="238"/>
      <point x="170" y="314"/>
      <point x="170" y="384" type="curve" smooth="yes"/>
      <point x="170" y="404"/>
      <point x="169" y="430"/>
      <point x="169" y="455" type="curve" smooth="yes"/>
      <point x="169" y="489"/>
      <point x="174" y="521"/>
      <point x="208" y="521" type="curve" smooth="yes"/>
      <point x="213" y="521"/>
      <point x="219" y="520"/>
      <point x="224" y="518" type="curve"/>
      <point x="229" y="541" type="line"/>
      <point x="218" y="544"/>
      <point x="204" y="547"/>
      <point x="192" y="547" type="curve" smooth="yes"/>
    </contour>
  </outline>
</glyph>
<glyph name="sterling" format="1">
  <advance width="410"/>
  <unicode hex="00A3"/>
  <outline>
    <contour>
      <point x="12" y="242" type="line"/>
      <point x="-6" y="202" type="line"/>
      <point x="261" y="202" type="line"/>
      <point x="280" y="242" type="line"/>
    </contour>
    <component base="L"/>
  </outline>
</glyph>
<glyph name="yen" format="1">
  <advance width="410"/>
  <unicode hex="00A5"/>
  <outline>
    <contour>
      <point x="223" y="225" type="line"/>
      <point x="261" y="287" type="line" smooth="yes"/>
      <point x="283" y="323"/>
      <point x="294" y="353"/>
      <point x="294" y="385" type="curve" smooth="yes"/>
      <point x="294" y="432"/>
      <point x="269" y="471"/>
      <point x="230" y="500" type="curve"/>
      <point x="289" y="565" type="line"/>
      <point x="330" y="538"/>
      <point x="357" y="488"/>
      <point x="357" y="448" type="curve" smooth="yes"/>
      <point x="357" y="403"/>
      <point x="344" y="362"/>
      <point x="317" y="318" type="curve" smooth="yes"/>
      <point x="200" y="126" type="line"/>
      <point x="0" y="482" type="line"/>
      <point x="85" y="514" type="line"/>
      <point x="244" y="225" type="line"/>
    </contour>
    <contour>
      <point x="252" y="17" type="line"/>
      <point x="162" y="-13" type="line"/>
      <point x="162" y="218" type="line"/>
      <point x="252" y="240" type="line"/>
    </contour>
    <contour>
      <point x="11" y="272" type="line"/>
      <point x="30" y="311" type="line"/>
      <point x="171" y="311" type="line"/>
      <point x="153" y="272" type="line"/>
    </contour>
    <contour>
      <point x="11" y="164" type="line"/>
      <point x="30" y="203" type="line"/>
      <point x="391" y="203" type="line"/>
      <point x="371" y="164" type="line"/>
    </contour>
    <contour>
      <point x="265" y="272" type="line"/>
      <point x="284" y="311" type="line"/>
      <point x="391" y="311" type="line"/>
      <point x="372" y="272" type="line"/>
    </contour>
  </outline>
</glyph>
<glyph name="brokenbar" format="1">
  <advance width="180"/>
  <unicode hex="00A6"/>
  <outline>
    <contour>
      <point x="136" y="261" type="line"/>
      <point x="45" y="233" type="line"/>
      <point x="45" y="516" type="line"/>
      <point x="136" y="543" type="line"/>
    </contour>
    <contour>
      <point x="136" y="-75" type="line"/>
      <point x="45" y="-103" type="line"/>
      <point x="45" y="179" type="line"/>
      <point x="136" y="207" type="line"/>
    </contour>
  </outline>
</glyph>
<glyph name="section" format="1">
  <advance width="354"/>
  <unicode hex="00A7"/>
  <outline>
    <contour>
      <point x="110" y="549"/>
      <point x="45" y="497"/>
      <point x="45" y="424" type="curve" smooth="yes"/>
      <point x="45" y="296"/>
      <point x="239" y="304"/>
      <point x="239" y="218" type="curve" smooth="yes"/>
      <point x="239" y="195"/>
      <point x="221" y="173"/>
      <point x="192" y="173" type="curve"/>
      <point x="173" y="146" type="line"/>
      <point x="245" y="146"/>
      <point x="300" y="184"/>
      <point x="300" y="249" type="curve" smooth="yes"/>
      <point x="300" y="368"/>
      <point x="112" y="342"/>
      <point x="112" y="450" type="curve" smooth="yes"/>
      <point x="112" y="489"/>
      <point x="138" y="518"/>
      <point x="177" y="518" type="curve" smooth="yes"/>
      <point x="226" y="518"/>
      <point x="259" y="475"/>
      <point x="276" y="425" type="curve"/>
      <point x="327" y="485" type="line"/>
      <point x="295" y="526"/>
      <point x="250" y="549"/>
      <point x="194" y="549" type="curve" smooth="yes"/>
    </contour>
    <contour>
      <point x="82" y="346"/>
      <point x="45" y="303"/>
      <point x="45" y="250" type="curve" smooth="yes"/>
      <point x="45" y="121"/>
      <point x="239" y="129"/>
      <point x="239" y="43" type="curve" smooth="yes"/>
      <point x="239" y="20"/>
      <point x="221" y="-3"/>
      <point x="192" y="-3" type="curve" smooth="yes"/>
      <point x="146" y="-3"/>
      <point x="115" y="38"/>
      <point x="99" y="86" type="curve"/>
      <point x="50" y="30" type="line"/>
      <point x="75" y="-6"/>
      <point x="125" y="-28"/>
      <point x="173" y="-28" type="curve" smooth="yes"/>
      <point x="245" y="-28"/>
      <point x="300" y="8"/>
      <point x="300" y="75" type="curve" smooth="yes"/>
      <point x="300" y="193"/>
      <point x="112" y="167"/>
      <point x="112" y="275" type="curve" smooth="yes"/>
      <point x="112" y="307"/>
      <point x="130" y="332"/>
      <point x="158" y="340" type="curve"/>
      <point x="136" y="364" type="line"/>
    </contour>
  </outline>
</glyph>
<glyph name="guillemetleft" format="1">
  <advance width="308"/>
  <unicode hex="00AB"/>
  <outline>
    <contour>
      <point x="160" y="59" type="line"/>
      <point x="138" y="37" type="line"/>
      <point x="18" y="137" type="line"/>
      <point x="138" y="237" type="line"/>
      <point x="160" y="220" type="line"/>
      <point x="107" y="137" type="line"/>
    </contour>
    <contour>
      <point x="273" y="59" type="line"/>
      <point x="252" y="37" type="line"/>
      <point x="132" y="137" type="line"/>
      <point x="252" y="237" type="line"/>
      <point x="273" y="220" type="line"/>
      <point x="220" y="137" type="line"/>
    </contour>
  </outline>
</glyph>
<glyph name="logicalnot" format="1">
  <advance width="343"/>
  <unicode hex="00AC"/>
  <outline>
    <contour>
      <point x="256" y="243" type="line"/>
      <point x="32" y="243" type="line"/>
      <point x="55" y="301" type="line"/>
      <point x="300" y="301" type="line"/>
      <point x="300" y="170" type="line"/>
      <point x="256" y="133" type="line"/>
    </contour>
  </outline>
</glyph>
<glyph name="registered" format="1">
  <advance width="420"/>
  <unicode hex="00AE"/>
  <outline>
    <contour>
      <point x="118" y="419"/>
      <point x="42" y="344"/>
      <point x="42" y="251" type="curve" smooth="yes"/>
      <point x="42" y="159"/>
      <point x="118" y="84"/>
      <point x="210" y="84" type="curve" smooth="yes"/>
      <point x="302" y="84"/>
      <point x="378" y="159"/>
      <point x="378" y="251" type="curve" smooth="yes"/>
      <point x="378" y="344"/>
      <point x="302" y="419"/>
      <point x="210" y="419" type="curve" smooth="yes"/>
    </contour>
    <contour>
      <point x="140" y="312" type="line"/>
      <point x="140" y="146" type="line"/>
      <point x="177" y="159" type="line"/>
      <point x="177" y="324" type="line"/>
    </contour>
    <contour>
      <point x="293" y="401"/>
      <point x="360" y="334"/>
      <point x="360" y="251" type="curve" smooth="yes"/>
      <point x="360" y="169"/>
      <point x="293" y="102"/>
      <point x="210" y="102" type="curve" smooth="yes"/>
      <point x="127" y="102"/>
      <point x="60" y="169"/>
      <point x="60" y="251" type="curve" smooth="yes"/>
      <point x="60" y="334"/>
      <point x="127" y="401"/>
      <point x="210" y="401" type="curve" smooth="yes"/>
    </contour>
    <contour>
      <point x="178" y="365"/>
      <point x="146" y="341"/>
      <point x="121" y="319" type="curve"/>
      <point x="128" y="311" type="line"/>
      <point x="151" y="328"/>
      <point x="179" y="345"/>
      <point x="210" y="345" type="curve" smooth="yes"/>
      <point x="240" y="345"/>
      <point x="255" y="327"/>
      <point x="255" y="300" type="curve" smooth="yes"/>
      <point x="255" y="257"/>
      <point x="214" y="231"/>
      <point x="177" y="225" type="curve"/>
      <point x="175" y="217" type="line"/>
      <point x="208" y="171" type="line" smooth="yes"/>
      <point x="222" y="153"/>
      <point x="231" y="149"/>
      <point x="244" y="149" type="curve" smooth="yes"/>
      <point x="265" y="149"/>
      <point x="284" y="166"/>
      <point x="297" y="184" type="curve"/>
      <point x="290" y="190" type="line"/>
      <point x="283" y="183"/>
      <point x="273" y="175"/>
      <point x="263" y="175" type="curve" smooth="yes"/>
      <point x="257" y="175"/>
      <point x="252" y="177"/>
      <point x="247" y="183" type="curve" smooth="yes"/>
      <point x="216" y="222" type="line"/>
      <point x="256" y="236"/>
      <point x="294" y="263"/>
      <point x="294" y="304" type="curve" smooth="yes"/>
      <point x="294" y="339"/>
      <point x="269" y="365"/>
      <point x="230" y="365" type="curve" smooth="yes"/>
    </contour>
  </outline>
</glyph>
<glyph name="macron" format="1">
  <advance width="193"/>
  <unicode hex="00AF"/>
  <outline>
    <contour>
      <point x="2" y="368" type="line"/>
      <point x="29" y="426" type="line"/>
      <point x="191" y="426" type="line"/>
      <point x="165" y="368" type="line"/>
    </contour>
    <contour>
      <point x="96" y="300" type="move" name="_top"/>
    </contour>
  </outline>
</glyph>
<glyph name="degree" format="1">
  <advance width="281"/>
  <unicode hex="00B0"/>
  <outline>
    <contour>
      <point x="75" y="543"/>
      <point x="33" y="497"/>
      <point x="33" y="441" type="curve" smooth="yes"/>
      <point x="33" y="384"/>
      <point x="81" y="339"/>
      <point x="140" y="339" type="curve" smooth="yes"/>
      <point x="207" y="339"/>
      <point x="251" y="384"/>
      <point x="251" y="441" type="curve" smooth="yes"/>
      <point x="251" y="497"/>
      <point x="201" y="543"/>
      <point x="140" y="543" type="curve" smooth="yes"/>
    </contour>
    <contour>
      <point x="162" y="511"/>
      <point x="188" y="452"/>
      <point x="188" y="414" type="curve" smooth="yes"/>
      <point x="188" y="392"/>
      <point x="180" y="372"/>
      <point x="159" y="372" type="curve" smooth="yes"/>
      <point x="121" y="372"/>
      <point x="94" y="432"/>
      <point x="94" y="469" type="curve" smooth="yes"/>
      <point x="94" y="491"/>
      <point x="102" y="511"/>
      <point x="122" y="511" type="curve" smooth="yes"/>
    </contour>
  </outline>
</glyph>
<glyph name="threesuperior" format="1">
  <advance width="227"/>
  <unicode hex="00B3"/>
  <outline>
    <contour>
      <point x="99" y="385" type="line"/>
      <point x="104" y="387"/>
      <point x="115" y="388"/>
      <point x="123" y="388" type="curve" smooth="yes"/>
      <point x="168" y="388"/>
      <point x="205" y="360"/>
      <point x="205" y="316" type="curve" smooth="yes"/>
      <point x="205" y="237"/>
      <point x="92" y="207"/>
      <point x="21" y="207" type="curve"/>
      <point x="18" y="221" type="line"/>
      <point x="66" y="227"/>
      <point x="138" y="259"/>
      <point x="138" y="315" type="curve" smooth="yes"/>
      <point x="138" y="346"/>
      <point x="114" y="366"/>
      <point x="85" y="366" type="curve" smooth="yes"/>
      <point x="71" y="366"/>
      <point x="52" y="360"/>
      <point x="35" y="351" type="curve"/>
      <point x="28" y="368" type="line"/>
      <point x="59" y="382"/>
      <point x="107" y="411"/>
      <point x="107" y="451" type="curve" smooth="yes"/>
      <point x="107" y="471"/>
      <point x="96" y="478"/>
      <point x="81" y="478" type="curve" smooth="yes"/>
      <point x="64" y="478"/>
      <point x="39" y="462"/>
      <point x="26" y="445" type="curve"/>
      <point x="13" y="458" type="line"/>
      <point x="42" y="495"/>
      <point x="86" y="513"/>
      <point x="120" y="513" type="curve" smooth="yes"/>
      <point x="153" y="513"/>
      <point x="177" y="498"/>
      <point x="177" y="468" type="curve" smooth="yes"/>
      <point x="177" y="432"/>
      <point x="129" y="402"/>
      <point x="98" y="387" type="curve"/>
    </contour>
  </outline>
</glyph>
<glyph name="mu" format="1">
  <advance width="369"/>
  <unicode hex="00B5"/>
  <outline>
    <contour>
      <point x="221" y="264" type="line"/>
      <point x="214" y="160"/>
      <point x="188" y="57"/>
      <point x="159" y="57" type="curve" smooth="yes"/>
      <point x="153" y="57"/>
      <point x="149" y="66"/>
      <point x="149" y="77" type="curve" smooth="yes"/>
      <point x="149" y="223" type="line" smooth="yes"/>
      <point x="149" y="258"/>
      <point x="129" y="284"/>
      <point x="89" y="284" type="curve" smooth="yes"/>
      <point x="56" y="284"/>
      <point x="29" y="262"/>
      <point x="13" y="235" type="curve"/>
      <point x="25" y="223" type="line"/>
      <point x="32" y="233"/>
      <point x="43" y="240"/>
      <point x="52" y="240" type="curve" smooth="yes"/>
      <point x="60" y="240"/>
      <point x="66" y="233"/>
      <point x="66" y="220" type="curve" smooth="yes"/>
      <point x="66" y="-136" type="line"/>
      <point x="149" y="-109" type="line"/>
      <point x="149" y="3" type="line"/>
      <point x="189" y="23"/>
      <point x="210" y="92"/>
      <point x="221" y="136" type="curve"/>
      <point x="223" y="136" type="line"/>
      <point x="223" y="70" type="line" smooth="yes"/>
      <point x="224" y="26"/>
      <point x="245" y="-5"/>
      <point x="282" y="-5" type="curve" smooth="yes"/>
      <point x="315" y="-5"/>
      <point x="342" y="15"/>
      <point x="357" y="41" type="curve"/>
      <point x="346" y="54" type="line"/>
      <point x="338" y="44"/>
      <point x="327" y="36"/>
      <point x="318" y="36" type="curve" smooth="yes"/>
      <point x="311" y="36"/>
      <point x="304" y="43"/>
      <point x="304" y="55" type="curve" smooth="yes"/>
      <point x="304" y="285" type="line"/>
    </contour>
  </outline>
</glyph>
<glyph name="paragraph" format="1">
  <advance width="386"/>
  <unicode hex="00B6"/>
  <outline>
    <contour>
      <point x="160" y="519"/>
      <point x="28" y="464"/>
      <point x="28" y="350" type="curve" smooth="yes"/>
      <point x="28" y="257"/>
      <point x="113" y="204"/>
      <point x="215" y="187" type="curve"/>
      <point x="215" y="-13" type="line"/>
      <point x="306" y="17" type="line"/>
      <point x="306" y="519" type="line"/>
    </contour>
    <contour>
      <point x="216" y="225" type="line"/>
      <point x="161" y="248"/>
      <point x="121" y="288"/>
      <point x="121" y="350" type="curve" smooth="yes"/>
      <point x="121" y="412"/>
      <point x="161" y="453"/>
      <point x="216" y="475" type="curve"/>
    </contour>
  </outline>
</glyph>
<glyph name="cedilla" format="1">
  <advance width="95"/>
  <unicode hex="00B8"/>
  <outline>
    <contour>
      <point x="29" y="8" type="line"/>
      <point x="-4" y="-48" type="line"/>
      <point x="10" y="-59" type="line"/>
      <point x="17" y="-54"/>
      <point x="25" y="-52"/>
      <point x="31" y="-52" type="curve" smooth="yes"/>
      <point x="50" y="-52"/>
      <point x="62" y="-67"/>
      <point x="62" y="-85" type="curve" smooth="yes"/>
      <point x="62" y="-102"/>
      <point x="51" y="-117"/>
      <point x="33" y="-117" type="curve" smooth="yes"/>
      <point x="21" y="-117"/>
      <point x="11" y="-110"/>
      <point x="1" y="-97" type="curve"/>
      <point x="-14" y="-110" type="line"/>
      <point x="-2" y="-132"/>
      <point x="24" y="-145"/>
      <point x="49" y="-145" type="curve" smooth="yes"/>
      <point x="83" y="-145"/>
      <point x="116" y="-122"/>
      <point x="116" y="-85" type="curve" smooth="yes"/>
      <point x="116" y="-47"/>
      <point x="90" y="-27"/>
      <point x="57" y="-27" type="curve" smooth="yes"/>
      <point x="48" y="-27"/>
      <point x="38" y="-29"/>
      <point x="29" y="-33" type="curve"/>
      <point x="53" y="8" type="line"/>
    </contour>
    <contour>
      <point x="50" y="0" type="move" name="_bottom"/>
    </contour>
  </outline>
</glyph>
<glyph name="ordmasculine" format="1">
  <advance width="292"/>
  <unicode hex="00BA"/>
  <outline>
    <contour>
      <point x="263" y="231" type="line"/>
      <point x="246" y="180" type="line"/>
      <point x="32" y="180" type="line"/>
      <point x="49" y="231" type="line"/>
    </contour>
    <component base="o" xOffset="22" yOffset="292" xScale="0.8" yScale="0.8"/>
  </outline>
</glyph>
<glyph name="guillemetright" format="1">
  <advance width="308"/>
  <unicode hex="00BB"/>
  <outline>
    <contour>
      <point x="149" y="217" type="line"/>
      <point x="201" y="137" type="line"/>
      <point x="149" y="56" type="line"/>
      <point x="170" y="37" type="line"/>
      <point x="291" y="137" type="line"/>
      <point x="170" y="237" type="line"/>
    </contour>
    <contour>
      <point x="35" y="217" type="line"/>
      <point x="87" y="137" type="line"/>
      <point x="35" y="56" type="line"/>
      <point x="56" y="37" type="line"/>
      <point x="176" y="137" type="line"/>
      <point x="56" y="237" type="line"/>
    </contour>
  </outline>
</glyph>
<glyph name="AE" format="1">
  <advance width="655"/>
  <unicode hex="00C6"/>
  <outline>
    <contour>
      <point x="311" y="152" type="line"/>
      <point x="289" y="71"/>
      <point x="246" y="-7"/>
      <point x="158" y="-7" type="curve" smooth="yes"/>
      <point x="74" y="-7"/>
      <point x="21" y="60"/>
      <point x="21" y="162" type="curve" smooth="yes"/>
      <point x="21" y="332"/>
      <point x="165" y="512"/>
      <point x="433" y="515" type="curve"/>
      <point x="433" y="488" type="line"/>
      <point x="219" y="471"/>
      <point x="116" y="321"/>
      <point x="116" y="182" type="curve" smooth="yes"/>
      <point x="116" y="115"/>
      <point x="133" y="40"/>
      <point x="191" y="40" type="curve" smooth="yes"/>
      <point x="236" y="40"/>
      <point x="267" y="90"/>
      <point x="287" y="155" type="curve"/>
    </contour>
    <contour>
      <point x="658" y="137" type="line"/>
      <point x="614" y="60"/>
      <point x="530" y="-8"/>
      <point x="431" y="-8" type="curve" smooth="yes"/>
      <point x="338" y="-8"/>
      <point x="282" y="44"/>
      <point x="282" y="123" type="curve" smooth="yes"/>
      <point x="282" y="198"/>
      <point x="343" y="255"/>
      <point x="403" y="286" type="curve"/>
      <point x="361" y="305"/>
      <point x="339" y="337"/>
      <point x="339" y="378" type="curve" smooth="yes"/>
      <point x="339" y="472"/>
      <point x="437" y="525"/>
      <point x="525" y="525" type="curve" smooth="yes"/>
      <point x="568" y="525"/>
      <point x="607" y="508"/>
      <point x="634" y="475" type="curve"/>
      <point x="569" y="434" type="line"/>
      <point x="550" y="469"/>
      <point x="522" y="490"/>
      <point x="490" y="490" type="curve" smooth="yes"/>
      <point x="449" y="490"/>
      <point x="408" y="457"/>
      <point x="408" y="410" type="curve" smooth="yes"/>
      <point x="408" y="358"/>
      <point x="449" y="324"/>
      <point x="497" y="324" type="curve" smooth="yes"/>
      <point x="510" y="324"/>
      <point x="525" y="326"/>
      <point x="539" y="332" type="curve"/>
      <point x="545" y="308" type="line"/>
      <point x="455" y="280"/>
      <point x="379" y="234"/>
      <point x="379" y="145" type="curve" smooth="yes"/>
      <point x="379" y="93"/>
      <point x="412" y="52"/>
      <point x="468" y="52" type="curve" smooth="yes"/>
      <point x="542" y="52"/>
      <point x="607" y="105"/>
      <point x="635" y="156" type="curve"/>
    </contour>
    <contour>
      <point x="364" y="538" type="move" name="top"/>
    </contour>
  </outline>
</glyph>
<glyph name="germandbls" format="1">
  <advance width="385"/>
  <unicode hex="00DF"/>
  <outline>
    <contour>
      <point x="54" y="520"/>
      <point x="54" y="369"/>
      <point x="54" y="270" type="curve"/>
      <point x="28" y="270" type="line"/>
      <point x="8" y="226" type="line"/>
      <point x="54" y="226" type="line"/>
      <point x="54" y="-105" type="line"/>
      <point x="139" y="-74" type="line"/>
      <point x="139" y="417" type="line" smooth="yes"/>
      <point x="139" y="448"/>
      <point x="144" y="489"/>
      <point x="180" y="489" type="curve" smooth="yes"/>
      <point x="206" y="489"/>
      <point x="222" y="464"/>
      <point x="222" y="439" type="curve" smooth="yes"/>
      <point x="222" y="388"/>
      <point x="174" y="344"/>
      <point x="174" y="288" type="curve" smooth="yes"/>
      <point x="174" y="162"/>
      <point x="311" y="130"/>
      <point x="311" y="77" type="curve" smooth="yes"/>
      <point x="311" y="49"/>
      <point x="291" y="33"/>
      <point x="267" y="33" type="curve" smooth="yes"/>
      <point x="239" y="33"/>
      <point x="215" y="65"/>
      <point x="206" y="86" type="curve"/>
      <point x="160" y="23" type="line"/>
      <point x="180" y="4"/>
      <point x="219" y="-9"/>
      <point x="258" y="-9" type="curve" smooth="yes"/>
      <point x="325" y="-9"/>
      <point x="373" y="35"/>
      <point x="373" y="98" type="curve" smooth="yes"/>
      <point x="373" y="193"/>
      <point x="240" y="218"/>
      <point x="240" y="294" type="curve" smooth="yes"/>
      <point x="240" y="351"/>
      <point x="299" y="385"/>
      <point x="299" y="440" type="curve" smooth="yes"/>
      <point x="299" y="492"/>
      <point x="257" y="520"/>
      <point x="199" y="520" type="curve" smooth="yes"/>
    </contour>
  </outline>
</glyph>
<glyph name="eth" format="1">
  <advance width="327"/>
  <unicode hex="00F0"/>
  <outline>
    <contour>
      <point x="48" y="476" type="line"/>
      <point x="128" y="428"/>
      <point x="228" y="323"/>
      <point x="228" y="166" type="curve" smooth="yes"/>
      <point x="228" y="89"/>
      <point x="198" y="29"/>
      <point x="150" y="29" type="curve" smooth="yes"/>
      <point x="107" y="29"/>
      <point x="87" y="66"/>
      <point x="87" y="110" type="curve" smooth="yes"/>
      <point x="87" y="164"/>
      <point x="133" y="233"/>
      <point x="207" y="234" type="curve"/>
      <point x="191" y="254"/>
      <point x="167" y="273"/>
      <point x="145" y="286" type="curve"/>
      <point x="75" y="276"/>
      <point x="22" y="211"/>
      <point x="22" y="145" type="curve" smooth="yes"/>
      <point x="22" y="61"/>
      <point x="74" y="-7"/>
      <point x="161" y="-7" type="curve" smooth="yes"/>
      <point x="244" y="-7"/>
      <point x="312" y="72"/>
      <point x="312" y="157" type="curve" smooth="yes"/>
      <point x="312" y="348"/>
      <point x="170" y="450"/>
      <point x="59" y="490" type="curve"/>
    </contour>
    <contour>
      <point x="69" y="381" type="line"/>
      <point x="69" y="339" type="line"/>
      <point x="268" y="418" type="line"/>
      <point x="268" y="459" type="line"/>
    </contour>
  </outline>
</glyph>
<glyph name="thorn" format="1">
  <advance width="322"/>
  <unicode hex="00FE"/>
  <outline>
    <contour>
      <point x="165" y="285"/>
      <point x="137" y="258"/>
      <point x="125" y="221" type="curve"/>
      <point x="123" y="221" type="line"/>
      <point x="123" y="450" type="line"/>
      <point x="123" y="482"/>
      <point x="108" y="511"/>
      <point x="63" y="511" type="curve" smooth="yes"/>
      <point x="26" y="511"/>
      <point x="0" y="485"/>
      <point x="-11" y="462" type="curve"/>
      <point x="1" y="449" type="line"/>
      <point x="7" y="457"/>
      <point x="17" y="466"/>
      <point x="27" y="466" type="curve" smooth="yes"/>
      <point x="36" y="466"/>
      <point x="41" y="459"/>
      <point x="41" y="448" type="curve" smooth="yes"/>
      <point x="41" y="-174" type="line"/>
      <point x="124" y="-148" type="line"/>
      <point x="124" y="125" type="line" smooth="yes"/>
      <point x="124" y="163"/>
      <point x="127" y="242"/>
      <point x="170" y="242" type="curve"/>
      <point x="204" y="242"/>
      <point x="224" y="192"/>
      <point x="224" y="139" type="curve" smooth="yes"/>
      <point x="224" y="78"/>
      <point x="204" y="30"/>
      <point x="172" y="30" type="curve" smooth="yes"/>
      <point x="158" y="30"/>
      <point x="144" y="37"/>
      <point x="134" y="56" type="curve"/>
      <point x="76" y="26" type="line"/>
      <point x="94" y="3"/>
      <point x="125" y="-7"/>
      <point x="155" y="-7" type="curve" smooth="yes"/>
      <point x="250" y="-7"/>
      <point x="301" y="67"/>
      <point x="301" y="161" type="curve" smooth="yes"/>
      <point x="301" y="229"/>
      <point x="261" y="285"/>
      <point x="202" y="285" type="curve"/>
    </contour>
  </outline>
</glyph>
<glyph name="Hbar" format="1">
  <advance width="479"/>
  <unicode hex="0126"/>
  <outline>
    <contour>
      <point x="9" y="301" type="line"/>
      <point x="28" y="342" type="line"/>
      <point x="467" y="342" type="line"/>
      <point x="449" y="301" type="line"/>
    </contour>
    <component base="H"/>
  </outline>
</glyph>
<glyph name="lslash" format="1">
  <advance width="184"/>
  <unicode hex="0142"/>
  <outline>
    <contour>
      <point x="-1" y="233" type="line"/>
      <point x="-1" y="192" type="line"/>
      <point x="176" y="266" type="line"/>
      <point x="176" y="309" type="line"/>
    </contour>
    <component base="l"/>
  </outline>
</glyph>
<glyph name="eng" format="1">
  <advance width="344"/>
  <unicode hex="014B"/>
  <outline>
    <contour>
      <point x="196" y="284"/>
      <point x="158" y="214"/>
      <point x="141" y="147" type="curve"/>
      <point x="139" y="147" type="line"/>
      <point x="139" y="209" type="line"/>
      <point x="139" y="254"/>
      <point x="122" y="284"/>
      <point x="78" y="284" type="curve" smooth="yes"/>
      <point x="43" y="284"/>
      <point x="18" y="260"/>
      <point x="6" y="237" type="curve"/>
      <point x="18" y="224" type="line"/>
      <point x="23" y="232"/>
      <point x="34" y="241"/>
      <point x="45" y="241" type="curve" smooth="yes"/>
      <point x="53" y="241"/>
      <point x="58" y="234"/>
      <point x="58" y="222" type="curve" smooth="yes"/>
      <point x="58" y="-7" type="line"/>
      <point x="141" y="9" type="line"/>
      <point x="141" y="93"/>
      <point x="173" y="219"/>
      <point x="205" y="219" type="curve" smooth="yes"/>
      <point x="213" y="219"/>
      <point x="214" y="206"/>
      <point x="214" y="200" type="curve" smooth="yes"/>
      <point x="214" y="3" type="line" smooth="yes"/>
      <point x="214" y="-71"/>
      <point x="209" y="-115"/>
      <point x="159" y="-115" type="curve" smooth="yes"/>
      <point x="146" y="-115"/>
      <point x="127" y="-110"/>
      <point x="105" y="-91" type="curve"/>
      <point x="62" y="-146" type="line"/>
      <point x="78" y="-158"/>
      <point x="97" y="-162"/>
      <point x="114" y="-162" type="curve" smooth="yes"/>
      <point x="207" y="-162"/>
      <point x="297" y="-62"/>
      <point x="297" y="31" type="curve"/>
      <point x="297" y="211" type="line" smooth="yes"/>
      <point x="297" y="243"/>
      <point x="293" y="284"/>
      <point x="249" y="284" type="curve"/>
    </contour>
  </outline>
</glyph>
<glyph name="OE" format="1">
  <advance width="708"/>
  <unicode hex="0152"/>
  <outline>
    <contour>
      <point x="110" y="528"/>
      <point x="26" y="396"/>
      <point x="26" y="259" type="curve" smooth="yes"/>
      <point x="26" y="127"/>
      <point x="119" y="-10"/>
      <point x="267" y="-10" type="curve" smooth="yes"/>
      <point x="312" y="-10"/>
      <point x="351" y="1"/>
      <point x="383" y="20" type="curve"/>
      <point x="408" y="2"/>
      <point x="442" y="-8"/>
      <point x="482" y="-8" type="curve" smooth="yes"/>
      <point x="582" y="-8"/>
      <point x="665" y="60"/>
      <point x="709" y="137" type="curve"/>
      <point x="687" y="156" type="line"/>
      <point x="659" y="105"/>
      <point x="594" y="52"/>
      <point x="520" y="52" type="curve" smooth="yes"/>
      <point x="466" y="52"/>
      <point x="435" y="94"/>
      <point x="435" y="147" type="curve" smooth="yes"/>
      <point x="435" y="235"/>
      <point x="525" y="286"/>
      <point x="597" y="308" type="curve"/>
      <point x="590" y="332" type="line"/>
      <point x="576" y="326"/>
      <point x="562" y="324"/>
      <point x="548" y="324" type="curve" smooth="yes"/>
      <point x="501" y="324"/>
      <point x="460" y="358"/>
      <point x="460" y="410" type="curve" smooth="yes"/>
      <point x="460" y="457"/>
      <point x="500" y="490"/>
      <point x="541" y="490" type="curve" smooth="yes"/>
      <point x="574" y="490"/>
      <point x="601" y="469"/>
      <point x="621" y="434" type="curve"/>
      <point x="685" y="475" type="line"/>
      <point x="659" y="508"/>
      <point x="620" y="525"/>
      <point x="577" y="525" type="curve" smooth="yes"/>
      <point x="521" y="525"/>
      <point x="459" y="504"/>
      <point x="423" y="463" type="curve"/>
      <point x="384" y="502"/>
      <point x="331" y="528"/>
      <point x="267" y="528" type="curve" smooth="yes"/>
    </contour>
    <contour>
      <point x="322" y="488"/>
      <point x="371" y="423"/>
      <point x="395" y="348" type="curve"/>
      <point x="405" y="317"/>
      <point x="430" y="291"/>
      <point x="464" y="281" type="curve"/>
      <point x="399" y="251"/>
      <point x="333" y="196"/>
      <point x="333" y="123" type="curve" smooth="yes"/>
      <point x="333" y="96"/>
      <point x="340" y="72"/>
      <point x="352" y="52" type="curve"/>
      <point x="336" y="40"/>
      <point x="316" y="34"/>
      <point x="293" y="34" type="curve" smooth="yes"/>
      <point x="164" y="34"/>
      <point x="116" y="193"/>
      <point x="116" y="306" type="curve"/>
      <point x="116" y="385"/>
      <point x="147" y="488"/>
      <point x="239" y="488" type="curve" smooth="yes"/>
    </contour>
    <contour>
      <point x="356" y="538" type="move" name="top"/>
    </contour>
  </outline>
</glyph>
<glyph name="oe" format="1">
  <advance width="518"/>
  <unicode hex="0153"/>
  <outline>
    <component base="o"/>
    <component base="e" xOffset="216"/>
    <contour>
      <point x="276" y="300" type="move" name="top"/>
    </contour>
  </outline>
</glyph>
<glyph name="Tbar" format="1">
  <advance width="363"/>
  <unicode hex="0166"/>
  <outline>
    <contour>
      <point x="74" y="279" type="line"/>
      <point x="56" y="240" type="line"/>
      <point x="260" y="240" type="line"/>
      <point x="279" y="279" type="line"/>
    </contour>
    <component base="T"/>
  </outline>
</glyph>
<glyph name="tbar" format="1">
  <advance width="192"/>
  <unicode hex="0167"/>
  <outline>
    <contour>
      <point x="20" y="174" type="line"/>
      <point x="4" y="144" type="line"/>
      <point x="179" y="144" type="line"/>
      <point x="194" y="174" type="line"/>
    </contour>
    <component base="t"/>
  </outline>
</glyph>
<glyph name="caron" format="1">
  <advance width="203"/>
  <unicode hex="02C7"/>
  <outline>
    <contour>
      <point x="3" y="415" type="line"/>
      <point x="109" y="331" type="line"/>
      <point x="201" y="441" type="line"/>
      <point x="178" y="460" type="line"/>
      <point x="127" y="399" type="line"/>
      <point x="44" y="466" type="line"/>
    </contour>
    <contour>
      <point x="103" y="300" type="move" name="_top"/>
    </contour>
  </outline>
</glyph>
<glyph name="ring" format="1">
  <advance width="151"/>
  <unicode hex="02DA"/>
  <outline>
    <contour>
      <point x="34" y="483"/>
      <point x="0" y="451"/>
      <point x="0" y="412" type="curve" smooth="yes"/>
      <point x="0" y="371"/>
      <point x="32" y="341"/>
      <point x="75" y="341" type="curve" smooth="yes"/>
      <point x="117" y="341"/>
      <point x="151" y="373"/>
      <point x="151" y="412" type="curve" smooth="yes"/>
      <point x="151" y="453"/>
      <point x="119" y="483"/>
      <point x="75" y="483" type="curve" smooth="yes"/>
    </contour>
    <contour>
      <point x="81" y="457"/>
      <point x="102" y="435"/>
      <point x="102" y="399" type="curve" smooth="yes"/>
      <point x="102" y="381"/>
      <point x="96" y="367"/>
      <point x="84" y="367" type="curve" smooth="yes"/>
      <point x="69" y="367"/>
      <point x="48" y="391"/>
      <point x="48" y="426" type="curve" smooth="yes"/>
      <point x="48" y="445"/>
      <point x="55" y="457"/>
      <point x="66" y="457" type="curve" smooth="yes"/>
    </contour>
    <contour>
      <point x="76" y="300" type="move" name="_top"/>
    </contour>
  </outline>
</glyph>
<glyph name="tilde" format="1">
  <advance width="181"/>
  <unicode hex="02DC"/>
  <outline>
    <contour>
      <point x="136" y="442" type="line"/>
      <point x="140" y="436"/>
      <point x="141" y="430"/>
      <point x="141" y="425" type="curve" smooth="yes"/>
      <point x="141" y="414"/>
      <point x="136" y="407"/>
      <point x="128" y="407" type="curve" smooth="yes"/>
      <point x="107" y="407"/>
      <point x="98" y="446"/>
      <point x="58" y="446" type="curve" smooth="yes"/>
      <point x="24" y="446"/>
      <point x="3" y="420"/>
      <point x="3" y="390" type="curve" smooth="yes"/>
      <point x="3" y="376"/>
      <point x="7" y="358"/>
      <point x="21" y="342" type="curve"/>
      <point x="45" y="352" type="line"/>
      <point x="41" y="358"/>
      <point x="40" y="364"/>
      <point x="40" y="369" type="curve" smooth="yes"/>
      <point x="40" y="381"/>
      <point x="45" y="387"/>
      <point x="53" y="387" type="curve" smooth="yes"/>
      <point x="74" y="387"/>
      <point x="84" y="348"/>
      <point x="123" y="348" type="curve" smooth="yes"/>
      <point x="158" y="348"/>
      <point x="178" y="374"/>
      <point x="178" y="404" type="curve" smooth="yes"/>
      <point x="178" y="418"/>
      <point x="174" y="436"/>
      <point x="160" y="452" type="curve"/>
    </contour>
    <contour>
      <point x="91" y="300" type="move" name="_top"/>
    </contour>
  </outline>
</glyph>
<glyph name="hungarumlaut" format="1">
  <advance width="262"/>
  <unicode hex="02DD"/>
  <outline>
    <contour>
      <point x="15" y="323" type="line"/>
      <point x="0" y="345" type="line"/>
      <point x="88" y="449" type="line"/>
      <point x="135" y="380" type="line"/>
    </contour>
    <contour>
      <point x="142" y="323" type="line"/>
      <point x="127" y="345" type="line"/>
      <point x="215" y="449" type="line"/>
      <point x="262" y="380" type="line"/>
    </contour>
    <contour>
      <point x="131" y="300" type="move" name="_top"/>
    </contour>
  </outline>
</glyph>
<glyph name="uni0312" format="1">
  <advance width="108"/>
  <unicode hex="0312"/>
  <outline>
    <contour>
      <point x="37" y="456"/>
      <point x="6" y="422"/>
      <point x="6" y="379" type="curve" smooth="yes"/>
      <point x="6" y="354"/>
      <point x="27" y="332"/>
      <point x="53" y="332" type="curve" smooth="yes"/>
      <point x="79" y="332"/>
      <point x="100" y="354"/>
      <point x="100" y="379" type="curve" smooth="yes"/>
      <point x="100" y="402"/>
      <point x="86" y="420"/>
      <point x="65" y="425" type="curve"/>
      <point x="67" y="439"/>
      <point x="77" y="455"/>
      <point x="87" y="464" type="curve"/>
      <point x="72" y="477" type="line"/>
    </contour>
    <contour>
      <point x="54" y="300" type="move" name="_top"/>
    </contour>
  </outline>
</glyph>
<glyph name="uni0315" format="1">
  <advance width="107"/>
  <unicode hex="0315"/>
  <outline>
    <contour>
      <point x="101" y="371"/>
      <point x="70" y="338"/>
      <point x="35" y="317" type="curve"/>
      <point x="20" y="330" type="line"/>
      <point x="30" y="338"/>
      <point x="40" y="354"/>
      <point x="43" y="368" type="curve"/>
      <point x="22" y="374"/>
      <point x="7" y="392"/>
      <point x="7" y="414" type="curve" smooth="yes"/>
      <point x="7" y="440"/>
      <point x="28" y="462"/>
      <point x="54" y="462" type="curve" smooth="yes"/>
      <point x="80" y="462"/>
      <point x="101" y="440"/>
      <point x="101" y="414" type="curve" smooth="yes"/>
    </contour>
    <contour>
      <point x="46" y="300" type="move" name="_topleft"/>
    </contour>
    <contour>
      <point x="54" y="300" type="move" name="_topright"/>
    </contour>
    <contour>
      <point x="54" y="300" type="move" name="_top"/>
    </contour>
  </outline>
</glyph>
<glyph name="uni0326" format="1">
  <advance width="111"/>
  <unicode hex="0326"/>
  <outline>
    <contour>
      <point x="102" y="-121"/>
      <point x="71" y="-155"/>
      <point x="36" y="-176" type="curve"/>
      <point x="22" y="-163" type="line"/>
      <point x="31" y="-154"/>
      <point x="42" y="-138"/>
      <point x="44" y="-125" type="curve"/>
      <point x="23" y="-119"/>
      <point x="8" y="-100"/>
      <point x="8" y="-78" type="curve" smooth="yes"/>
      <point x="8" y="-52"/>
      <point x="29" y="-31"/>
      <point x="55" y="-31" type="curve" smooth="yes"/>
      <point x="81" y="-31"/>
      <point x="102" y="-52"/>
      <point x="102" y="-78" type="curve" smooth="yes"/>
    </contour>
    <contour>
      <point x="55" y="0" type="move" name="_bottom"/>
    </contour>
  </outline>
</glyph>
<glyph name="pi" format="1">
  <advance width="381"/>
  <unicode hex="03C0"/>
  <outline>
    <contour>
      <point x="363" y="56" type="line"/>
      <point x="356" y="45"/>
      <point x="342" y="38"/>
      <point x="334" y="38" type="curve" smooth="yes"/>
      <point x="326" y="38"/>
      <point x="324" y="45"/>
      <point x="324" y="57" type="curve" smooth="yes"/>
      <point x="324" y="292" type="line"/>
      <point x="240" y="269" type="line"/>
      <point x="39" y="269" type="line"/>
      <point x="23" y="232" type="line"/>
      <point x="61" y="232" type="line"/>
      <point x="61" y="-14" type="line"/>
      <point x="145" y="0" type="line"/>
      <point x="145" y="232" type="line"/>
      <point x="240" y="232" type="line"/>
      <point x="240" y="55" type="line" smooth="yes"/>
      <point x="240" y="20"/>
      <point x="260" y="-5"/>
      <point x="301" y="-5" type="curve" smooth="yes"/>
      <point x="334" y="-5"/>
      <point x="361" y="16"/>
      <point x="376" y="43" type="curve"/>
    </contour>
  </outline>
</glyph>
<glyph name="a-deva" format="1">
  <advance width="621"/>
  <unicode hex="0905"/>
  <outline>
    <contour>
      <point x="19" y="267" type="line"/>
      <point x="73" y="117"/>
      <point x="180" y="14"/>
      <point x="282" y="14" type="curve" smooth="yes"/>
      <point x="348" y="14"/>
      <point x="401" y="69"/>
      <point x="401" y="135" type="curve" smooth="yes"/>
      <point x="401" y="176"/>
      <point x="378" y="224"/>
      <point x="337" y="267" type="curve"/>
      <point x="345" y="276" type="line"/>
      <point x="376" y="249"/>
      <point x="406" y="231"/>
      <point x="431" y="231" type="curve" smooth="yes"/>
      <point x="442" y="231"/>
      <point x="452" y="233"/>
      <point x="464" y="237" type="curve"/>
      <point x="464" y="120" type="line" smooth="yes"/>
      <point x="464" y="60"/>
      <point x="630" y="-55"/>
      <point x="720" y="-55" type="curve" smooth="yes"/>
      <point x="743" y="-55"/>
      <point x="764" y="-44"/>
      <point x="780" y="-26" type="curve"/>
      <point x="706" y="18" type="line"/>
      <point x="695" y="1"/>
      <point x="678" y="-7"/>
      <point x="662" y="-7" type="curve" smooth="yes"/>
      <point x="624" y="-7"/>
      <point x="549" y="41"/>
      <point x="549" y="70" type="curve" smooth="yes"/>
      <point x="549" y="421" type="line"/>
      <point x="478" y="500" type="line"/>
      <point x="334" y="500" type="line"/>
      <point x="399" y="421" type="line"/>
      <point x="464" y="421" type="line"/>
      <point x="464" y="314" type="line"/>
      <point x="445" y="294"/>
      <point x="419" y="284"/>
      <point x="395" y="284" type="curve" smooth="yes"/>
      <point x="380" y="284"/>
      <point x="367" y="290"/>
      <point x="357" y="298" type="curve"/>
      <point x="368" y="317"/>
      <point x="375" y="339"/>
      <point x="375" y="365" type="curve" smooth="yes"/>
      <point x="375" y="436"/>
      <point x="290" y="517"/>
      <point x="201" y="517" type="curve" smooth="yes"/>
      <point x="147" y="517"/>
      <point x="99" y="501"/>
      <point x="67" y="471" type="curve"/>
      <point x="131" y="405" type="line"/>
      <point x="168" y="440"/>
      <point x="212" y="460"/>
      <point x="254" y="460" type="curve" smooth="yes"/>
      <point x="287" y="460"/>
      <point x="309" y="434"/>
      <point x="309" y="402" type="curve" smooth="yes"/>
      <point x="309" y="377"/>
      <point x="299" y="348"/>
      <point x="281" y="331" type="curve"/>
      <point x="258" y="356"/>
      <point x="229" y="371"/>
      <point x="204" y="371" type="curve" smooth="yes"/>
      <point x="163" y="371"/>
      <point x="124" y="340"/>
      <point x="124" y="305" type="curve" smooth="yes"/>
      <point x="124" y="261"/>
      <point x="191" y="206"/>
      <point x="239" y="206" type="curve" smooth="yes"/>
      <point x="264" y="206"/>
      <point x="293" y="221"/>
      <point x="317" y="247" type="curve"/>
      <point x="332" y="226"/>
      <point x="342" y="205"/>
      <point x="342" y="185" type="curve" smooth="yes"/>
      <point x="342" y="133"/>
      <point x="295" y="89"/>
      <point x="237" y="89" type="curve" smooth="yes"/>
      <point x="166" y="89"/>
      <point x="90" y="166"/>
      <point x="48" y="280" type="curve"/>
    </contour>
    <contour>
      <point x="631" y="421" type="line"/>
      <point x="631" y="500" type="line"/>
      <point x="520" y="500" type="line"/>
      <point x="590" y="421" type="line"/>
    </contour>
    <contour>
      <point x="190" y="258"/>
      <point x="185" y="265"/>
      <point x="185" y="273" type="curve" smooth="yes"/>
      <point x="185" y="292"/>
      <point x="218" y="320"/>
      <point x="239" y="320" type="curve" smooth="yes"/>
      <point x="249" y="320"/>
      <point x="258" y="314"/>
      <point x="265" y="305" type="curve"/>
      <point x="235" y="272"/>
      <point x="212" y="258"/>
      <point x="198" y="258" type="curve" smooth="yes"/>
    </contour>
    <contour>
      <point x="86" y="0" type="move" name="nukta"/>
    </contour>
    <contour>
      <point x="506" y="0" type="move" name="bottom"/>
    </contour>
    <contour>
      <point x="499" y="500" type="move" name="top"/>
    </contour>
  </outline>
</glyph>
<glyph name="aa-deva" format="1">
  <advance width="848"/>
  <unicode hex="0906"/>
  <outline>
    <component base="a-deva"/>
    <component base="aaMatra-deva" xOffset="621"/>
    <contour>
      <point x="84" y="0" type="move" name="nukta"/>
    </contour>
    <contour>
      <point x="736" y="0" type="move" name="bottom"/>
    </contour>
    <contour>
      <point x="718" y="500" type="move" name="top"/>
    </contour>
  </outline>
</glyph>
<glyph name="rVocalic-deva" format="1">
  <advance width="659"/>
  <unicode hex="090B"/>
  <outline>
    <contour>
      <point x="-10" y="500" type="line"/>
      <point x="-10" y="421" type="line"/>
      <point x="280" y="421" type="line"/>
      <point x="280" y="285" type="line"/>
      <point x="235" y="343"/>
      <point x="187" y="378"/>
      <point x="145" y="378" type="curve" smooth="yes"/>
      <point x="92" y="378"/>
      <point x="44" y="359"/>
      <point x="12" y="328" type="curve"/>
      <point x="67" y="250" type="line"/>
      <point x="103" y="286"/>
      <point x="148" y="306"/>
      <point x="190" y="306" type="curve" smooth="yes"/>
      <point x="214" y="306"/>
      <point x="244" y="287"/>
      <point x="270" y="253" type="curve"/>
      <point x="223" y="202"/>
      <point x="161" y="167"/>
      <point x="85" y="149" type="curve"/>
      <point x="155" y="83" type="line"/>
      <point x="203" y="102"/>
      <point x="245" y="130"/>
      <point x="280" y="165" type="curve"/>
      <point x="280" y="119" type="line" smooth="yes"/>
      <point x="280" y="61"/>
      <point x="445" y="-55"/>
      <point x="536" y="-55" type="curve" smooth="yes"/>
      <point x="559" y="-55"/>
      <point x="581" y="-44"/>
      <point x="597" y="-26" type="curve"/>
      <point x="523" y="18" type="line"/>
      <point x="511" y="1"/>
      <point x="495" y="-7"/>
      <point x="479" y="-7" type="curve" smooth="yes"/>
      <point x="440" y="-7"/>
      <point x="365" y="41"/>
      <point x="365" y="70" type="curve" smooth="yes"/>
      <point x="365" y="259" type="line"/>
      <point x="400" y="228"/>
      <point x="437" y="211"/>
      <point x="472" y="211" type="curve" smooth="yes"/>
      <point x="490" y="211"/>
      <point x="505" y="213"/>
      <point x="518" y="217" type="curve"/>
      <point x="543" y="194"/>
      <point x="560" y="170"/>
      <point x="560" y="157" type="curve" smooth="yes"/>
      <point x="560" y="127"/>
      <point x="535" y="102"/>
      <point x="506" y="102" type="curve" smooth="yes"/>
      <point x="485" y="102"/>
      <point x="464" y="111"/>
      <point x="451" y="124" type="curve"/>
      <point x="436" y="106" type="line"/>
      <point x="470" y="68"/>
      <point x="513" y="44"/>
      <point x="553" y="44" type="curve" smooth="yes"/>
      <point x="593" y="44"/>
      <point x="631" y="77"/>
      <point x="631" y="117" type="curve" smooth="yes"/>
      <point x="631" y="146"/>
      <point x="611" y="171"/>
      <point x="549" y="233" type="curve"/>
      <point x="578" y="246"/>
      <point x="596" y="266"/>
      <point x="596" y="285" type="curve" smooth="yes"/>
      <point x="596" y="320"/>
      <point x="542" y="367"/>
      <point x="501" y="367" type="curve" smooth="yes"/>
      <point x="478" y="367"/>
      <point x="458" y="350"/>
      <point x="458" y="327" type="curve" smooth="yes"/>
      <point x="458" y="312"/>
      <point x="464" y="296"/>
      <point x="478" y="281" type="curve"/>
      <point x="466" y="273"/>
      <point x="452" y="269"/>
      <point x="437" y="269" type="curve" smooth="yes"/>
      <point x="408" y="269"/>
      <point x="381" y="280"/>
      <point x="365" y="299" type="curve"/>
      <point x="365" y="421" type="line"/>
      <point x="286" y="500" type="line"/>
    </contour>
    <contour>
      <point x="328" y="500" type="line"/>
      <point x="407" y="421" type="line"/>
      <point x="670" y="421" type="line"/>
      <point x="670" y="500" type="line"/>
    </contour>
    <contour>
      <point x="307" y="500" type="move" name="top"/>
    </contour>
    <contour>
      <point x="323" y="0" type="move" name="bottom"/>
    </contour>
  </outline>
</glyph>
<glyph name="ka-deva" format="1">
  <advance width="566"/>
  <unicode hex="0915"/>
  <outline>
    <contour>
      <point x="-10" y="500" type="line"/>
      <point x="-10" y="421" type="line"/>
      <point x="247" y="421" type="line"/>
      <point x="247" y="273" type="line"/>
      <point x="210" y="223"/>
      <point x="163" y="196"/>
      <point x="124" y="196" type="curve" smooth="yes"/>
      <point x="103" y="196"/>
      <point x="88" y="209"/>
      <point x="88" y="225" type="curve" smooth="yes"/>
      <point x="88" y="271"/>
      <point x="146" y="315"/>
      <point x="196" y="315" type="curve" smooth="yes"/>
      <point x="204" y="315"/>
      <point x="214" y="312"/>
      <point x="224" y="306" type="curve"/>
      <point x="231" y="324" type="line"/>
      <point x="211" y="354"/>
      <point x="194" y="372"/>
      <point x="181" y="372" type="curve" smooth="yes"/>
      <point x="144" y="372" type="line" smooth="yes"/>
      <point x="81" y="372"/>
      <point x="24" y="328"/>
      <point x="24" y="276" type="curve" smooth="yes"/>
      <point x="24" y="212"/>
      <point x="106" y="136"/>
      <point x="169" y="136" type="curve" smooth="yes"/>
      <point x="197" y="136"/>
      <point x="225" y="149"/>
      <point x="247" y="171" type="curve"/>
      <point x="247" y="120" type="line" smooth="yes"/>
      <point x="247" y="60"/>
      <point x="414" y="-55"/>
      <point x="503" y="-55" type="curve" smooth="yes"/>
      <point x="526" y="-55"/>
      <point x="548" y="-44"/>
      <point x="564" y="-26" type="curve"/>
      <point x="490" y="18" type="line"/>
      <point x="477" y="1"/>
      <point x="461" y="-7"/>
      <point x="446" y="-7" type="curve" smooth="yes"/>
      <point x="407" y="-7"/>
      <point x="332" y="41"/>
      <point x="332" y="70" type="curve" smooth="yes"/>
      <point x="332" y="232" type="line"/>
      <point x="370" y="280"/>
      <point x="411" y="311"/>
      <point x="447" y="311" type="curve" smooth="yes"/>
      <point x="464" y="311"/>
      <point x="478" y="294"/>
      <point x="478" y="277" type="curve" smooth="yes"/>
      <point x="478" y="233"/>
      <point x="434" y="192"/>
      <point x="375" y="182" type="curve"/>
      <point x="425" y="118" type="line"/>
      <point x="485" y="124"/>
      <point x="539" y="174"/>
      <point x="539" y="227" type="curve" smooth="yes"/>
      <point x="539" y="286"/>
      <point x="462" y="370"/>
      <point x="403" y="370" type="curve" smooth="yes"/>
      <point x="380" y="370"/>
      <point x="354" y="354"/>
      <point x="332" y="331" type="curve"/>
      <point x="332" y="421" type="line"/>
      <point x="254" y="500" type="line"/>
    </contour>
    <contour>
      <point x="296" y="500" type="line"/>
      <point x="374" y="421" type="line"/>
      <point x="576" y="421" type="line"/>
      <point x="576" y="500" type="line"/>
    </contour>
    <contour>
      <point x="104" y="35" type="move" name="nukta"/>
    </contour>
    <contour>
      <point x="289" y="0" type="move" name="bottom"/>
    </contour>
    <contour>
      <point x="275" y="500" type="move" name="top"/>
    </contour>
  </outline>
</glyph>
<glyph name="gha-deva" format="1">
  <advance width="500"/>
  <unicode hex="0918"/>
  <outline>
    <contour>
      <point x="46" y="421" type="line"/>
      <point x="39" y="410"/>
      <point x="33" y="396"/>
      <point x="33" y="382" type="curve" smooth="yes"/>
      <point x="33" y="360"/>
      <point x="55" y="337"/>
      <point x="106" y="310" type="curve"/>
      <point x="73" y="294"/>
      <point x="51" y="270"/>
      <point x="51" y="246" type="curve" smooth="yes"/>
      <point x="51" y="172"/>
      <point x="143" y="103"/>
      <point x="230" y="103" type="curve" smooth="yes"/>
      <point x="274" y="103"/>
      <point x="316" y="124"/>
      <point x="343" y="161" type="curve"/>
      <point x="343" y="120" type="line" smooth="yes"/>
      <point x="343" y="60"/>
      <point x="509" y="-55"/>
      <point x="599" y="-55" type="curve" smooth="yes"/>
      <point x="622" y="-55"/>
      <point x="643" y="-44"/>
      <point x="659" y="-26" type="curve"/>
      <point x="585" y="18" type="line"/>
      <point x="572" y="1"/>
      <point x="557" y="-7"/>
      <point x="541" y="-7" type="curve" smooth="yes"/>
      <point x="502" y="-7"/>
      <point x="428" y="41"/>
      <point x="428" y="70" type="curve" smooth="yes"/>
      <point x="428" y="421" type="line"/>
      <point x="348" y="500" type="line"/>
      <point x="-10" y="500" type="line"/>
      <point x="-10" y="421" type="line"/>
    </contour>
    <contour>
      <point x="137" y="153"/>
      <point x="114" y="170"/>
      <point x="114" y="192" type="curve" smooth="yes"/>
      <point x="114" y="233"/>
      <point x="173" y="271"/>
      <point x="232" y="271" type="curve"/>
      <point x="185" y="334" type="line"/>
      <point x="170" y="334"/>
      <point x="153" y="329"/>
      <point x="133" y="321" type="curve"/>
      <point x="117" y="331"/>
      <point x="105" y="345"/>
      <point x="105" y="362" type="curve" smooth="yes"/>
      <point x="105" y="380"/>
      <point x="119" y="402"/>
      <point x="141" y="421" type="curve"/>
      <point x="343" y="421" type="line"/>
      <point x="343" y="271" type="line"/>
      <point x="294" y="198"/>
      <point x="227" y="153"/>
      <point x="162" y="153" type="curve" smooth="yes"/>
    </contour>
    <contour>
      <point x="509" y="421" type="line"/>
      <point x="509" y="500" type="line"/>
      <point x="391" y="500" type="line"/>
      <point x="470" y="421" type="line"/>
    </contour>
    <contour>
      <point x="177" y="15" type="move" name="nukta"/>
    </contour>
    <contour>
      <point x="385" y="0" type="move" name="bottom"/>
    </contour>
    <contour>
      <point x="369" y="500" type="move" name="top"/>
    </contour>
  </outline>
</glyph>
<glyph name="nga-deva" format="1">
  <advance width="533"/>
  <unicode hex="0919"/>
  <outline>
    <contour>
      <point x="298" y="421" type="line"/>
      <point x="311" y="409"/>
      <point x="319" y="393"/>
      <point x="319" y="384" type="curve" smooth="yes"/>
      <point x="319" y="374"/>
      <point x="306" y="366"/>
      <point x="291" y="366" type="curve" smooth="yes"/>
      <point x="180" y="366" type="line" smooth="yes"/>
      <point x="134" y="366"/>
      <point x="92" y="334"/>
      <point x="92" y="293" type="curve" smooth="yes"/>
      <point x="92" y="232"/>
      <point x="198" y="152"/>
      <point x="270" y="152" type="curve" smooth="yes"/>
      <point x="314" y="152"/>
      <point x="339" y="191"/>
      <point x="361" y="191" type="curve" smooth="yes"/>
      <point x="377" y="191"/>
      <point x="388" y="177"/>
      <point x="388" y="160" type="curve" smooth="yes"/>
      <point x="388" y="113"/>
      <point x="314" y="65"/>
      <point x="246" y="65" type="curve" smooth="yes"/>
      <point x="161" y="65"/>
      <point x="81" y="134"/>
      <point x="43" y="227" type="curve"/>
      <point x="17" y="211" type="line"/>
      <point x="70" y="84"/>
      <point x="183" y="-1"/>
      <point x="300" y="-1" type="curve" smooth="yes"/>
      <point x="380" y="-1"/>
      <point x="452" y="46"/>
      <point x="452" y="109" type="curve" smooth="yes"/>
      <point x="452" y="167"/>
      <point x="371" y="246"/>
      <point x="314" y="246" type="curve" smooth="yes"/>
      <point x="271" y="246"/>
      <point x="243" y="204"/>
      <point x="207" y="204" type="curve" smooth="yes"/>
      <point x="183" y="204"/>
      <point x="164" y="220"/>
      <point x="164" y="239" type="curve" smooth="yes"/>
      <point x="164" y="272"/>
      <point x="196" y="298"/>
      <point x="235" y="298" type="curve" smooth="yes"/>
      <point x="315" y="298" type="line" smooth="yes"/>
      <point x="345" y="298"/>
      <point x="372" y="316"/>
      <point x="372" y="342" type="curve" smooth="yes"/>
      <point x="372" y="362"/>
      <point x="358" y="391"/>
      <point x="337" y="421" type="curve"/>
      <point x="269" y="500" type="line"/>
      <point x="-10" y="500" type="line"/>
      <point x="-10" y="421" type="line"/>
    </contour>
    <contour>
      <point x="520" y="280" type="line"/>
      <point x="457" y="338" type="line"/>
      <point x="394" y="280" type="line"/>
      <point x="457" y="222" type="line"/>
    </contour>
    <contour>
      <point x="544" y="421" type="line"/>
      <point x="544" y="500" type="line"/>
      <point x="311" y="500" type="line"/>
      <point x="378" y="421" type="line"/>
    </contour>
    <contour>
      <point x="300" y="-139" type="move" name="nukta"/>
    </contour>
    <contour>
      <point x="300" y="-9" type="move" name="bottom"/>
    </contour>
    <contour>
      <point x="289" y="500" type="move" name="top"/>
    </contour>
  </outline>
</glyph>
<glyph name="ja-deva" format="1">
  <advance width="622"/>
  <unicode hex="091C"/>
  <outline>
    <contour>
      <point x="-10" y="500" type="line"/>
      <point x="-10" y="421" type="line"/>
      <point x="463" y="421" type="line"/>
      <point x="463" y="357" type="line"/>
      <point x="258" y="357" type="line" smooth="yes"/>
      <point x="233" y="357"/>
      <point x="209" y="340"/>
      <point x="209" y="321" type="curve" smooth="yes"/>
      <point x="209" y="271"/>
      <point x="313" y="246"/>
      <point x="313" y="199" type="curve" smooth="yes"/>
      <point x="313" y="165"/>
      <point x="278" y="137"/>
      <point x="239" y="137" type="curve" smooth="yes"/>
      <point x="168" y="137"/>
      <point x="101" y="220"/>
      <point x="66" y="320" type="curve"/>
      <point x="34" y="308" type="line"/>
      <point x="86" y="164"/>
      <point x="190" y="66"/>
      <point x="292" y="66" type="curve" smooth="yes"/>
      <point x="349" y="66"/>
      <point x="396" y="107"/>
      <point x="396" y="155" type="curve" smooth="yes"/>
      <point x="396" y="228"/>
      <point x="300" y="256"/>
      <point x="300" y="275" type="curve" smooth="yes"/>
      <point x="300" y="282"/>
      <point x="308" y="289"/>
      <point x="319" y="289" type="curve" smooth="yes"/>
      <point x="463" y="289" type="line"/>
      <point x="463" y="120" type="line" smooth="yes"/>
      <point x="463" y="60"/>
      <point x="630" y="-55"/>
      <point x="720" y="-55" type="curve" smooth="yes"/>
      <point x="742" y="-55"/>
      <point x="764" y="-44"/>
      <point x="780" y="-26" type="curve"/>
      <point x="706" y="18" type="line"/>
      <point x="693" y="1"/>
      <point x="677" y="-7"/>
      <point x="662" y="-7" type="curve" smooth="yes"/>
      <point x="623" y="-7"/>
      <point x="548" y="41"/>
      <point x="548" y="70" type="curve" smooth="yes"/>
      <point x="548" y="421" type="line"/>
      <point x="469" y="500" type="line"/>
    </contour>
    <contour>
      <point x="511" y="500" type="line"/>
      <point x="590" y="421" type="line"/>
      <point x="632" y="421" type="line"/>
      <point x="632" y="500" type="line"/>
    </contour>
    <contour>
      <point x="100" y="35" type="move" name="nukta"/>
    </contour>
    <contour>
      <point x="506" y="0" type="move" name="bottom"/>
    </contour>
    <contour>
      <point x="490" y="500" type="move" name="top"/>
    </contour>
  </outline>
</glyph>
<glyph name="nya-deva" format="1">
  <advance width="565"/>
  <unicode hex="091E"/>
  <outline>
    <contour>
      <point x="408" y="421" type="line"/>
      <point x="408" y="297" type="line"/>
      <point x="390" y="267"/>
      <point x="363" y="250"/>
      <point x="339" y="250" type="curve" smooth="yes"/>
      <point x="285" y="250"/>
      <point x="250" y="374"/>
      <point x="137" y="374" type="curve" smooth="yes"/>
      <point x="103" y="374"/>
      <point x="65" y="356"/>
      <point x="33" y="327" type="curve"/>
      <point x="104" y="260" type="line"/>
      <point x="128" y="292"/>
      <point x="164" y="313"/>
      <point x="197" y="313" type="curve" smooth="yes"/>
      <point x="225" y="313"/>
      <point x="249" y="288"/>
      <point x="249" y="256" type="curve" smooth="yes"/>
      <point x="249" y="200"/>
      <point x="201" y="150"/>
      <point x="148" y="150" type="curve" smooth="yes"/>
      <point x="110" y="150"/>
      <point x="70" y="177"/>
      <point x="48" y="224" type="curve"/>
      <point x="22" y="210" type="line"/>
      <point x="68" y="131"/>
      <point x="140" y="80"/>
      <point x="209" y="80" type="curve" smooth="yes"/>
      <point x="269" y="80"/>
      <point x="317" y="128"/>
      <point x="317" y="185" type="curve" smooth="yes"/>
      <point x="317" y="199"/>
      <point x="314" y="213"/>
      <point x="309" y="227" type="curve"/>
      <point x="333" y="198"/>
      <point x="354" y="180"/>
      <point x="377" y="180" type="curve" smooth="yes"/>
      <point x="386" y="180"/>
      <point x="396" y="184"/>
      <point x="408" y="193" type="curve"/>
      <point x="408" y="120" type="line" smooth="yes"/>
      <point x="408" y="60"/>
      <point x="574" y="-55"/>
      <point x="664" y="-55" type="curve" smooth="yes"/>
      <point x="687" y="-55"/>
      <point x="709" y="-44"/>
      <point x="725" y="-26" type="curve"/>
      <point x="651" y="18" type="line"/>
      <point x="640" y="1"/>
      <point x="623" y="-7"/>
      <point x="607" y="-7" type="curve" smooth="yes"/>
      <point x="568" y="-7"/>
      <point x="493" y="41"/>
      <point x="493" y="70" type="curve" smooth="yes"/>
      <point x="493" y="421" type="line"/>
      <point x="414" y="500" type="line"/>
      <point x="-10" y="500" type="line"/>
      <point x="-10" y="421" type="line"/>
    </contour>
    <contour>
      <point x="576" y="421" type="line"/>
      <point x="576" y="500" type="line"/>
      <point x="456" y="500" type="line"/>
      <point x="535" y="421" type="line"/>
    </contour>
    <contour>
      <point x="154" y="0" type="move" name="nukta"/>
    </contour>
    <contour>
      <point x="451" y="0" type="move" name="bottom"/>
    </contour>
    <contour>
      <point x="435" y="500" type="move" name="top"/>
    </contour>
  </outline>
</glyph>
<glyph name="tta-deva" format="1">
  <advance width="433"/>
  <unicode hex="091F"/>
  <outline>
    <contour>
      <point x="262" y="421" type="line"/>
      <point x="282" y="403"/>
      <point x="296" y="380"/>
      <point x="296" y="359" type="curve" smooth="yes"/>
      <point x="296" y="288"/>
      <point x="33" y="354"/>
      <point x="33" y="206" type="curve" smooth="yes"/>
      <point x="33" y="101"/>
      <point x="154" y="0"/>
      <point x="269" y="0" type="curve" smooth="yes"/>
      <point x="328" y="0"/>
      <point x="385" y="23"/>
      <point x="423" y="65" type="curve"/>
      <point x="357" y="129" type="line"/>
      <point x="320" y="85"/>
      <point x="260" y="58"/>
      <point x="201" y="58" type="curve" smooth="yes"/>
      <point x="147" y="58"/>
      <point x="95" y="100"/>
      <point x="95" y="145" type="curve" smooth="yes"/>
      <point x="95" y="275"/>
      <point x="357" y="202"/>
      <point x="357" y="307" type="curve" smooth="yes"/>
      <point x="357" y="337"/>
      <point x="336" y="380"/>
      <point x="301" y="421" type="curve" smooth="yes"/>
      <point x="230" y="500" type="line"/>
      <point x="-10" y="500" type="line"/>
      <point x="-10" y="421" type="line"/>
    </contour>
    <contour>
      <point x="442" y="421" type="line"/>
      <point x="442" y="500" type="line"/>
      <point x="271" y="500" type="line"/>
      <point x="342" y="421" type="line"/>
    </contour>
    <contour>
      <point x="239" y="-120" type="move" name="nukta"/>
    </contour>
    <contour>
      <point x="261" y="0" type="move" name="bottom"/>
    </contour>
    <contour>
      <point x="251" y="500" type="move" name="top"/>
    </contour>
  </outline>
</glyph>
<glyph name="ttha-deva" format="1">
  <advance width="479"/>
  <unicode hex="0920"/>
  <outline>
    <contour>
      <point x="268" y="421" type="line"/>
      <point x="287" y="402"/>
      <point x="298" y="381"/>
      <point x="298" y="362" type="curve" smooth="yes"/>
      <point x="298" y="295"/>
      <point x="33" y="361"/>
      <point x="33" y="198" type="curve" smooth="yes"/>
      <point x="33" y="105"/>
      <point x="150" y="-3"/>
      <point x="267" y="-3" type="curve" smooth="yes"/>
      <point x="365" y="-3"/>
      <point x="447" y="68"/>
      <point x="447" y="155" type="curve" smooth="yes"/>
      <point x="447" y="209"/>
      <point x="392" y="274"/>
      <point x="344" y="274" type="curve" smooth="yes"/>
      <point x="334" y="274"/>
      <point x="326" y="272"/>
      <point x="320" y="269" type="curve"/>
      <point x="318" y="271" type="line"/>
      <point x="341" y="284"/>
      <point x="356" y="304"/>
      <point x="356" y="325" type="curve" smooth="yes"/>
      <point x="355" y="348"/>
      <point x="340" y="384"/>
      <point x="308" y="421" type="curve" smooth="yes"/>
      <point x="239" y="500" type="line"/>
      <point x="-10" y="500" type="line"/>
      <point x="-10" y="421" type="line"/>
    </contour>
    <contour>
      <point x="148" y="55"/>
      <point x="104" y="90"/>
      <point x="104" y="135" type="curve" smooth="yes"/>
      <point x="104" y="247"/>
      <point x="212" y="228"/>
      <point x="280" y="253" type="curve"/>
      <point x="282" y="251" type="line"/>
      <point x="261" y="238"/>
      <point x="244" y="218"/>
      <point x="236" y="193" type="curve"/>
      <point x="304" y="157" type="line"/>
      <point x="312" y="200"/>
      <point x="334" y="235"/>
      <point x="358" y="235" type="curve" smooth="yes"/>
      <point x="372" y="235"/>
      <point x="383" y="221"/>
      <point x="383" y="205" type="curve" smooth="yes"/>
      <point x="383" y="132"/>
      <point x="286" y="55"/>
      <point x="199" y="55" type="curve" smooth="yes"/>
    </contour>
    <contour>
      <point x="489" y="421" type="line"/>
      <point x="489" y="500" type="line"/>
      <point x="284" y="500" type="line"/>
      <point x="349" y="421" type="line"/>
    </contour>
    <contour>
      <point x="246" y="-120" type="move" name="nukta"/>
    </contour>
    <contour>
      <point x="279" y="0" type="move" name="bottom"/>
    </contour>
    <contour>
      <point x="260" y="500" type="move" name="top"/>
    </contour>
  </outline>
</glyph>
<glyph name="ddha-deva" format="1">
  <advance width="450"/>
  <unicode hex="0922"/>
  <outline>
    <contour>
      <point x="291" y="421" type="line"/>
      <point x="308" y="401"/>
      <point x="317" y="384"/>
      <point x="317" y="369" type="curve" smooth="yes"/>
      <point x="317" y="356"/>
      <point x="307" y="346"/>
      <point x="292" y="346" type="curve" smooth="yes"/>
      <point x="161" y="343" type="line" smooth="yes"/>
      <point x="94" y="342"/>
      <point x="38" y="293"/>
      <point x="38" y="232" type="curve" smooth="yes"/>
      <point x="38" y="110"/>
      <point x="144" y="-5"/>
      <point x="280" y="-5" type="curve" smooth="yes"/>
      <point x="355" y="-5"/>
      <point x="426" y="49"/>
      <point x="426" y="109" type="curve" smooth="yes"/>
      <point x="426" y="162"/>
      <point x="361" y="222"/>
      <point x="304" y="222" type="curve" smooth="yes"/>
      <point x="255" y="222"/>
      <point x="209" y="180"/>
      <point x="209" y="135" type="curve" smooth="yes"/>
      <point x="209" y="106"/>
      <point x="236" y="76"/>
      <point x="275" y="55" type="curve"/>
      <point x="263" y="49"/>
      <point x="245" y="46"/>
      <point x="222" y="46" type="curve" smooth="yes"/>
      <point x="160" y="46"/>
      <point x="102" y="104"/>
      <point x="102" y="167" type="curve" smooth="yes"/>
      <point x="102" y="224"/>
      <point x="150" y="270"/>
      <point x="207" y="272" type="curve" smooth="yes"/>
      <point x="307" y="275" type="line" smooth="yes"/>
      <point x="338" y="276"/>
      <point x="365" y="297"/>
      <point x="365" y="325" type="curve" smooth="yes"/>
      <point x="365" y="358"/>
      <point x="350" y="393"/>
      <point x="325" y="421" type="curve" smooth="yes"/>
      <point x="253" y="500" type="line"/>
      <point x="-10" y="500" type="line"/>
      <point x="-10" y="421" type="line"/>
    </contour>
    <contour>
      <point x="284" y="74"/>
      <point x="277" y="85"/>
      <point x="277" y="95" type="curve" smooth="yes"/>
      <point x="277" y="128"/>
      <point x="317" y="169"/>
      <point x="349" y="169" type="curve" smooth="yes"/>
      <point x="359" y="169"/>
      <point x="368" y="160"/>
      <point x="368" y="151" type="curve" smooth="yes"/>
      <point x="368" y="124"/>
      <point x="339" y="94"/>
      <point x="297" y="68" type="curve"/>
    </contour>
    <contour>
      <point x="460" y="421" type="line"/>
      <point x="460" y="500" type="line"/>
      <point x="295" y="500" type="line"/>
      <point x="366" y="421" type="line"/>
    </contour>
    <contour>
      <point x="253" y="-120" type="move" name="nukta"/>
    </contour>
    <contour>
      <point x="268" y="0" type="move" name="bottom"/>
    </contour>
    <contour>
      <point x="274" y="500" type="move" name="top"/>
    </contour>
  </outline>
</glyph>
<glyph name="nna-deva" format="1">
  <advance width="589"/>
  <unicode hex="0923"/>
  <outline>
    <contour>
      <point x="428" y="421" type="line"/>
      <point x="428" y="120" type="line" smooth="yes"/>
      <point x="428" y="60"/>
      <point x="595" y="-55"/>
      <point x="685" y="-55" type="curve" smooth="yes"/>
      <point x="707" y="-55"/>
      <point x="729" y="-44"/>
      <point x="745" y="-26" type="curve"/>
      <point x="671" y="18" type="line"/>
      <point x="660" y="1"/>
      <point x="643" y="-7"/>
      <point x="627" y="-7" type="curve" smooth="yes"/>
      <point x="588" y="-7"/>
      <point x="513" y="41"/>
      <point x="513" y="70" type="curve" smooth="yes"/>
      <point x="513" y="421" type="line"/>
      <point x="434" y="500" type="line"/>
      <point x="-10" y="500" type="line"/>
      <point x="-10" y="421" type="line"/>
      <point x="56" y="421" type="line"/>
      <point x="43" y="388"/>
      <point x="37" y="348"/>
      <point x="37" y="303" type="curve" smooth="yes"/>
      <point x="37" y="242"/>
      <point x="147" y="131"/>
      <point x="219" y="131" type="curve" smooth="yes"/>
      <point x="271" y="131"/>
      <point x="322" y="195"/>
      <point x="322" y="261" type="curve" smooth="yes"/>
      <point x="322" y="312"/>
      <point x="302" y="366"/>
      <point x="264" y="421" type="curve"/>
    </contour>
    <contour>
      <point x="596" y="421" type="line"/>
      <point x="596" y="500" type="line"/>
      <point x="476" y="500" type="line"/>
      <point x="555" y="421" type="line"/>
    </contour>
    <contour>
      <point x="142" y="191"/>
      <point x="117" y="220"/>
      <point x="117" y="245" type="curve" smooth="yes"/>
      <point x="117" y="314"/>
      <point x="127" y="373"/>
      <point x="147" y="421" type="curve"/>
      <point x="218" y="421" type="line"/>
      <point x="240" y="390"/>
      <point x="251" y="355"/>
      <point x="251" y="323" type="curve" smooth="yes"/>
      <point x="251" y="264"/>
      <point x="206" y="191"/>
      <point x="166" y="191" type="curve" smooth="yes"/>
    </contour>
    <contour>
      <point x="163" y="40" type="move" name="nukta"/>
    </contour>
    <contour>
      <point x="471" y="0" type="move" name="bottom"/>
    </contour>
    <contour>
      <point x="455" y="500" type="move" name="top"/>
    </contour>
  </outline>
</glyph>
<glyph name="tha-deva" format="1">
  <advance width="532"/>
  <unicode hex="0925"/>
  <outline>
    <contour>
      <point x="259" y="500" type="line"/>
      <point x="322" y="421" type="line"/>
      <point x="375" y="421" type="line"/>
      <point x="375" y="126" type="line" smooth="yes"/>
      <point x="375" y="55"/>
      <point x="550" y="-55"/>
      <point x="631" y="-55" type="curve" smooth="yes"/>
      <point x="655" y="-55"/>
      <point x="677" y="-45"/>
      <point x="692" y="-26" type="curve"/>
      <point x="618" y="19" type="line"/>
      <point x="605" y="3"/>
      <point x="589" y="-7"/>
      <point x="571" y="-7" type="curve" smooth="yes"/>
      <point x="534" y="-7"/>
      <point x="460" y="36"/>
      <point x="460" y="70" type="curve" smooth="yes"/>
      <point x="460" y="421" type="line"/>
      <point x="381" y="500" type="line"/>
    </contour>
    <contour>
      <point x="71" y="536"/>
      <point x="23" y="491"/>
      <point x="23" y="443" type="curve" smooth="yes"/>
      <point x="23" y="393"/>
      <point x="96" y="329"/>
      <point x="153" y="329" type="curve" smooth="yes"/>
      <point x="164" y="329"/>
      <point x="176" y="334"/>
      <point x="186" y="342" type="curve"/>
      <point x="188" y="340" type="line"/>
      <point x="176" y="311"/>
      <point x="137" y="292"/>
      <point x="92" y="292" type="curve" smooth="yes"/>
      <point x="65" y="292"/>
      <point x="43" y="296"/>
      <point x="26" y="305" type="curve"/>
      <point x="56" y="191"/>
      <point x="140" y="107"/>
      <point x="244" y="107" type="curve" smooth="yes"/>
      <point x="289" y="107"/>
      <point x="339" y="131"/>
      <point x="375" y="173" type="curve"/>
      <point x="375" y="291" type="line"/>
      <point x="329" y="217"/>
      <point x="256" y="170"/>
      <point x="185" y="170" type="curve" smooth="yes"/>
      <point x="143" y="170"/>
      <point x="105" y="196"/>
      <point x="87" y="235" type="curve"/>
      <point x="103" y="230"/>
      <point x="117" y="228"/>
      <point x="131" y="228" type="curve" smooth="yes"/>
      <point x="214" y="228"/>
      <point x="281" y="298"/>
      <point x="281" y="384" type="curve" smooth="yes"/>
      <point x="281" y="454"/>
      <point x="198" y="536"/>
      <point x="124" y="536" type="curve" smooth="yes"/>
    </contour>
    <contour>
      <point x="192" y="485"/>
      <point x="205" y="471"/>
      <point x="205" y="455" type="curve" smooth="yes"/>
      <point x="205" y="416"/>
      <point x="163" y="371"/>
      <point x="129" y="371" type="curve" smooth="yes"/>
      <point x="110" y="371"/>
      <point x="95" y="385"/>
      <point x="95" y="403" type="curve" smooth="yes"/>
      <point x="95" y="439"/>
      <point x="138" y="485"/>
      <point x="173" y="485" type="curve" smooth="yes"/>
    </contour>
    <contour>
      <point x="423" y="500" type="line"/>
      <point x="502" y="421" type="line"/>
      <point x="543" y="421" type="line"/>
      <point x="543" y="500" type="line"/>
    </contour>
    <contour>
      <point x="112" y="39" type="move" name="nukta"/>
    </contour>
    <contour>
      <point x="418" y="0" type="move" name="bottom"/>
    </contour>
    <contour>
      <point x="402" y="500" type="move" name="top"/>
    </contour>
  </outline>
</glyph>
<glyph name="na-deva" format="1">
  <advance width="510"/>
  <unicode hex="0928"/>
  <outline>
    <contour>
      <point x="352" y="421" type="line"/>
      <point x="352" y="261" type="line"/>
      <point x="299" y="318"/>
      <point x="235" y="354"/>
      <point x="172" y="354" type="curve" smooth="yes"/>
      <point x="97" y="354"/>
      <point x="32" y="304"/>
      <point x="32" y="246" type="curve" smooth="yes"/>
      <point x="32" y="173"/>
      <point x="129" y="71"/>
      <point x="202" y="71" type="curve" smooth="yes"/>
      <point x="243" y="71"/>
      <point x="280" y="102"/>
      <point x="280" y="144" type="curve" smooth="yes"/>
      <point x="280" y="181"/>
      <point x="247" y="229"/>
      <point x="193" y="271" type="curve"/>
      <point x="201" y="274"/>
      <point x="210" y="276"/>
      <point x="228" y="276" type="curve" smooth="yes"/>
      <point x="273" y="276"/>
      <point x="315" y="256"/>
      <point x="352" y="222" type="curve"/>
      <point x="352" y="126" type="line" smooth="yes"/>
      <point x="352" y="55"/>
      <point x="524" y="-55"/>
      <point x="609" y="-55" type="curve" smooth="yes"/>
      <point x="633" y="-55"/>
      <point x="654" y="-44"/>
      <point x="669" y="-26" type="curve"/>
      <point x="595" y="19" type="line"/>
      <point x="582" y="2"/>
      <point x="566" y="-7"/>
      <point x="548" y="-7" type="curve" smooth="yes"/>
      <point x="510" y="-7"/>
      <point x="437" y="41"/>
      <point x="437" y="70" type="curve" smooth="yes"/>
      <point x="437" y="421" type="line"/>
      <point x="358" y="500" type="line"/>
      <point x="-10" y="500" type="line"/>
      <point x="-10" y="421" type="line"/>
    </contour>
    <contour>
      <point x="115" y="138"/>
      <point x="92" y="161"/>
      <point x="92" y="184" type="curve" smooth="yes"/>
      <point x="92" y="214"/>
      <point x="122" y="246"/>
      <point x="167" y="262" type="curve"/>
      <point x="193" y="240"/>
      <point x="209" y="216"/>
      <point x="209" y="198" type="curve" smooth="yes"/>
      <point x="209" y="164"/>
      <point x="175" y="138"/>
      <point x="138" y="138" type="curve" smooth="yes"/>
    </contour>
    <contour>
      <point x="520" y="421" type="line"/>
      <point x="520" y="500" type="line"/>
      <point x="400" y="500" type="line"/>
      <point x="479" y="421" type="line"/>
    </contour>
    <contour>
      <point x="156" y="-18" type="move" name="nukta"/>
    </contour>
    <contour>
      <point x="395" y="0" type="move" name="bottom"/>
    </contour>
    <contour>
      <point x="379" y="500" type="move" name="top"/>
    </contour>
  </outline>
</glyph>
<glyph name="pa-deva" format="1">
  <advance width="448"/>
  <unicode hex="092A"/>
  <outline>
    <contour>
      <point x="39" y="421" type="line"/>
      <point x="39" y="289" type="line" smooth="yes"/>
      <point x="39" y="238"/>
      <point x="150" y="146"/>
      <point x="223" y="146" type="curve" smooth="yes"/>
      <point x="245" y="146"/>
      <point x="270" y="157"/>
      <point x="291" y="178" type="curve"/>
      <point x="291" y="120" type="line" smooth="yes"/>
      <point x="291" y="60"/>
      <point x="457" y="-55"/>
      <point x="547" y="-55" type="curve" smooth="yes"/>
      <point x="570" y="-55"/>
      <point x="591" y="-44"/>
      <point x="607" y="-26" type="curve"/>
      <point x="533" y="18" type="line"/>
      <point x="522" y="1"/>
      <point x="506" y="-7"/>
      <point x="489" y="-7" type="curve" smooth="yes"/>
      <point x="451" y="-7"/>
      <point x="376" y="41"/>
      <point x="376" y="70" type="curve" smooth="yes"/>
      <point x="376" y="421" type="line"/>
      <point x="297" y="500" type="line"/>
      <point x="-10" y="500" type="line"/>
      <point x="-10" y="421" type="line"/>
    </contour>
    <contour>
      <point x="144" y="198"/>
      <point x="124" y="216"/>
      <point x="124" y="238" type="curve" smooth="yes"/>
      <point x="124" y="421" type="line"/>
      <point x="291" y="421" type="line"/>
      <point x="291" y="285" type="line"/>
      <point x="253" y="230"/>
      <point x="206" y="198"/>
      <point x="168" y="198" type="curve" smooth="yes"/>
    </contour>
    <contour>
      <point x="458" y="421" type="line"/>
      <point x="458" y="500" type="line"/>
      <point x="341" y="500" type="line"/>
      <point x="417" y="421" type="line"/>
    </contour>
    <contour>
      <point x="94" y="43" type="move" name="nukta"/>
    </contour>
    <contour>
      <point x="333" y="0" type="move" name="bottom"/>
    </contour>
    <contour>
      <point x="317" y="500" type="move" name="top"/>
    </contour>
  </outline>
</glyph>
<glyph name="bha-deva" format="1">
  <advance width="538"/>
  <unicode hex="092D"/>
  <outline>
    <contour>
      <point x="1" y="428"/>
      <point x="52" y="378"/>
      <point x="128" y="348" type="curve"/>
      <point x="142" y="372" type="line"/>
      <point x="104" y="389"/>
      <point x="78" y="414"/>
      <point x="78" y="435" type="curve" smooth="yes"/>
      <point x="78" y="467"/>
      <point x="110" y="508"/>
      <point x="136" y="508" type="curve" smooth="yes"/>
      <point x="149" y="508"/>
      <point x="159" y="495"/>
      <point x="159" y="479" type="curve" smooth="yes"/>
      <point x="159" y="274" type="line"/>
      <point x="105" y="274" type="line" smooth="yes"/>
      <point x="93" y="274"/>
      <point x="84" y="266"/>
      <point x="84" y="256" type="curve" smooth="yes"/>
      <point x="84" y="220"/>
      <point x="189" y="124"/>
      <point x="226" y="124" type="curve" smooth="yes"/>
      <point x="236" y="124"/>
      <point x="244" y="132"/>
      <point x="244" y="142" type="curve" smooth="yes"/>
      <point x="244" y="200" type="line"/>
      <point x="381" y="200" type="line"/>
      <point x="381" y="120" type="line" smooth="yes"/>
      <point x="381" y="60"/>
      <point x="547" y="-55"/>
      <point x="637" y="-55" type="curve" smooth="yes"/>
      <point x="660" y="-55"/>
      <point x="681" y="-44"/>
      <point x="697" y="-26" type="curve"/>
      <point x="623" y="18" type="line"/>
      <point x="612" y="1"/>
      <point x="595" y="-7"/>
      <point x="579" y="-7" type="curve" smooth="yes"/>
      <point x="541" y="-7"/>
      <point x="466" y="41"/>
      <point x="466" y="70" type="curve" smooth="yes"/>
      <point x="466" y="421" type="line"/>
      <point x="386" y="500" type="line"/>
      <point x="252" y="500" type="line"/>
      <point x="308" y="421" type="line"/>
      <point x="381" y="421" type="line"/>
      <point x="381" y="274" type="line"/>
      <point x="244" y="274" type="line"/>
      <point x="244" y="420" type="line" smooth="yes"/>
      <point x="244" y="478"/>
      <point x="148" y="568"/>
      <point x="88" y="568" type="curve" smooth="yes"/>
      <point x="41" y="568"/>
      <point x="1" y="522"/>
      <point x="1" y="474" type="curve" smooth="yes"/>
    </contour>
    <contour>
      <point x="548" y="421" type="line"/>
      <point x="548" y="500" type="line"/>
      <point x="428" y="500" type="line"/>
      <point x="507" y="421" type="line"/>
    </contour>
    <contour>
      <point x="202" y="14" type="move" name="nukta"/>
    </contour>
    <contour>
      <point x="413" y="0" type="move" name="bottom"/>
    </contour>
    <contour>
      <point x="407" y="500" type="move" name="top"/>
    </contour>
  </outline>
</glyph>
<glyph name="ya-deva" format="1">
  <advance width="479"/>
  <unicode hex="092F"/>
  <outline>
    <contour>
      <point x="148" y="500" type="line"/>
      <point x="224" y="421" type="line"/>
      <point x="322" y="421" type="line"/>
      <point x="322" y="267" type="line"/>
      <point x="286" y="217"/>
      <point x="231" y="186"/>
      <point x="173" y="186" type="curve" smooth="yes"/>
      <point x="131" y="186"/>
      <point x="96" y="212"/>
      <point x="83" y="248" type="curve"/>
      <point x="163" y="248"/>
      <point x="214" y="282"/>
      <point x="214" y="334" type="curve" smooth="yes"/>
      <point x="214" y="361"/>
      <point x="208" y="394"/>
      <point x="182" y="421" type="curve" smooth="yes"/>
      <point x="106" y="500" type="line"/>
      <point x="-10" y="500" type="line"/>
      <point x="-10" y="421" type="line"/>
      <point x="134" y="421" type="line" smooth="yes"/>
      <point x="157" y="421"/>
      <point x="168" y="403"/>
      <point x="168" y="383" type="curve" smooth="yes"/>
      <point x="168" y="350"/>
      <point x="121" y="324"/>
      <point x="75" y="324" type="curve" smooth="yes"/>
      <point x="57" y="324"/>
      <point x="42" y="327"/>
      <point x="32" y="333" type="curve"/>
      <point x="20" y="324" type="line"/>
      <point x="48" y="206"/>
      <point x="133" y="120"/>
      <point x="226" y="120" type="curve" smooth="yes"/>
      <point x="259" y="120"/>
      <point x="294" y="133"/>
      <point x="322" y="159" type="curve"/>
      <point x="322" y="120" type="line" smooth="yes"/>
      <point x="322" y="60"/>
      <point x="488" y="-55"/>
      <point x="578" y="-55" type="curve" smooth="yes"/>
      <point x="601" y="-55"/>
      <point x="623" y="-44"/>
      <point x="639" y="-26" type="curve"/>
      <point x="564" y="18" type="line"/>
      <point x="553" y="2"/>
      <point x="538" y="-7"/>
      <point x="521" y="-7" type="curve" smooth="yes"/>
      <point x="482" y="-7"/>
      <point x="407" y="41"/>
      <point x="407" y="70" type="curve" smooth="yes"/>
      <point x="407" y="421" type="line"/>
      <point x="328" y="500" type="line"/>
    </contour>
    <contour>
      <point x="369" y="500" type="line"/>
      <point x="448" y="421" type="line"/>
      <point x="489" y="421" type="line"/>
      <point x="489" y="500" type="line"/>
    </contour>
    <contour>
      <point x="121" y="14" type="move" name="nukta"/>
    </contour>
    <contour>
      <point x="354" y="0" type="move" name="bottom"/>
    </contour>
    <contour>
      <point x="349" y="500" type="move" name="top"/>
    </contour>
  </outline>
</glyph>
<glyph name="la-deva" format="1">
  <advance width="566"/>
  <unicode hex="0932"/>
  <outline>
    <contour>
      <point x="409" y="421" type="line"/>
      <point x="409" y="303" type="line"/>
      <point x="375" y="335"/>
      <point x="343" y="350"/>
      <point x="321" y="350" type="curve" smooth="yes"/>
      <point x="291" y="350"/>
      <point x="259" y="321"/>
      <point x="246" y="279" type="curve"/>
      <point x="214" y="326"/>
      <point x="171" y="355"/>
      <point x="135" y="355" type="curve" smooth="yes"/>
      <point x="86" y="355"/>
      <point x="39" y="298"/>
      <point x="39" y="232" type="curve" smooth="yes"/>
      <point x="39" y="117"/>
      <point x="195" y="-40"/>
      <point x="310" y="-40" type="curve" smooth="yes"/>
      <point x="332" y="-40"/>
      <point x="355" y="-31"/>
      <point x="371" y="-14" type="curve"/>
      <point x="315" y="39" type="line"/>
      <point x="301" y="23"/>
      <point x="280" y="13"/>
      <point x="259" y="13" type="curve" smooth="yes"/>
      <point x="199" y="13"/>
      <point x="108" y="106"/>
      <point x="108" y="171" type="curve" smooth="yes"/>
      <point x="108" y="227"/>
      <point x="144" y="281"/>
      <point x="187" y="281" type="curve" smooth="yes"/>
      <point x="203" y="281"/>
      <point x="222" y="269"/>
      <point x="234" y="248" type="curve"/>
      <point x="231" y="227"/>
      <point x="229" y="208"/>
      <point x="229" y="190" type="curve"/>
      <point x="307" y="157" type="line"/>
      <point x="307" y="251"/>
      <point x="335" y="286"/>
      <point x="371" y="286" type="curve" smooth="yes"/>
      <point x="382" y="286"/>
      <point x="396" y="278"/>
      <point x="409" y="262" type="curve"/>
      <point x="409" y="126" type="line" smooth="yes"/>
      <point x="409" y="55"/>
      <point x="586" y="-55"/>
      <point x="665" y="-55" type="curve" smooth="yes"/>
      <point x="690" y="-55"/>
      <point x="711" y="-44"/>
      <point x="726" y="-26" type="curve"/>
      <point x="651" y="19" type="line"/>
      <point x="638" y="2"/>
      <point x="623" y="-7"/>
      <point x="605" y="-7" type="curve" smooth="yes"/>
      <point x="566" y="-7"/>
      <point x="494" y="41"/>
      <point x="494" y="70" type="curve" smooth="yes"/>
      <point x="494" y="421" type="line"/>
      <point x="415" y="500" type="line"/>
      <point x="-10" y="500" type="line"/>
      <point x="-10" y="421" type="line"/>
    </contour>
    <contour>
      <point x="576" y="421" type="line"/>
      <point x="576" y="500" type="line"/>
      <point x="456" y="500" type="line"/>
      <point x="535" y="421" type="line"/>
    </contour>
    <contour>
      <point x="70" y="0" type="move" name="nukta"/>
    </contour>
    <contour>
      <point x="451" y="0" type="move" name="bottom"/>
    </contour>
    <contour>
      <point x="436" y="500" type="move" name="top"/>
    </contour>
  </outline>
</glyph>
<glyph name="va-deva" format="1">
  <advance width="449"/>
  <unicode hex="0935"/>
  <outline>
    <contour>
      <point x="-10" y="500" type="line"/>
      <point x="-10" y="421" type="line"/>
      <point x="292" y="421" type="line"/>
      <point x="292" y="311" type="line"/>
      <point x="258" y="353"/>
      <point x="208" y="377"/>
      <point x="159" y="377" type="curve" smooth="yes"/>
      <point x="92" y="377"/>
      <point x="30" y="328"/>
      <point x="30" y="272" type="curve" smooth="yes"/>
      <point x="30" y="201"/>
      <point x="124" y="111"/>
      <point x="216" y="111" type="curve" smooth="yes"/>
      <point x="245" y="111"/>
      <point x="273" y="125"/>
      <point x="295" y="147" type="curve"/>
      <point x="295" y="117" type="line" smooth="yes"/>
      <point x="295" y="69"/>
      <point x="452" y="-55"/>
      <point x="548" y="-55" type="curve" smooth="yes"/>
      <point x="573" y="-55"/>
      <point x="594" y="-44"/>
      <point x="609" y="-26" type="curve"/>
      <point x="534" y="19" type="line"/>
      <point x="522" y="2"/>
      <point x="506" y="-7"/>
      <point x="488" y="-7" type="curve" smooth="yes"/>
      <point x="450" y="-7"/>
      <point x="377" y="41"/>
      <point x="377" y="70" type="curve" smooth="yes"/>
      <point x="377" y="421" type="line"/>
      <point x="298" y="500" type="line"/>
    </contour>
    <contour>
      <point x="249" y="317"/>
      <point x="274" y="301"/>
      <point x="292" y="277" type="curve"/>
      <point x="292" y="243" type="line"/>
      <point x="259" y="197"/>
      <point x="204" y="171"/>
      <point x="150" y="171" type="curve" smooth="yes"/>
      <point x="121" y="171"/>
      <point x="96" y="191"/>
      <point x="96" y="215" type="curve" smooth="yes"/>
      <point x="96" y="264"/>
      <point x="165" y="317"/>
      <point x="227" y="317" type="curve" smooth="yes"/>
    </contour>
    <contour>
      <point x="339" y="500" type="line"/>
      <point x="418" y="421" type="line"/>
      <point x="459" y="421" type="line"/>
      <point x="459" y="500" type="line"/>
    </contour>
    <contour>
      <point x="77" y="39" type="move" name="nukta"/>
    </contour>
    <contour>
      <point x="337" y="0" type="move" name="bottom"/>
    </contour>
    <contour>
      <point x="319" y="500" type="move" name="top"/>
    </contour>
  </outline>
</glyph>
<glyph name="sa-deva" format="1">
  <advance width="556"/>
  <unicode hex="0938"/>
  <outline>
    <contour>
      <point x="204" y="500" type="line"/>
      <point x="274" y="421" type="line"/>
      <point x="399" y="421" type="line"/>
      <point x="399" y="126" type="line" smooth="yes"/>
      <point x="399" y="61"/>
      <point x="565" y="-55"/>
      <point x="655" y="-55" type="curve" smooth="yes"/>
      <point x="680" y="-55"/>
      <point x="701" y="-44"/>
      <point x="716" y="-26" type="curve"/>
      <point x="641" y="19" type="line"/>
      <point x="629" y="2"/>
      <point x="613" y="-7"/>
      <point x="595" y="-7" type="curve" smooth="yes"/>
      <point x="557" y="-7"/>
      <point x="484" y="41"/>
      <point x="484" y="70" type="curve" smooth="yes"/>
      <point x="484" y="421" type="line"/>
      <point x="405" y="500" type="line"/>
    </contour>
    <contour>
      <point x="141" y="294"/>
      <point x="159" y="281"/>
      <point x="164" y="264" type="curve"/>
      <point x="141" y="251"/>
      <point x="117" y="245"/>
      <point x="95" y="245" type="curve" smooth="yes"/>
      <point x="86" y="245"/>
      <point x="79" y="254"/>
      <point x="79" y="264" type="curve" smooth="yes"/>
      <point x="79" y="280"/>
      <point x="102" y="294"/>
      <point x="126" y="294" type="curve" smooth="yes"/>
    </contour>
    <contour>
      <point x="-10" y="500" type="line"/>
      <point x="-10" y="421" type="line"/>
      <point x="185" y="421" type="line"/>
      <point x="205" y="400"/>
      <point x="219" y="374"/>
      <point x="219" y="347" type="curve" smooth="yes"/>
      <point x="219" y="320"/>
      <point x="205" y="296"/>
      <point x="184" y="281" type="curve"/>
      <point x="166" y="329"/>
      <point x="129" y="362"/>
      <point x="94" y="362" type="curve" smooth="yes"/>
      <point x="60" y="362"/>
      <point x="28" y="339"/>
      <point x="28" y="306" type="curve" smooth="yes"/>
      <point x="28" y="216"/>
      <point x="253" y="-35"/>
      <point x="346" y="-35" type="curve" smooth="yes"/>
      <point x="371" y="-35"/>
      <point x="397" y="-26"/>
      <point x="411" y="-10" type="curve"/>
      <point x="350" y="50" type="line"/>
      <point x="338" y="34"/>
      <point x="323" y="24"/>
      <point x="308" y="24" type="curve" smooth="yes"/>
      <point x="267" y="24"/>
      <point x="200" y="82"/>
      <point x="130" y="177" type="curve"/>
      <point x="183" y="174"/>
      <point x="235" y="196"/>
      <point x="269" y="242" type="curve"/>
      <point x="303" y="215"/>
      <point x="337" y="200"/>
      <point x="363" y="200" type="curve" smooth="yes"/>
      <point x="375" y="200"/>
      <point x="389" y="203"/>
      <point x="405" y="209" type="curve"/>
      <point x="405" y="289" type="line"/>
      <point x="378" y="270"/>
      <point x="346" y="260"/>
      <point x="320" y="260" type="curve" smooth="yes"/>
      <point x="306" y="260"/>
      <point x="292" y="264"/>
      <point x="280" y="272" type="curve"/>
      <point x="284" y="284"/>
      <point x="286" y="295"/>
      <point x="286" y="306" type="curve" smooth="yes"/>
      <point x="286" y="340"/>
      <point x="266" y="384"/>
      <point x="232" y="421" type="curve" smooth="yes"/>
      <point x="162" y="500" type="line"/>
    </contour>
    <contour>
      <point x="446" y="500" type="line"/>
      <point x="525" y="421" type="line"/>
      <point x="566" y="421" type="line"/>
      <point x="566" y="500" type="line"/>
    </contour>
    <contour>
      <point x="101" y="12" type="move" name="nukta"/>
    </contour>
    <contour>
      <point x="444" y="0" type="move" name="bottom"/>
    </contour>
    <contour>
      <point x="425" y="500" type="move" name="top"/>
    </contour>
  </outline>
</glyph>
<glyph name="ha-deva" format="1">
  <advance width="418"/>
  <unicode hex="0939"/>
  <outline>
    <contour>
      <point x="251" y="421" type="line"/>
      <point x="270" y="402"/>
      <point x="278" y="391"/>
      <point x="278" y="383" type="curve" smooth="yes"/>
      <point x="278" y="374"/>
      <point x="270" y="368"/>
      <point x="261" y="368" type="curve" smooth="yes"/>
      <point x="223" y="369"/>
      <point x="161" y="373"/>
      <point x="121" y="373" type="curve" smooth="yes"/>
      <point x="80" y="373"/>
      <point x="44" y="342"/>
      <point x="44" y="308" type="curve" smooth="yes"/>
      <point x="44" y="279"/>
      <point x="68" y="242"/>
      <point x="107" y="213" type="curve"/>
      <point x="68" y="191"/>
      <point x="44" y="159"/>
      <point x="44" y="129" type="curve" smooth="yes"/>
      <point x="44" y="43"/>
      <point x="221" y="-75"/>
      <point x="349" y="-75" type="curve" smooth="yes"/>
      <point x="389" y="-75"/>
      <point x="423" y="-66"/>
      <point x="440" y="-50" type="curve"/>
      <point x="359" y="-3" type="line"/>
      <point x="346" y="-20"/>
      <point x="317" y="-29"/>
      <point x="286" y="-29" type="curve" smooth="yes"/>
      <point x="224" y="-29"/>
      <point x="125" y="35"/>
      <point x="125" y="81" type="curve" smooth="yes"/>
      <point x="125" y="140"/>
      <point x="220" y="193"/>
      <point x="296" y="193" type="curve" smooth="yes"/>
      <point x="310" y="193"/>
      <point x="320" y="182"/>
      <point x="320" y="170" type="curve" smooth="yes"/>
      <point x="320" y="149"/>
      <point x="293" y="128"/>
      <point x="255" y="117" type="curve"/>
      <point x="330" y="56" type="line"/>
      <point x="366" y="69"/>
      <point x="391" y="98"/>
      <point x="391" y="131" type="curve" smooth="yes"/>
      <point x="391" y="180"/>
      <point x="299" y="250"/>
      <point x="243" y="250" type="curve" smooth="yes"/>
      <point x="199" y="250"/>
      <point x="162" y="243"/>
      <point x="130" y="228" type="curve"/>
      <point x="117" y="241"/>
      <point x="108" y="254"/>
      <point x="108" y="263" type="curve" smooth="yes"/>
      <point x="108" y="282"/>
      <point x="128" y="298"/>
      <point x="153" y="298" type="curve" smooth="yes"/>
      <point x="177" y="298"/>
      <point x="258" y="293"/>
      <point x="282" y="293" type="curve" smooth="yes"/>
      <point x="314" y="293"/>
      <point x="336" y="313"/>
      <point x="336" y="336" type="curve" smooth="yes"/>
      <point x="336" y="356"/>
      <point x="322" y="389"/>
      <point x="292" y="421" type="curve" smooth="yes"/>
      <point x="217" y="500" type="line"/>
      <point x="-10" y="500" type="line"/>
      <point x="-10" y="421" type="line"/>
    </contour>
    <contour>
      <point x="428" y="421" type="line"/>
      <point x="428" y="500" type="line"/>
      <point x="259" y="500" type="line"/>
      <point x="334" y="421" type="line"/>
    </contour>
    <contour>
      <point x="80" y="-51" type="move" name="nukta"/>
    </contour>
    <contour>
      <point x="298" y="-51" type="move" name="bottom"/>
    </contour>
    <contour>
      <point x="238" y="500" type="move" name="top"/>
    </contour>
  </outline>
</glyph>
<glyph name="uni093A" format="1">
  <advance width="0"/>
  <unicode hex="093A"/>
  <outline>
    <contour>
      <point x="-79" y="500" type="line"/>
      <point x="-79" y="709" type="line"/>
      <point x="-164" y="709" type="line"/>
      <point x="-164" y="500" type="line"/>
    </contour>
    <contour>
      <point x="-122" y="500" type="move" name="_top"/>
    </contour>
  </outline>
</glyph>
<glyph name="nukta-deva" format="1">
  <advance width="0"/>
  <unicode hex="093C"/>
  <outline>
    <contour>
      <point x="-122" y="-59" type="line"/>
      <point x="-63" y="0" type="line"/>
      <point x="-122" y="59" type="line"/>
      <point x="-181" y="0" type="line"/>
    </contour>
    <contour>
      <point x="-122" y="0" type="move" name="_nukta"/>
    </contour>
  </outline>
</glyph>
<glyph name="aaMatra-deva" format="1">
  <advance width="227"/>
  <unicode hex="093E"/>
  <outline>
    <contour>
      <point x="70" y="421" type="line"/>
      <point x="70" y="126" type="line" smooth="yes"/>
      <point x="70" y="61"/>
      <point x="235" y="-55"/>
      <point x="326" y="-55" type="curve" smooth="yes"/>
      <point x="351" y="-55"/>
      <point x="372" y="-44"/>
      <point x="386" y="-26" type="curve"/>
      <point x="312" y="19" type="line"/>
      <point x="299" y="2"/>
      <point x="283" y="-7"/>
      <point x="266" y="-7" type="curve" smooth="yes"/>
      <point x="227" y="-7"/>
      <point x="155" y="41"/>
      <point x="155" y="70" type="curve" smooth="yes"/>
      <point x="155" y="421" type="line"/>
      <point x="76" y="500" type="line"/>
      <point x="-10" y="500" type="line"/>
      <point x="-10" y="421" type="line"/>
    </contour>
    <contour>
      <point x="237" y="421" type="line"/>
      <point x="237" y="500" type="line"/>
      <point x="117" y="500" type="line"/>
      <point x="196" y="421" type="line"/>
    </contour>
    <contour>
      <point x="96" y="500" type="move" name="top"/>
    </contour>
    <contour>
      <point x="113" y="0" type="move" name="bottom"/>
    </contour>
  </outline>
</glyph>
<glyph name="iiMatra-deva" format="1">
  <advance width="227"/>
  <unicode hex="0940"/>
  <outline>
    <contour>
      <point x="-227" y="588"/>
      <point x="-194" y="543"/>
      <point x="-140" y="505" type="curve"/>
      <point x="-116" y="523" type="line"/>
      <point x="-139" y="545"/>
      <point x="-153" y="569"/>
      <point x="-153" y="588" type="curve" smooth="yes"/>
      <point x="-153" y="626"/>
      <point x="-114" y="658"/>
      <point x="-74" y="658" type="curve" smooth="yes"/>
      <point x="11" y="658"/>
      <point x="41" y="505"/>
      <point x="103" y="505" type="curve" smooth="yes"/>
      <point x="124" y="505"/>
      <point x="146" y="515"/>
      <point x="162" y="533" type="curve"/>
      <point x="105" y="593" type="line"/>
      <point x="96" y="582"/>
      <point x="88" y="574"/>
      <point x="80" y="574" type="curve" smooth="yes"/>
      <point x="43" y="574"/>
      <point x="11" y="726"/>
      <point x="-117" y="726" type="curve" smooth="yes"/>
      <point x="-175" y="726"/>
      <point x="-227" y="679"/>
      <point x="-227" y="628" type="curve" smooth="yes"/>
    </contour>
    <contour>
      <point x="70" y="421" type="line"/>
      <point x="70" y="126" type="line" smooth="yes"/>
      <point x="70" y="61"/>
      <point x="235" y="-55"/>
      <point x="326" y="-55" type="curve" smooth="yes"/>
      <point x="351" y="-55"/>
      <point x="372" y="-44"/>
      <point x="386" y="-26" type="curve"/>
      <point x="312" y="19" type="line"/>
      <point x="299" y="2"/>
      <point x="283" y="-7"/>
      <point x="266" y="-7" type="curve" smooth="yes"/>
      <point x="227" y="-7"/>
      <point x="155" y="41"/>
      <point x="155" y="70" type="curve" smooth="yes"/>
      <point x="155" y="421" type="line"/>
      <point x="76" y="500" type="line"/>
      <point x="-10" y="500" type="line"/>
      <point x="-10" y="421" type="line"/>
    </contour>
    <contour>
      <point x="237" y="421" type="line"/>
      <point x="237" y="500" type="line"/>
      <point x="117" y="500" type="line"/>
      <point x="196" y="421" type="line"/>
    </contour>
    <contour>
      <point x="-122" y="500" type="move" name="iimatra"/>
    </contour>
    <contour>
      <point x="237" y="500" type="move" name="top"/>
    </contour>
  </outline>
</glyph>
<glyph name="rVocalicMatra-deva" format="1">
  <advance width="0"/>
  <unicode hex="0943"/>
  <outline>
    <contour>
      <point x="-195" y="11"/>
      <point x="-252" y="-31"/>
      <point x="-252" y="-79" type="curve" smooth="yes"/>
      <point x="-252" y="-146"/>
      <point x="-154" y="-231"/>
      <point x="-64" y="-231" type="curve" smooth="yes"/>
      <point x="-14" y="-231"/>
      <point x="30" y="-219"/>
      <point x="51" y="-197" type="curve"/>
      <point x="-1" y="-133" type="line"/>
      <point x="-34" y="-163"/>
      <point x="-75" y="-179"/>
      <point x="-116" y="-179" type="curve" smooth="yes"/>
      <point x="-154" y="-179"/>
      <point x="-186" y="-157"/>
      <point x="-186" y="-124" type="curve" smooth="yes"/>
      <point x="-186" y="-85"/>
      <point x="-140" y="-47"/>
      <point x="-22" y="-35" type="curve"/>
      <point x="-122" y="16" type="line"/>
    </contour>
    <contour>
      <point x="-122" y="0" type="move" name="_bottom"/>
    </contour>
  </outline>
</glyph>
<glyph name="eShortMatra-deva" format="1">
  <advance width="0"/>
  <unicode hex="0946"/>
  <outline>
    <contour>
      <point x="-474" y="737" type="line"/>
      <point x="-468" y="613"/>
      <point x="-356" y="599"/>
      <point x="-276" y="599" type="curve" smooth="yes"/>
      <point x="-191" y="599"/>
      <point x="-138" y="553"/>
      <point x="-138" y="500" type="curve"/>
      <point x="-106" y="500" type="line"/>
      <point x="-107" y="651"/>
      <point x="-201" y="675"/>
      <point x="-326" y="675" type="curve" smooth="yes"/>
      <point x="-391" y="675"/>
      <point x="-438" y="700"/>
      <point x="-445" y="737" type="curve"/>
    </contour>
    <contour>
      <point x="-122" y="500" type="move" name="_top"/>
    </contour>
  </outline>
</glyph>
<glyph name="aiMatra-deva" format="1">
  <advance width="0"/>
  <unicode hex="0948"/>
  <outline>
    <contour>
      <point x="-498" y="663" type="line"/>
      <point x="-457" y="614"/>
      <point x="-419" y="585"/>
      <point x="-390" y="585" type="curve" smooth="yes"/>
      <point x="-377" y="585"/>
      <point x="-337" y="601"/>
      <point x="-323" y="601" type="curve" smooth="yes"/>
      <point x="-310" y="601"/>
      <point x="-293" y="595"/>
      <point x="-274" y="582" type="curve" smooth="yes"/>
      <point x="-149" y="500" type="line"/>
      <point x="-94" y="500" type="line"/>
      <point x="-160" y="675" type="line" smooth="yes"/>
      <point x="-176" y="720"/>
      <point x="-206" y="746"/>
      <point x="-231" y="746" type="curve" smooth="yes"/>
      <point x="-243" y="746"/>
      <point x="-287" y="736"/>
      <point x="-299" y="736" type="curve" smooth="yes"/>
      <point x="-318" y="736"/>
      <point x="-335" y="744"/>
      <point x="-344" y="758" type="curve"/>
      <point x="-366" y="743" type="line"/>
      <point x="-334" y="694"/>
      <point x="-298" y="662"/>
      <point x="-274" y="662" type="curve" smooth="yes"/>
      <point x="-264" y="662"/>
      <point x="-230" y="669"/>
      <point x="-221" y="669" type="curve" smooth="yes"/>
      <point x="-202" y="669"/>
      <point x="-184" y="648"/>
      <point x="-172" y="620" type="curve" smooth="yes"/>
      <point x="-129" y="516" type="line"/>
      <point x="-303" y="645" type="line" smooth="yes"/>
      <point x="-329" y="664"/>
      <point x="-351" y="676"/>
      <point x="-365" y="676" type="curve" smooth="yes"/>
      <point x="-379" y="676"/>
      <point x="-424" y="659"/>
      <point x="-439" y="659" type="curve" smooth="yes"/>
      <point x="-451" y="659"/>
      <point x="-469" y="667"/>
      <point x="-480" y="680" type="curve"/>
    </contour>
    <contour>
      <point x="-122" y="500" type="move" name="_top"/>
    </contour>
  </outline>
</glyph>
<glyph name="halant-deva" format="1">
  <advance width="0"/>
  <unicode hex="094D"/>
  <outline>
    <contour>
      <point x="76" y="-229" type="line"/>
      <point x="-60" y="-105" type="line" smooth="yes"/>
      <point x="-95" y="-74"/>
      <point x="-136" y="-50"/>
      <point x="-172" y="-50" type="curve" smooth="yes"/>
      <point x="-205" y="-50"/>
      <point x="-232" y="-53"/>
      <point x="-261" y="-58" type="curve"/>
      <point x="-215" y="-129" type="line"/>
      <point x="-177" y="-120"/>
      <point x="-146" y="-116"/>
      <point x="-121" y="-116" type="curve" smooth="yes"/>
      <point x="-86" y="-116"/>
      <point x="-26" y="-162"/>
      <point x="50" y="-247" type="curve"/>
    </contour>
    <contour>
      <point x="-122" y="0" type="move" name="_bottom"/>
    </contour>
  </outline>
</glyph>
<glyph name="om-deva" format="1">
  <advance width="827"/>
  <unicode hex="0950"/>
  <outline>
    <contour>
      <point x="42" y="273" type="line"/>
      <point x="84" y="155"/>
      <point x="167" y="78"/>
      <point x="247" y="78" type="curve" smooth="yes"/>
      <point x="299" y="78"/>
      <point x="342" y="116"/>
      <point x="342" y="162" type="curve" smooth="yes"/>
      <point x="342" y="185"/>
      <point x="332" y="209"/>
      <point x="314" y="228" type="curve"/>
      <point x="288" y="205"/>
      <point x="259" y="192"/>
      <point x="231" y="192" type="curve" smooth="yes"/>
      <point x="179" y="192"/>
      <point x="112" y="248"/>
      <point x="112" y="291" type="curve" smooth="yes"/>
      <point x="112" y="326"/>
      <point x="153" y="357"/>
      <point x="199" y="357" type="curve" smooth="yes"/>
      <point x="223" y="357"/>
      <point x="254" y="339"/>
      <point x="282" y="308" type="curve"/>
      <point x="311" y="335"/>
      <point x="327" y="366"/>
      <point x="327" y="395" type="curve" smooth="yes"/>
      <point x="327" y="425"/>
      <point x="299" y="449"/>
      <point x="264" y="449" type="curve" smooth="yes"/>
      <point x="219" y="449"/>
      <point x="174" y="430"/>
      <point x="136" y="396" type="curve"/>
      <point x="62" y="462" type="line"/>
      <point x="101" y="492"/>
      <point x="147" y="508"/>
      <point x="196" y="508" type="curve" smooth="yes"/>
      <point x="285" y="508"/>
      <point x="394" y="418"/>
      <point x="394" y="345" type="curve" smooth="yes"/>
      <point x="394" y="311"/>
      <point x="374" y="275"/>
      <point x="338" y="246" type="curve"/>
      <point x="357" y="225"/>
      <point x="373" y="207"/>
      <point x="382" y="194" type="curve"/>
      <point x="431" y="177"/>
      <point x="481" y="228"/>
      <point x="496" y="317" type="curve" smooth="yes"/>
      <point x="511" y="400"/>
      <point x="559" y="461"/>
      <point x="611" y="461" type="curve" smooth="yes"/>
      <point x="701" y="461"/>
      <point x="789" y="352"/>
      <point x="789" y="241" type="curve" smooth="yes"/>
      <point x="789" y="170"/>
      <point x="742" y="98"/>
      <point x="696" y="98" type="curve" smooth="yes"/>
      <point x="664" y="98"/>
      <point x="619" y="129"/>
      <point x="574" y="182" type="curve"/>
      <point x="591" y="199" type="line"/>
      <point x="609" y="179"/>
      <point x="625" y="167"/>
      <point x="637" y="167" type="curve" smooth="yes"/>
      <point x="677" y="167"/>
      <point x="719" y="248"/>
      <point x="719" y="326" type="curve" smooth="yes"/>
      <point x="719" y="368"/>
      <point x="695" y="401"/>
      <point x="666" y="401" type="curve" smooth="yes"/>
      <point x="630" y="401"/>
      <point x="596" y="354"/>
      <point x="584" y="289" type="curve" smooth="yes"/>
      <point x="569" y="201"/>
      <point x="525" y="135"/>
      <point x="482" y="135" type="curve" smooth="yes"/>
      <point x="460" y="135"/>
      <point x="433" y="144"/>
      <point x="404" y="161" type="curve"/>
      <point x="416" y="142"/>
      <point x="422" y="123"/>
      <point x="422" y="105" type="curve" smooth="yes"/>
      <point x="422" y="47"/>
      <point x="369" y="0"/>
      <point x="302" y="0" type="curve" smooth="yes"/>
      <point x="187" y="0"/>
      <point x="73" y="104"/>
      <point x="16" y="260" type="curve"/>
    </contour>
    <contour>
      <point x="205" y="239"/>
      <point x="232" y="257"/>
      <point x="262" y="286" type="curve"/>
      <point x="253" y="297"/>
      <point x="241" y="305"/>
      <point x="230" y="305" type="curve" smooth="yes"/>
      <point x="206" y="305"/>
      <point x="170" y="276"/>
      <point x="170" y="256" type="curve" smooth="yes"/>
      <point x="170" y="247"/>
      <point x="178" y="239"/>
      <point x="186" y="239" type="curve" smooth="yes"/>
    </contour>
    <contour>
      <point x="395" y="466"/>
      <point x="317" y="528"/>
      <point x="272" y="624" type="curve"/>
      <point x="298" y="637" type="line"/>
      <point x="327" y="573"/>
      <point x="378" y="532"/>
      <point x="427" y="532" type="curve" smooth="yes"/>
      <point x="478" y="532"/>
      <point x="530" y="575"/>
      <point x="561" y="640" type="curve"/>
      <point x="636" y="589" type="line"/>
      <point x="610" y="515"/>
      <point x="544" y="466"/>
      <point x="474" y="466" type="curve" smooth="yes"/>
    </contour>
    <contour>
      <point x="362" y="656" type="line"/>
      <point x="432" y="721" type="line"/>
      <point x="505" y="656" type="line"/>
      <point x="435" y="594" type="line"/>
    </contour>
  </outline>
</glyph>
<glyph name="udatta-deva" format="1">
  <advance width="0"/>
  <unicode hex="0951"/>
  <outline>
    <contour>
      <point x="-165" y="820" type="line"/>
      <point x="-165" y="590" type="line" smooth="yes"/>
      <point x="-78" y="590" type="line"/>
      <point x="-78" y="820" type="line"/>
    </contour>
    <contour>
      <point x="-122" y="592" type="move" name="_top"/>
    </contour>
  </outline>
</glyph>
<glyph name="acute-deva" format="1">
  <advance width="0"/>
  <unicode hex="0954"/>
  <outline>
    <contour>
      <point x="-158" y="503" type="line"/>
      <point x="-42" y="714" type="line"/>
      <point x="-153" y="714" type="line"/>
      <point x="-200" y="503" type="line"/>
    </contour>
  </outline>
</glyph>
<glyph name="za-deva" format="1">
  <advance width="622"/>
  <unicode hex="095B"/>
  <outline>
    <component base="ja-deva"/>
    <component base="nukta-deva" xOffset="222" yOffset="35"/>
    <contour>
      <point x="490" y="500" type="move" name="top"/>
    </contour>
    <contour>
      <point x="506" y="0" type="move" name="bottom"/>
    </contour>
  </outline>
</glyph>
<glyph name="fa-deva" format="1">
  <advance width="578"/>
  <unicode hex="095E"/>
  <outline>
    <component base="pha-deva"/>
    <component base="nukta-deva" xOffset="237" yOffset="34"/>
    <contour>
      <point x="282" y="500" type="move" name="top"/>
    </contour>
    <contour>
      <point x="298" y="0" type="move" name="bottom"/>
    </contour>
  </outline>
</glyph>
<glyph name="rrVocalic-deva" format="1">
  <advance width="681"/>
  <unicode hex="0960"/>
  <outline>
    <contour>
      <point x="-10" y="500" type="line"/>
      <point x="-10" y="421" type="line"/>
      <point x="280" y="421" type="line"/>
      <point x="280" y="285" type="line"/>
      <point x="236" y="343"/>
      <point x="186" y="378"/>
      <point x="145" y="378" type="curve" smooth="yes"/>
      <point x="92" y="378"/>
      <point x="44" y="360"/>
      <point x="12" y="328" type="curve"/>
      <point x="67" y="250" type="line"/>
      <point x="103" y="287"/>
      <point x="147" y="306"/>
      <point x="190" y="306" type="curve" smooth="yes"/>
      <point x="214" y="306"/>
      <point x="244" y="286"/>
      <point x="270" y="253" type="curve"/>
      <point x="223" y="202"/>
      <point x="161" y="167"/>
      <point x="85" y="149" type="curve"/>
      <point x="155" y="83" type="line"/>
      <point x="203" y="102"/>
      <point x="245" y="130"/>
      <point x="280" y="165" type="curve"/>
      <point x="280" y="118" type="line" smooth="yes"/>
      <point x="280" y="67"/>
      <point x="445" y="-55"/>
      <point x="536" y="-55" type="curve" smooth="yes"/>
      <point x="559" y="-55"/>
      <point x="580" y="-45"/>
      <point x="597" y="-26" type="curve"/>
      <point x="523" y="18" type="line"/>
      <point x="511" y="2"/>
      <point x="495" y="-7"/>
      <point x="479" y="-7" type="curve" smooth="yes"/>
      <point x="437" y="-7"/>
      <point x="365" y="42"/>
      <point x="365" y="70" type="curve" smooth="yes"/>
      <point x="365" y="268" type="line"/>
      <point x="400" y="237"/>
      <point x="439" y="220"/>
      <point x="475" y="220" type="curve" smooth="yes"/>
      <point x="492" y="220"/>
      <point x="510" y="223"/>
      <point x="529" y="229" type="curve"/>
      <point x="539" y="222"/>
      <point x="551" y="211"/>
      <point x="551" y="204" type="curve" smooth="yes"/>
      <point x="551" y="180"/>
      <point x="435" y="186"/>
      <point x="435" y="133" type="curve" smooth="yes"/>
      <point x="435" y="88"/>
      <point x="513" y="31"/>
      <point x="573" y="31" type="curve" smooth="yes"/>
      <point x="610" y="31"/>
      <point x="644" y="40"/>
      <point x="672" y="60" type="curve"/>
      <point x="615" y="109" type="line"/>
      <point x="588" y="88"/>
      <point x="560" y="77"/>
      <point x="536" y="77" type="curve" smooth="yes"/>
      <point x="518" y="77"/>
      <point x="503" y="87"/>
      <point x="503" y="99" type="curve" smooth="yes"/>
      <point x="503" y="133"/>
      <point x="611" y="127"/>
      <point x="611" y="178" type="curve" smooth="yes"/>
      <point x="611" y="195"/>
      <point x="592" y="220"/>
      <point x="560" y="242" type="curve"/>
      <point x="583" y="257"/>
      <point x="596" y="275"/>
      <point x="596" y="291" type="curve" smooth="yes"/>
      <point x="596" y="328"/>
      <point x="543" y="375"/>
      <point x="501" y="375" type="curve" smooth="yes"/>
      <point x="477" y="375"/>
      <point x="458" y="357"/>
      <point x="458" y="336" type="curve" smooth="yes"/>
      <point x="458" y="321"/>
      <point x="465" y="305"/>
      <point x="478" y="289" type="curve"/>
      <point x="466" y="282"/>
      <point x="453" y="278"/>
      <point x="437" y="278" type="curve" smooth="yes"/>
      <point x="406" y="278"/>
      <point x="381" y="289"/>
      <point x="365" y="307" type="curve"/>
      <point x="365" y="421" type="line"/>
      <point x="286" y="500" type="line"/>
    </contour>
    <contour>
      <point x="328" y="500" type="line"/>
      <point x="407" y="421" type="line"/>
      <point x="691" y="421" type="line"/>
      <point x="691" y="500" type="line"/>
    </contour>
    <contour>
      <point x="307" y="500" type="move" name="top"/>
    </contour>
    <contour>
      <point x="324" y="0" type="move" name="bottom"/>
    </contour>
  </outline>
</glyph>
<glyph name="llVocalicMatra-deva" format="1">
  <advance width="0"/>
  <unicode hex="0963"/>
  <outline>
    <contour>
      <point x="-297" y="-120"/>
      <point x="-257" y="-84"/>
      <point x="-211" y="-84" type="curve" smooth="yes"/>
      <point x="-186" y="-84"/>
      <point x="-155" y="-100"/>
      <point x="-124" y="-129" type="curve"/>
      <point x="-111" y="-99"/>
      <point x="-81" y="-80"/>
      <point x="-45" y="-80" type="curve" smooth="yes"/>
      <point x="20" y="-80"/>
      <point x="93" y="-132"/>
      <point x="93" y="-178" type="curve" smooth="yes"/>
      <point x="93" y="-225"/>
      <point x="-1" y="-238"/>
      <point x="-1" y="-263" type="curve" smooth="yes"/>
      <point x="-1" y="-270"/>
      <point x="9" y="-275"/>
      <point x="22" y="-275" type="curve" smooth="yes"/>
      <point x="32" y="-275"/>
      <point x="43" y="-272"/>
      <point x="53" y="-267" type="curve"/>
      <point x="66" y="-294" type="line"/>
      <point x="40" y="-299"/>
      <point x="15" y="-313"/>
      <point x="15" y="-329" type="curve" smooth="yes"/>
      <point x="15" y="-336"/>
      <point x="26" y="-341"/>
      <point x="38" y="-341" type="curve" smooth="yes"/>
      <point x="64" y="-341"/>
      <point x="89" y="-332"/>
      <point x="111" y="-316" type="curve"/>
      <point x="148" y="-353" type="line"/>
      <point x="130" y="-366"/>
      <point x="107" y="-373"/>
      <point x="81" y="-373" type="curve" smooth="yes"/>
      <point x="23" y="-373"/>
      <point x="-36" y="-342"/>
      <point x="-36" y="-313" type="curve" smooth="yes"/>
      <point x="-36" y="-302"/>
      <point x="-18" y="-291"/>
      <point x="-1" y="-285" type="curve"/>
      <point x="-31" y="-279"/>
      <point x="-55" y="-260"/>
      <point x="-55" y="-241" type="curve" smooth="yes"/>
      <point x="-55" y="-208"/>
      <point x="44" y="-187"/>
      <point x="44" y="-153" type="curve" smooth="yes"/>
      <point x="44" y="-133"/>
      <point x="23" y="-116"/>
      <point x="-2" y="-116" type="curve" smooth="yes"/>
      <point x="-40" y="-116"/>
      <point x="-70" y="-143"/>
      <point x="-70" y="-204" type="curve"/>
      <point x="-138" y="-181" type="line"/>
      <point x="-138" y="-175"/>
      <point x="-137" y="-164"/>
      <point x="-134" y="-147" type="curve"/>
      <point x="-143" y="-137"/>
      <point x="-155" y="-131"/>
      <point x="-169" y="-131" type="curve" smooth="yes"/>
      <point x="-207" y="-131"/>
      <point x="-240" y="-163"/>
      <point x="-240" y="-202" type="curve" smooth="yes"/>
      <point x="-240" y="-230"/>
      <point x="-195" y="-272"/>
      <point x="-165" y="-272" type="curve" smooth="yes"/>
      <point x="-151" y="-272"/>
      <point x="-136" y="-267"/>
      <point x="-123" y="-257" type="curve"/>
      <point x="-84" y="-300" type="line"/>
      <point x="-95" y="-309"/>
      <point x="-108" y="-313"/>
      <point x="-119" y="-313" type="curve" smooth="yes"/>
      <point x="-193" y="-313"/>
      <point x="-297" y="-223"/>
      <point x="-297" y="-159" type="curve" smooth="yes"/>
    </contour>
    <contour>
      <point x="-79" y="30" type="line"/>
      <point x="-79" y="-167" type="line"/>
      <point x="-164" y="-111" type="line"/>
      <point x="-164" y="30" type="line"/>
    </contour>
    <contour>
      <point x="-122" y="0" type="move" name="_bottom"/>
    </contour>
  </outline>
</glyph>
<glyph name="dbldanda-deva" format="1">
  <advance width="794"/>
  <unicode hex="0965"/>
  <outline>
    <contour>
      <point x="144" y="105" type="line" smooth="yes"/>
      <point x="144" y="35"/>
      <point x="321" y="-75"/>
      <point x="400" y="-75" type="curve" smooth="yes"/>
      <point x="425" y="-75"/>
      <point x="446" y="-65"/>
      <point x="461" y="-47" type="curve"/>
      <point x="387" y="-2" type="line"/>
      <point x="374" y="-19"/>
      <point x="358" y="-28"/>
      <point x="340" y="-28" type="curve" smooth="yes"/>
      <point x="302" y="-28"/>
      <point x="229" y="20"/>
      <point x="229" y="50" type="curve" smooth="yes"/>
      <point x="229" y="532" type="line"/>
      <point x="144" y="600" type="line"/>
    </contour>
    <contour>
      <point x="405" y="105" type="line" smooth="yes"/>
      <point x="405" y="35"/>
      <point x="582" y="-75"/>
      <point x="661" y="-75" type="curve" smooth="yes"/>
      <point x="686" y="-75"/>
      <point x="707" y="-65"/>
      <point x="722" y="-47" type="curve"/>
      <point x="648" y="-2" type="line"/>
      <point x="635" y="-19"/>
      <point x="619" y="-28"/>
      <point x="601" y="-28" type="curve" smooth="yes"/>
      <point x="563" y="-28"/>
      <point x="490" y="20"/>
      <point x="490" y="50" type="curve" smooth="yes"/>
      <point x="490" y="532" type="line"/>
      <point x="405" y="600" type="line"/>
    </contour>
  </outline>
</glyph>
<glyph name="two-deva" format="1">
  <advance width="479"/>
  <unicode hex="0968"/>
  <outline>
    <contour>
      <point x="90" y="443" type="line"/>
      <point x="130" y="492"/>
      <point x="196" y="523"/>
      <point x="266" y="523" type="curve" smooth="yes"/>
      <point x="297" y="523"/>
      <point x="324" y="493"/>
      <point x="324" y="454" type="curve" smooth="yes"/>
      <point x="324" y="395"/>
      <point x="275" y="331"/>
      <point x="200" y="285" type="curve"/>
      <point x="177" y="338"/>
      <point x="139" y="373"/>
      <point x="103" y="373" type="curve" smooth="yes"/>
      <point x="63" y="373"/>
      <point x="30" y="345"/>
      <point x="30" y="312" type="curve" smooth="yes"/>
      <point x="30" y="263"/>
      <point x="76" y="192"/>
      <point x="139" y="192" type="curve" smooth="yes"/>
      <point x="158" y="192"/>
      <point x="176" y="195"/>
      <point x="193" y="200" type="curve"/>
      <point x="238" y="94" type="line" smooth="yes"/>
      <point x="270" y="20"/>
      <point x="311" y="-22"/>
      <point x="371" y="-22" type="curve" smooth="yes"/>
      <point x="409" y="-22"/>
      <point x="445" y="2"/>
      <point x="463" y="41" type="curve"/>
      <point x="390" y="102" type="line"/>
      <point x="378" y="72"/>
      <point x="351" y="51"/>
      <point x="320" y="51" type="curve" smooth="yes"/>
      <point x="299" y="51"/>
      <point x="272" y="81"/>
      <point x="253" y="128" type="curve" smooth="yes"/>
      <point x="221" y="208" type="line"/>
      <point x="317" y="244"/>
      <point x="384" y="324"/>
      <point x="384" y="408" type="curve" smooth="yes"/>
      <point x="384" y="488"/>
      <point x="282" y="585"/>
      <point x="198" y="585" type="curve" smooth="yes"/>
      <point x="127" y="585"/>
      <point x="62" y="561"/>
      <point x="16" y="518" type="curve"/>
    </contour>
    <contour>
      <point x="96" y="250"/>
      <point x="85" y="259"/>
      <point x="85" y="269" type="curve" smooth="yes"/>
      <point x="85" y="290"/>
      <point x="109" y="306"/>
      <point x="136" y="306" type="curve" smooth="yes"/>
      <point x="151" y="306"/>
      <point x="165" y="291"/>
      <point x="172" y="273" type="curve"/>
      <point x="147" y="258"/>
      <point x="125" y="250"/>
      <point x="110" y="250" type="curve" smooth="yes"/>
    </contour>
  </outline>
</glyph>
<glyph name="nine-deva" format="1">
  <advance width="479"/>
  <unicode hex="096F"/>
  <outline>
    <contour>
      <point x="28" y="175"/>
      <point x="131" y="73"/>
      <point x="245" y="73" type="curve" smooth="yes"/>
      <point x="264" y="73"/>
      <point x="323" y="95"/>
      <point x="341" y="95" type="curve" smooth="yes"/>
      <point x="365" y="95"/>
      <point x="385" y="76"/>
      <point x="385" y="52" type="curve" smooth="yes"/>
      <point x="385" y="17"/>
      <point x="331" y="-20"/>
      <point x="282" y="-23" type="curve"/>
      <point x="366" y="-98" type="line"/>
      <point x="416" y="-83"/>
      <point x="452" y="-40"/>
      <point x="452" y="7" type="curve" smooth="yes"/>
      <point x="452" y="79"/>
      <point x="359" y="170"/>
      <point x="290" y="170" type="curve" smooth="yes"/>
      <point x="258" y="170"/>
      <point x="207" y="138"/>
      <point x="160" y="138" type="curve" smooth="yes"/>
      <point x="122" y="138"/>
      <point x="90" y="173"/>
      <point x="90" y="216" type="curve" smooth="yes"/>
      <point x="90" y="273"/>
      <point x="113" y="331"/>
      <point x="154" y="384" type="curve"/>
      <point x="175" y="322"/>
      <point x="226" y="283"/>
      <point x="280" y="283" type="curve" smooth="yes"/>
      <point x="343" y="283"/>
      <point x="411" y="348"/>
      <point x="411" y="413" type="curve" smooth="yes"/>
      <point x="411" y="490"/>
      <point x="335" y="573"/>
      <point x="261" y="573" type="curve" smooth="yes"/>
      <point x="152" y="573"/>
      <point x="28" y="417"/>
      <point x="28" y="288" type="curve" smooth="yes"/>
    </contour>
    <contour>
      <point x="201" y="354"/>
      <point x="180" y="376"/>
      <point x="172" y="407" type="curve"/>
      <point x="217" y="469"/>
      <point x="273" y="508"/>
      <point x="318" y="508" type="curve" smooth="yes"/>
      <point x="341" y="508"/>
      <point x="358" y="489"/>
      <point x="358" y="467" type="curve" smooth="yes"/>
      <point x="358" y="416"/>
      <point x="278" y="354"/>
      <point x="225" y="354" type="curve" smooth="yes"/>
    </contour>
  </outline>
</glyph>
<glyph name="abbreviation-deva" format="1">
  <advance width="409"/>
  <unicode hex="0970"/>
  <outline>
    <contour>
      <point x="72" y="56"/>
      <point x="159" y="-5"/>
      <point x="220" y="-5" type="curve" smooth="yes"/>
      <point x="280" y="-5"/>
      <point x="336" y="55"/>
      <point x="336" y="118" type="curve" smooth="yes"/>
      <point x="336" y="169"/>
      <point x="256" y="231"/>
      <point x="195" y="231" type="curve" smooth="yes"/>
      <point x="131" y="231"/>
      <point x="72" y="171"/>
      <point x="72" y="106" type="curve" smooth="yes"/>
    </contour>
    <contour>
      <point x="154" y="37"/>
      <point x="142" y="50"/>
      <point x="142" y="65" type="curve" smooth="yes"/>
      <point x="142" y="119"/>
      <point x="194" y="184"/>
      <point x="243" y="184" type="curve" smooth="yes"/>
      <point x="256" y="184"/>
      <point x="267" y="173"/>
      <point x="267" y="159" type="curve" smooth="yes"/>
      <point x="267" y="100"/>
      <point x="218" y="37"/>
      <point x="169" y="37" type="curve" smooth="yes"/>
    </contour>
  </outline>
</glyph>
<glyph name="aCandra-deva" format="1">
  <advance width="621"/>
  <unicode hex="0972"/>
  <outline>
    <component base="a-deva"/>
    <component base="eCandraMatra-deva" xOffset="621" yOffset="10"/>
    <contour>
      <point x="86" y="0" type="move" name="nukta"/>
    </contour>
    <contour>
      <point x="506" y="0" type="move" name="bottom"/>
    </contour>
    <contour>
      <point x="499" y="500" type="move" name="top"/>
    </contour>
  </outline>
</glyph>
<glyph name="zha-deva" format="1">
  <advance width="622"/>
  <unicode hex="0979"/>
  <outline>
    <component base="ja-deva"/>
    <component base="nukta-deva" xOffset="275" yOffset="-22"/>
    <component base="nukta-deva" xOffset="458" yOffset="-22"/>
    <component base="nukta-deva" xOffset="366" yOffset="-114"/>
    <contour>
      <point x="100" y="35" type="move" name="nukta"/>
    </contour>
    <contour>
      <point x="506" y="0" type="move" name="bottom"/>
    </contour>
    <contour>
      <point x="490" y="500" type="move" name="top"/>
    </contour>
  </outline>
</glyph>
<glyph name="jjya-deva" format="1">
  <advance width="479"/>
  <unicode hex="097A"/>
  <outline>
    <contour>
      <point x="258" y="255" type="line"/>
      <point x="340" y="229" type="line"/>
      <point x="252" y="310" type="line"/>
      <point x="183" y="326" type="line"/>
    </contour>
    <component base="ya-deva"/>
    <contour>
      <point x="121" y="14" type="move" name="nukta"/>
    </contour>
    <contour>
      <point x="354" y="0" type="move" name="bottom"/>
    </contour>
    <contour>
      <point x="349" y="500" type="move" name="top"/>
    </contour>
  </outline>
</glyph>
<glyph name="gga-deva" format="1">
  <advance width="534"/>
  <unicode hex="097B"/>
  <outline>
    <contour>
      <point x="462" y="-115" type="line"/>
      <point x="421" y="-61" type="line"/>
      <point x="30" y="-61" type="line"/>
      <point x="69" y="-115" type="line"/>
    </contour>
    <component base="ga-deva"/>
    <contour>
      <point x="405" y="500" type="move" name="top"/>
    </contour>
  </outline>
</glyph>
<glyph name="jja-deva" format="1">
  <advance width="622"/>
  <unicode hex="097C"/>
  <outline>
    <contour>
      <point x="548" y="-115" type="line"/>
      <point x="507" y="-61" type="line"/>
      <point x="30" y="-61" type="line"/>
      <point x="69" y="-115" type="line"/>
    </contour>
    <component base="ja-deva"/>
    <contour>
      <point x="490" y="500" type="move" name="top"/>
    </contour>
  </outline>
</glyph>
<glyph name="glottalstop-deva" format="1">
  <advance width="369"/>
  <unicode hex="097D"/>
  <outline>
    <contour>
      <point x="30" y="340"/>
      <point x="65" y="297"/>
      <point x="127" y="255" type="curve"/>
      <point x="148" y="271" type="line"/>
      <point x="124" y="289"/>
      <point x="107" y="309"/>
      <point x="107" y="323" type="curve" smooth="yes"/>
      <point x="107" y="364"/>
      <point x="176" y="427"/>
      <point x="219" y="427" type="curve" smooth="yes"/>
      <point x="249" y="427"/>
      <point x="279" y="389"/>
      <point x="279" y="354" type="curve" smooth="yes"/>
      <point x="279" y="322"/>
      <point x="251" y="287"/>
      <point x="210" y="262" type="curve" smooth="yes"/>
      <point x="128" y="215" type="line" smooth="yes"/>
      <point x="90" y="192"/>
      <point x="63" y="164"/>
      <point x="63" y="138" type="curve" smooth="yes"/>
      <point x="63" y="91"/>
      <point x="107" y="39"/>
      <point x="175" y="0" type="curve"/>
      <point x="193" y="16" type="line"/>
      <point x="155" y="39"/>
      <point x="129" y="68"/>
      <point x="129" y="92" type="curve" smooth="yes"/>
      <point x="129" y="114"/>
      <point x="148" y="133"/>
      <point x="175" y="149" type="curve" smooth="yes"/>
      <point x="246" y="187" type="line" smooth="yes"/>
      <point x="301" y="218"/>
      <point x="337" y="261"/>
      <point x="337" y="300" type="curve" smooth="yes"/>
      <point x="337" y="382"/>
      <point x="228" y="501"/>
      <point x="166" y="501" type="curve" smooth="yes"/>
      <point x="109" y="501"/>
      <point x="30" y="425"/>
      <point x="30" y="368" type="curve" smooth="yes"/>
    </contour>
  </outline>
</glyph>
<glyph name="ddda-deva" format="1">
  <advance width="475"/>
  <unicode hex="097E"/>
  <outline>
    <contour>
      <point x="445" y="-115" type="line"/>
      <point x="403" y="-61" type="line"/>
      <point x="30" y="-61" type="line"/>
      <point x="69" y="-115" type="line"/>
    </contour>
    <component base="dda-deva"/>
  </outline>
</glyph>
<glyph name="bba-deva" format="1">
  <advance width="449"/>
  <unicode hex="097F"/>
  <outline>
    <contour>
      <point x="114" y="310" type="line"/>
      <point x="239" y="173" type="line"/>
      <point x="267" y="189" type="line"/>
      <point x="142" y="327" type="line"/>
    </contour>
    <contour>
      <point x="377" y="-115" type="line"/>
      <point x="335" y="-61" type="line"/>
      <point x="30" y="-61" type="line"/>
      <point x="69" y="-115" type="line"/>
    </contour>
    <component base="va-deva"/>
    <contour>
      <point x="319" y="500" type="move" name="top"/>
    </contour>
  </outline>
</glyph>
<glyph name="endash" format="1">
  <advance width="372"/>
  <unicode hex="2013"/>
  <outline>
    <contour>
      <point x="331" y="307" type="line"/>
      <point x="331" y="237" type="line"/>
      <point x="36" y="237" type="line"/>
      <point x="36" y="307" type="line"/>
    </contour>
  </outline>
</glyph>
<glyph name="quoteleft" format="1">
  <advance width="188"/>
  <unicode hex="2018"/>
  <outline>
    <contour>
      <point x="143" y="394"/>
      <point x="121" y="373"/>
      <point x="94" y="373" type="curve" smooth="yes"/>
      <point x="67" y="373"/>
      <point x="45" y="394"/>
      <point x="45" y="422" type="curve" smooth="yes"/>
      <point x="45" y="466"/>
      <point x="77" y="500"/>
      <point x="114" y="523" type="curve"/>
      <point x="129" y="509" type="line"/>
      <point x="119" y="500"/>
      <point x="108" y="483"/>
      <point x="105" y="469" type="curve"/>
      <point x="127" y="464"/>
      <point x="143" y="444"/>
      <point x="143" y="422" type="curve" smooth="yes"/>
    </contour>
  </outline>
</glyph>
<glyph name="quotedblleft" format="1">
  <advance width="315"/>
  <unicode hex="201C"/>
  <outline>
    <contour>
      <point x="270" y="394"/>
      <point x="247" y="373"/>
      <point x="221" y="373" type="curve" smooth="yes"/>
      <point x="194" y="373"/>
      <point x="172" y="394"/>
      <point x="172" y="422" type="curve" smooth="yes"/>
      <point x="172" y="466"/>
      <point x="204" y="500"/>
      <point x="241" y="523" type="curve"/>
      <point x="256" y="509" type="line"/>
      <point x="246" y="500"/>
      <point x="235" y="483"/>
      <point x="233" y="469" type="curve"/>
      <point x="254" y="464"/>
      <point x="270" y="444"/>
      <point x="270" y="422" type="curve" smooth="yes"/>
    </contour>
    <contour>
      <point x="143" y="394"/>
      <point x="121" y="373"/>
      <point x="93" y="373" type="curve" smooth="yes"/>
      <point x="67" y="373"/>
      <point x="45" y="394"/>
      <point x="45" y="422" type="curve" smooth="yes"/>
      <point x="45" y="466"/>
      <point x="77" y="500"/>
      <point x="114" y="523" type="curve"/>
      <point x="129" y="509" type="line"/>
      <point x="118" y="500"/>
      <point x="108" y="483"/>
      <point x="105" y="469" type="curve"/>
      <point x="127" y="464"/>
      <point x="143" y="444"/>
      <point x="143" y="422" type="curve" smooth="yes"/>
    </contour>
  </outline>
</glyph>
<glyph name="dagger" format="1">
  <advance width="284"/>
  <unicode hex="2020"/>
  <outline>
    <contour>
      <point x="97" y="515" type="line"/>
      <point x="97" y="363" type="line"/>
      <point x="29" y="363" type="line"/>
      <point x="21" y="335" type="line"/>
      <point x="97" y="335" type="line"/>
      <point x="97" y="-104" type="line"/>
      <point x="188" y="-74" type="line"/>
      <point x="188" y="335" type="line"/>
      <point x="256" y="335" type="line"/>
      <point x="264" y="363" type="line"/>
      <point x="188" y="363" type="line"/>
      <point x="188" y="544" type="line"/>
    </contour>
  </outline>
</glyph>
<glyph name="fraction" format="1">
  <advance width="307"/>
  <unicode hex="2044"/>
  <outline>
    <contour>
      <point x="26" y="11" type="line"/>
      <point x="-12" y="36" type="line"/>
      <point x="284" y="506" type="line"/>
      <point x="319" y="482" type="line"/>
    </contour>
  </outline>
</glyph>
<glyph name="sevensuperior" format="1">
  <advance width="187"/>
  <unicode hex="2077"/>
  <outline>
    <contour>
      <point x="187" y="509"/>
      <point x="174" y="508"/>
      <point x="153" y="508" type="curve" smooth="yes"/>
      <point x="40" y="508" type="line"/>
      <point x="4" y="436" type="line"/>
      <point x="16" y="427" type="line"/>
      <point x="38" y="454"/>
      <point x="46" y="457"/>
      <point x="97" y="457" type="curve" smooth="yes"/>
      <point x="143" y="457" type="line"/>
      <point x="88" y="397"/>
      <point x="44" y="310"/>
      <point x="44" y="223" type="curve"/>
      <point x="118" y="249" type="line"/>
      <point x="118" y="252"/>
      <point x="116" y="262"/>
      <point x="116" y="277" type="curve" smooth="yes"/>
      <point x="116" y="364"/>
      <point x="164" y="446"/>
      <point x="214" y="506" type="curve"/>
      <point x="201" y="520" type="line"/>
    </contour>
  </outline>
</glyph>
<glyph name="Euro" format="1">
  <advance width="449"/>
  <unicode hex="20AC"/>
  <outline>
    <contour>
      <point x="156" y="530"/>
      <point x="38" y="388"/>
      <point x="38" y="209" type="curve" smooth="yes"/>
      <point x="38" y="103"/>
      <point x="103" y="-7"/>
      <point x="235" y="-7" type="curve" smooth="yes"/>
      <point x="322" y="-7"/>
      <point x="377" y="45"/>
      <point x="414" y="95" type="curve"/>
      <point x="394" y="114" type="line"/>
      <point x="356" y="71"/>
      <point x="317" y="53"/>
      <point x="274" y="53" type="curve" smooth="yes"/>
      <point x="179" y="53"/>
      <point x="132" y="155"/>
      <point x="132" y="260" type="curve" smooth="yes"/>
      <point x="132" y="363"/>
      <point x="185" y="486"/>
      <point x="279" y="486" type="curve" smooth="yes"/>
      <point x="325" y="486"/>
      <point x="353" y="452"/>
      <point x="353" y="406" type="curve" smooth="yes"/>
      <point x="353" y="387"/>
      <point x="349" y="369"/>
      <point x="341" y="356" type="curve"/>
      <point x="358" y="339" type="line"/>
      <point x="399" y="363"/>
      <point x="431" y="399"/>
      <point x="431" y="444" type="curve" smooth="yes"/>
      <point x="431" y="498"/>
      <point x="383" y="530"/>
      <point x="320" y="530" type="curve" smooth="yes"/>
    </contour>
    <contour>
      <point x="-4" y="203" type="line"/>
      <point x="-23" y="164" type="line"/>
      <point x="264" y="164" type="line"/>
      <point x="282" y="203" type="line"/>
    </contour>
    <contour>
      <point x="14" y="311" type="line"/>
      <point x="-5" y="272" type="line"/>
      <point x="282" y="272" type="line"/>
      <point x="300" y="311" type="line"/>
    </contour>
  </outline>
</glyph>
<glyph name="rupeeIndian" format="1">
  <advance width="661"/>
  <unicode hex="20B9"/>
  <outline>
    <contour>
      <point x="72" y="550" type="line"/>
      <point x="72" y="504" type="line"/>
      <point x="299" y="504" type="line"/>
      <point x="323" y="474"/>
      <point x="338" y="450"/>
      <point x="342" y="433" type="curve"/>
      <point x="72" y="433" type="line"/>
      <point x="72" y="384" type="line"/>
      <point x="348" y="384" type="line"/>
      <point x="353" y="334"/>
      <point x="331" y="290"/>
      <point x="277" y="267" type="curve"/>
      <point x="256" y="317"/>
      <point x="214" y="350"/>
      <point x="171" y="350" type="curve" smooth="yes"/>
      <point x="137" y="350"/>
      <point x="109" y="326"/>
      <point x="109" y="296" type="curve" smooth="yes"/>
      <point x="109" y="209"/>
      <point x="349" y="-8"/>
      <point x="508" y="-8" type="curve" smooth="yes"/>
      <point x="542" y="-8"/>
      <point x="571" y="2"/>
      <point x="586" y="17" type="curve"/>
      <point x="511" y="71" type="line"/>
      <point x="495" y="54"/>
      <point x="472" y="44"/>
      <point x="448" y="44" type="curve" smooth="yes"/>
      <point x="384" y="44"/>
      <point x="304" y="91"/>
      <point x="240" y="172" type="curve"/>
      <point x="370" y="182"/>
      <point x="450" y="277"/>
      <point x="425" y="384" type="curve"/>
      <point x="589" y="384" type="line"/>
      <point x="589" y="433" type="line"/>
      <point x="408" y="433" type="line"/>
      <point x="401" y="451"/>
      <point x="384" y="476"/>
      <point x="358" y="504" type="curve"/>
      <point x="589" y="504" type="line"/>
      <point x="589" y="550" type="line"/>
    </contour>
    <contour>
      <point x="231" y="282"/>
      <point x="244" y="271"/>
      <point x="251" y="254" type="curve"/>
      <point x="232" y="243"/>
      <point x="211" y="238"/>
      <point x="188" y="238" type="curve" smooth="yes"/>
      <point x="180" y="238"/>
      <point x="172" y="246"/>
      <point x="172" y="255" type="curve" smooth="yes"/>
      <point x="172" y="270"/>
      <point x="192" y="282"/>
      <point x="217" y="282" type="curve" smooth="yes"/>
    </contour>
  </outline>
</glyph>
<glyph name="product" format="1">
  <advance width="570"/>
  <unicode hex="220F"/>
  <outline>
    <contour>
      <point x="191" y="-81" type="line"/>
      <point x="191" y="465" type="line"/>
      <point x="380" y="465" type="line"/>
      <point x="380" y="-81" type="line"/>
      <point x="470" y="-81" type="line"/>
      <point x="470" y="465" type="line"/>
      <point x="546" y="465" type="line"/>
      <point x="546" y="516" type="line"/>
      <point x="24" y="516" type="line"/>
      <point x="24" y="465" type="line"/>
      <point x="100" y="465" type="line"/>
      <point x="100" y="-81" type="line"/>
    </contour>
  </outline>
</glyph>
<glyph name="lessequal" format="1">
  <advance width="273"/>
  <unicode hex="2264"/>
  <outline>
    <contour>
      <point x="224" y="139" type="line"/>
      <point x="211" y="124" type="line"/>
      <point x="36" y="254" type="line"/>
      <point x="211" y="395" type="line"/>
      <point x="224" y="384" type="line"/>
      <point x="134" y="254" type="line"/>
    </contour>
    <contour>
      <point x="231" y="102" type="line"/>
      <point x="209" y="44" type="line"/>
      <point x="36" y="44" type="line"/>
      <point x="59" y="102" type="line"/>
    </contour>
  </outline>
</glyph>
<glyph name="fi" format="1">
  <advance width="389"/>
  <unicode hex="FB01"/>
  <outline>
    <contour>
      <point x="372" y="56" type="line"/>
      <point x="365" y="45"/>
      <point x="354" y="38"/>
      <point x="346" y="38" type="curve" smooth="yes"/>
      <point x="338" y="38"/>
      <point x="332" y="45"/>
      <point x="332" y="57" type="curve" smooth="yes"/>
      <point x="332" y="302" type="line"/>
      <point x="248" y="279" type="line"/>
      <point x="135" y="279" type="line"/>
      <point x="135" y="421" type="line" smooth="yes"/>
      <point x="135" y="450"/>
      <point x="142" y="488"/>
      <point x="183" y="488" type="curve" smooth="yes"/>
      <point x="212" y="488"/>
      <point x="235" y="456"/>
      <point x="245" y="409" type="curve"/>
      <point x="326" y="438" type="line"/>
      <point x="298" y="491"/>
      <point x="242" y="520"/>
      <point x="191" y="520" type="curve" smooth="yes"/>
      <point x="87" y="520"/>
      <point x="51" y="433"/>
      <point x="51" y="354" type="curve" smooth="yes"/>
      <point x="51" y="279" type="line"/>
      <point x="29" y="279" type="line"/>
      <point x="13" y="242" type="line"/>
      <point x="51" y="242" type="line"/>
      <point x="51" y="-103" type="line"/>
      <point x="135" y="-72" type="line"/>
      <point x="135" y="242" type="line"/>
      <point x="248" y="242" type="line"/>
      <point x="248" y="55" type="line" smooth="yes"/>
      <point x="248" y="20"/>
      <point x="268" y="-5"/>
      <point x="309" y="-5" type="curve" smooth="yes"/>
      <point x="343" y="-5"/>
      <point x="369" y="16"/>
      <point x="384" y="43" type="curve"/>
    </contour>
  </outline>
</glyph>
<glyph name="fl" format="1">
  <advance width="390"/>
  <unicode hex="FB02"/>
  <outline>
    <contour>
      <point x="374" y="56" type="line"/>
      <point x="368" y="48"/>
      <point x="357" y="38"/>
      <point x="347" y="38" type="curve" smooth="yes"/>
      <point x="338" y="38"/>
      <point x="334" y="46"/>
      <point x="334" y="57" type="curve" smooth="yes"/>
      <point x="334" y="517" type="line"/>
      <point x="271" y="496" type="line"/>
      <point x="246" y="512"/>
      <point x="218" y="520"/>
      <point x="191" y="520" type="curve" smooth="yes"/>
      <point x="87" y="520"/>
      <point x="51" y="433"/>
      <point x="51" y="354" type="curve" smooth="yes"/>
      <point x="51" y="279" type="line"/>
      <point x="29" y="279" type="line"/>
      <point x="13" y="242" type="line"/>
      <point x="51" y="242" type="line"/>
      <point x="51" y="-103" type="line"/>
      <point x="135" y="-72" type="line"/>
      <point x="135" y="242" type="line"/>
      <point x="200" y="242" type="line"/>
      <point x="217" y="279" type="line"/>
      <point x="135" y="279" type="line"/>
      <point x="135" y="421" type="line" smooth="yes"/>
      <point x="135" y="450"/>
      <point x="142" y="488"/>
      <point x="183" y="488" type="curve" smooth="yes"/>
      <point x="215" y="488"/>
      <point x="238" y="461"/>
      <point x="250" y="423" type="curve"/>
      <point x="250" y="55" type="line" smooth="yes"/>
      <point x="250" y="22"/>
      <point x="266" y="-5"/>
      <point x="312" y="-5" type="curve" smooth="yes"/>
      <point x="348" y="-5"/>
      <point x="374" y="20"/>
      <point x="385" y="43" type="curve"/>
    </contour>
  </outline>
</glyph>
<glyph name="breve.cap" format="1">
  <advance width="280"/>
  <outline>
    <contour>
      <point x="262" y="938" type="line"/>
      <point x="255" y="917"/>
      <point x="234" y="849"/>
      <point x="141" y="849" type="curve" smooth="yes"/>
      <point x="47" y="849"/>
      <point x="27" y="917"/>
      <point x="20" y="938" type="curve"/>
      <point x="-18" y="938" type="line"/>
      <point x="-18" y="858"/>
      <point x="41" y="786"/>
      <point x="140" y="786" type="curve" smooth="yes"/>
      <point x="234" y="786"/>
      <point x="298" y="858"/>
      <point x="298" y="938" type="curve"/>
    </contour>
  </outline>
</glyph>
<glyph name="c-deva" format="1">
  <advance width="363"/>
  <outline>
    <contour>
      <point x="9" y="350" type="line"/>
      <point x="59" y="284" type="line"/>
      <point x="159" y="284" type="line"/>
      <point x="133" y="268"/>
      <point x="117" y="243"/>
      <point x="117" y="221" type="curve" smooth="yes"/>
      <point x="117" y="173"/>
      <point x="216" y="99"/>
      <point x="284" y="99" type="curve" smooth="yes"/>
      <point x="319" y="99"/>
      <point x="355" y="116"/>
      <point x="382" y="143" type="curve"/>
      <point x="382" y="246" type="line"/>
      <point x="333" y="188"/>
      <point x="275" y="155"/>
      <point x="224" y="155" type="curve" smooth="yes"/>
      <point x="206" y="155"/>
      <point x="189" y="169"/>
      <point x="189" y="187" type="curve" smooth="yes"/>
      <point x="189" y="231"/>
      <point x="244" y="274"/>
      <point x="313" y="286" type="curve"/>
      <point x="261" y="350" type="line"/>
    </contour>
    <contour>
      <point x="-10" y="500" type="line"/>
      <point x="-10" y="421" type="line"/>
      <point x="373" y="421" type="line"/>
      <point x="373" y="500" type="line"/>
    </contour>
  </outline>
</glyph>
<glyph name="caron.cap" format="1">
  <advance width="346"/>
  <outline>
    <contour>
      <point x="209" y="792" type="line"/>
      <point x="291" y="792" type="line"/>
      <point x="410" y="916" type="line"/>
      <point x="376" y="938" type="line"/>
      <point x="250" y="852" type="line"/>
      <point x="126" y="938" type="line"/>
      <point x="88" y="915" type="line"/>
    </contour>
  </outline>
</glyph>
